<svg width="23" height="20" viewBox="0 0 23 20" fill="none" xmlns="http://www.w3.org/2000/svg">
    <path d="M21.7877 14.1824L15.0826 2.44524C14.1817 0.866022 12.9349 0 11.5625 0C10.1901 0 8.94335 0.866022 8.04236 2.44524L1.33732 14.1824C0.488719 15.6801 0.39443 17.1167 1.07541 18.2476C1.75639 19.3785 3.0974 20 4.85747 20H18.2675C20.0276 20 21.3686 19.3785 22.0496 18.2476C22.7306 17.1167 22.6363 15.6699 21.7877 14.1824ZM10.7768 7.13194C10.7768 6.71421 11.133 6.3678 11.5625 6.3678C11.992 6.3678 12.3482 6.71421 12.3482 7.13194V12.2262C12.3482 12.6439 11.992 12.9903 11.5625 12.9903C11.133 12.9903 10.7768 12.6439 10.7768 12.2262V7.13194ZM12.3063 16.0061L12.1492 16.1284C12.0863 16.1691 12.0235 16.1997 11.9606 16.2201C11.8978 16.2506 11.8349 16.271 11.7616 16.2812C11.6987 16.2914 11.6254 16.3016 11.5625 16.3016C11.4996 16.3016 11.4263 16.2914 11.353 16.2812C11.2873 16.2701 11.2238 16.2495 11.1644 16.2201C11.0976 16.1978 11.0342 16.167 10.9758 16.1284L10.8187 16.0061C10.6301 15.8125 10.5148 15.5476 10.5148 15.2827C10.5148 15.0178 10.6301 14.7529 10.8187 14.5593L10.9758 14.4371C11.0387 14.3963 11.1015 14.3658 11.1644 14.3454C11.2272 14.3148 11.2901 14.2944 11.353 14.2843C11.4892 14.2537 11.6358 14.2537 11.7616 14.2843C11.8349 14.2944 11.8978 14.3148 11.9606 14.3454C12.0235 14.3658 12.0863 14.3963 12.1492 14.4371L12.3063 14.5593C12.4949 14.7529 12.6102 15.0178 12.6102 15.2827C12.6102 15.5476 12.4949 15.8125 12.3063 16.0061Z" fill="#D94841"/>
</svg>