<svg width="131" height="33" viewBox="0 0 131 33" fill="none" xmlns="http://www.w3.org/2000/svg">
    <path d="M28.0411 0H12.5944L11.3158 6.85041L25.2504 6.86829C32.1104 6.86829 34.1451 9.2561 34.0798 13.2179C34.0518 15.248 33.1278 18.6821 32.7358 19.7911C31.6811 22.7602 29.5064 26.1406 21.3584 26.1317L7.81578 26.1228L6.53711 32.9821H21.9464C27.3784 32.9821 29.6931 32.374 32.1384 31.2919C37.5611 28.8951 40.7904 23.7618 42.0878 17.0634C44.0104 7.09187 41.6118 0 28.0411 0ZM75.7904 33L76.8824 27.0439H90.0704C91.1064 27.0439 91.8344 26.4447 91.9838 25.452C92.1891 24.4593 91.6758 23.8602 90.6398 23.8602H84.3304C79.3558 23.8602 76.9758 21.0789 77.8531 16.3122C78.7304 11.5455 82.1558 8.76423 87.1304 8.76423H101.457L100.318 14.7203H87.6904C86.6544 14.7203 85.9264 15.3195 85.7771 16.3122C85.5718 17.3049 86.0851 17.9041 87.1211 17.9041H93.4304C98.4051 17.9041 100.785 20.6854 99.9078 25.452C99.0304 30.2187 95.6611 33 90.6864 33H75.7904ZM55.7051 32.9911C47.5198 32.9911 43.8331 28.7163 45.2891 20.8732C46.6891 13.0301 51.9718 8.75528 60.1664 8.75528H74.6798L70.2184 32.9911H55.7051ZM65.1318 14.7203H61.3984C56.9371 14.7203 54.3051 16.6073 53.5304 20.8732C52.6998 25.148 54.3611 27.035 58.8131 27.035H62.9011L65.1318 14.7203ZM119.442 32.9911L122.037 18.8878C122.504 16.1065 121.328 14.9171 118.425 14.9171H114.3L110.977 32.9911H102.577L108.653 0H117.053L115.438 8.76423H121.729C129.084 8.76423 131.734 11.8406 130.437 18.8967L127.842 33L119.442 32.9911Z" fill="#687692"/>
    <path d="M5.93047 13.0479C1.88914 13.0479 1.31047 15.5698 0.927803 17.0991C0.423803 19.1023 0.265137 19.9072 0.265137 19.9072H16.0758C20.1171 19.9072 20.6958 17.3852 21.0785 15.856C21.5825 13.8527 21.7411 13.0479 21.7411 13.0479H5.93047Z" fill="#687692"/>
</svg>
