<svg width="20" height="20" viewBox="0 0 20 20" fill="none" xmlns="http://www.w3.org/2000/svg">
<path d="M10.0003 1.6665C5.40866 1.6665 1.66699 5.40817 1.66699 9.99984C1.66699 14.5915 5.40866 18.3332 10.0003 18.3332C14.592 18.3332 18.3337 14.5915 18.3337 9.99984C18.3337 5.40817 14.592 1.6665 10.0003 1.6665ZM13.6253 12.9748C13.5836 13.0459 13.5282 13.1079 13.4623 13.1573C13.3964 13.2067 13.3213 13.2425 13.2415 13.2627C13.1616 13.2828 13.0785 13.2869 12.9971 13.2747C12.9156 13.2625 12.8374 13.2342 12.767 13.1915L10.1837 11.6498C9.54199 11.2665 9.06699 10.4248 9.06699 9.68317V6.2665C9.06699 5.92484 9.35033 5.6415 9.69199 5.6415C10.0337 5.6415 10.317 5.92484 10.317 6.2665V9.68317C10.317 9.98317 10.567 10.4248 10.8253 10.5748L13.4087 12.1165C13.7087 12.2915 13.8087 12.6748 13.6253 12.9748Z" />
</svg>
