<svg width="20" height="20" viewBox="0 0 20 20" fill="none" xmlns="http://www.w3.org/2000/svg">
<g clip-path="url(#clip0_970_3210)">
<path fill-rule="evenodd" clip-rule="evenodd" d="M12.8606 2.6959C8.99946 -0.678874 3.01239 1.23062 1.68332 6.23581C1.12521 8.33641 1.66364 9.31178 1.66364 10.8884C1.66364 12.5089 1 14.8562 1 14.8562C1 15.1434 1.25491 15.4233 1.56884 15.3417C2.6913 15.0482 4.47651 14.4677 6.61143 15.0473C13.7907 16.9936 18.3978 7.53509 12.8606 2.6959ZM18.5024 19C18.4559 19 18.4076 18.9937 18.3584 18.9812C12.6826 17.5562 13.0636 19.157 9.90995 18.3136C8.95563 18.0587 8.08718 17.5993 7.33768 17.0035C13.0654 17.7052 17.8397 12.7153 16.9945 6.83879C17.8593 7.73879 18.4944 8.85325 18.7627 10.1014C19.5265 13.644 17.5874 13.0446 18.9854 18.4284C19.0677 18.7434 18.7886 19 18.5024 19Z" fill="#ACB1BF"/>
</g>
<defs>
<clipPath id="clip0_970_3210">
<rect width="20" height="20" fill="white"/>
</clipPath>
</defs>
</svg>
