<svg width="140" height="33" viewBox="0 0 140 33" fill="none" xmlns="http://www.w3.org/2000/svg">
    <g clip-path="url(#clip0_373_1245)">
        <path d="M32.0411 0H16.5944L15.3158 6.85041L29.2504 6.86829C36.1104 6.86829 38.1451 9.2561 38.0798 13.2179C38.0518 15.248 37.1278 18.6821 36.7358 19.7911C35.6811 22.7602 33.5064 26.1406 25.3584 26.1317L11.8158 26.1228L10.5371 32.9821H25.9464C31.3784 32.9821 33.6931 32.374 36.1384 31.2919C41.5611 28.8951 44.7904 23.7618 46.0878 17.0634C48.0104 7.09187 45.6118 0 32.0411 0ZM79.7904 33L80.8824 27.0439H94.0704C95.1064 27.0439 95.8344 26.4447 95.9838 25.452C96.1891 24.4593 95.6758 23.8602 94.6398 23.8602H88.3304C83.3558 23.8602 80.9758 21.0789 81.8531 16.3122C82.7304 11.5455 86.1558 8.76423 91.1304 8.76423H105.457L104.318 14.7203H91.6904C90.6544 14.7203 89.9264 15.3195 89.7771 16.3122C89.5718 17.3049 90.0851 17.9041 91.1211 17.9041H97.4304C102.405 17.9041 104.785 20.6854 103.908 25.452C103.03 30.2187 99.6611 33 94.6864 33H79.7904ZM59.7051 32.9911C51.5198 32.9911 47.8331 28.7163 49.2891 20.8732C50.6891 13.0301 55.9718 8.75528 64.1664 8.75528H78.6798L74.2184 32.9911H59.7051ZM69.1318 14.7203H65.3984C60.9371 14.7203 58.3051 16.6073 57.5304 20.8732C56.6998 25.148 58.3611 27.035 62.8131 27.035H66.9011L69.1318 14.7203ZM123.442 32.9911L126.037 18.8878C126.504 16.1065 125.328 14.9171 122.425 14.9171H118.3L114.977 32.9911H106.577L112.653 0H121.053L119.438 8.76423H125.729C133.084 8.76423 135.734 11.8406 134.437 18.8967L131.842 33L123.442 32.9911Z" fill="#687692"/>
        <path d="M9.93047 13.0479C5.88914 13.0479 5.31047 15.5698 4.9278 17.0991C4.4238 19.1023 4.26514 19.9072 4.26514 19.9072H20.0758C24.1171 19.9072 24.6958 17.3852 25.0785 15.856C25.5825 13.8527 25.7411 13.0479 25.7411 13.0479H9.93047Z" fill="#687692"/>
    </g>
    <defs>
        <clipPath id="clip0_373_1245">
            <rect width="140" height="33" fill="white"/>
        </clipPath>
    </defs>
</svg>
