<svg width="167" height="37" viewBox="0 0 167 37" fill="none" xmlns="http://www.w3.org/2000/svg">
    <g clip-path="url(#clip0_373_1240)">
        <path d="M158.148 29.911C158.148 27.4183 160.132 25.396 162.575 25.396C165.018 25.396 167 27.4183 167 29.911C167 32.4036 165.018 34.4248 162.575 34.4248C160.132 34.4248 158.148 32.4036 158.148 29.911Z" fill="#687692"/>
        <path d="M16.9877 17.954C16.9877 15.0942 16.4461 12.9725 15.3626 11.5902C14.2777 10.2095 12.6347 9.51966 10.4252 9.51966H8.07524V27.0076H9.87339C12.3272 27.0076 14.1254 26.2653 15.2705 24.776C16.414 23.2895 16.9877 21.0149 16.9877 17.954ZM25.3689 17.6559C25.3689 22.8661 23.9961 26.8808 21.2501 29.6987C18.5042 32.5179 14.6442 33.9275 9.66827 33.9275H0V2.70799H10.3434C15.1409 2.70799 18.8449 3.98971 21.455 6.55161C24.064 9.11485 25.3689 12.8142 25.3689 17.6559ZM52.1503 33.9273H59.8436V2.57684H52.1503V33.9273ZM70.6515 22.2334C70.6515 24.2322 70.9075 25.7568 71.4188 26.8045C71.931 27.8537 72.789 28.3776 73.9954 28.3776C75.1891 28.3776 76.0331 27.8537 76.525 26.8045C77.0167 25.7568 77.2614 24.2322 77.2614 22.2334C77.2614 20.2449 77.0129 18.7451 76.5148 17.7328C76.0152 16.7175 75.1635 16.2094 73.9558 16.2094C72.7749 16.2094 71.931 16.7152 71.4186 17.7209C70.9077 18.7282 70.6515 20.2319 70.6515 22.2334ZM85.0917 22.2334C85.0917 26.0416 84.1133 29.0125 82.1511 31.142C80.1905 33.2727 77.4457 34.3388 73.9173 34.3388C70.5337 34.3388 67.8402 33.2492 65.8409 31.07C63.8392 28.891 62.8389 25.9462 62.8389 22.2336C62.8389 18.4369 63.8188 15.4869 65.7808 13.3837C67.7428 11.2802 70.4939 10.2287 74.0363 10.2287C76.2252 10.2287 78.1618 10.716 79.8394 11.6892C81.5184 12.6623 82.8147 14.0565 83.7253 15.8725C84.6372 17.6857 85.0917 19.8074 85.0917 22.2334ZM88.1471 33.9273H95.8417V10.6402H88.1471V33.9273ZM88.1467 7.82333H95.8415V2.57568H88.1467V7.82333ZM111.431 27.9877C112.47 27.9877 113.707 27.7185 115.15 27.1843V33.0437C114.113 33.5087 113.126 33.8417 112.189 34.039C111.252 34.239 110.151 34.3383 108.892 34.3383C106.309 34.3383 104.447 33.676 103.303 32.3537C102.164 31.0318 101.593 29.0016 101.593 26.262V16.6621H98.8987V10.6423H101.593V4.69528L109.347 3.31972V10.6421H114.256V16.6623H109.347V25.7262C109.347 27.2339 110.043 27.9877 111.431 27.9877ZM129.239 27.9877C130.278 27.9877 131.515 27.7185 132.958 27.1843V33.0437C131.922 33.5087 130.935 33.8417 129.997 34.039C129.058 34.239 127.962 34.3383 126.701 34.3383C124.118 34.3383 122.255 33.676 121.114 32.3537C119.973 31.0318 119.402 29.0016 119.402 26.262V16.6621H116.706V10.6423H119.402V4.60528L127.154 3.31972V10.6421H132.066V16.6623H127.154V25.7262C127.154 27.2339 127.849 27.9877 129.239 27.9877ZM142.667 19.3965C142.772 18.1215 143.13 17.1873 143.739 16.5904C144.351 15.9946 145.107 15.6967 146.011 15.6967C146.997 15.6967 147.781 16.0311 148.363 16.7052C148.948 17.3753 149.253 18.273 149.277 19.3965H142.667ZM153.518 12.974C151.689 11.1452 149.094 10.2293 145.737 10.2293C142.209 10.2293 139.493 11.281 137.59 13.3842C135.688 15.4877 134.737 18.5053 134.737 22.438C134.737 26.246 135.765 29.1829 137.817 31.2444C139.87 33.306 142.753 34.3381 146.466 34.3381C148.249 34.3381 149.783 34.214 151.069 33.9671C152.347 33.7229 153.584 33.2812 154.784 32.6437L153.602 27.3956C152.73 27.7591 151.9 28.0385 151.116 28.2226C149.984 28.4906 148.742 28.625 147.389 28.625C145.906 28.625 144.736 28.2554 143.878 27.516C143.019 26.7753 142.562 25.7535 142.51 24.4524H156.262V20.8767C156.262 17.4369 155.348 14.8017 153.518 12.974ZM35.5802 19.3965C35.6852 18.1215 36.0426 17.1873 36.6521 16.5904C37.2629 15.9946 38.0199 15.6967 38.9255 15.6967C39.9091 15.6967 40.6929 16.0311 41.2757 16.7052C41.8609 17.3753 42.1644 18.273 42.1913 19.3965H35.5802ZM46.4318 12.974C44.6016 11.1452 42.0081 10.2293 38.6501 10.2293C35.1204 10.2293 32.4066 11.281 30.5045 13.3842C28.6027 15.4877 27.6499 18.5053 27.6499 22.438C27.6499 26.246 28.677 29.1829 30.7313 31.2444C32.783 33.306 35.666 34.3381 39.3789 34.3381C41.1616 34.3381 42.696 34.214 43.9818 33.9671C45.2599 33.7229 46.4972 33.2812 47.6985 32.6437L46.5151 27.3956C45.6428 27.7591 44.813 28.0385 44.0304 28.2226C42.8959 28.4906 41.6548 28.625 40.3021 28.625C38.8203 28.625 37.6487 28.2554 36.7905 27.516C35.931 26.7753 35.4752 25.7535 35.4228 24.4524H49.1752V20.8767C49.1752 17.4369 48.2609 14.8017 46.4318 12.974Z" fill="#687692"/>
    </g>
    <defs>
        <clipPath id="clip0_373_1240">
            <rect width="167" height="37" fill="white"/>
        </clipPath>
    </defs>
</svg>
