<svg width="26" height="26" viewBox="0 0 26 26" fill="none" xmlns="http://www.w3.org/2000/svg">
<path d="M22.75 5.6875H3.25C2.80583 5.6875 2.4375 5.31917 2.4375 4.875C2.4375 4.43083 2.80583 4.0625 3.25 4.0625H22.75C23.1942 4.0625 23.5625 4.43083 23.5625 4.875C23.5625 5.31917 23.1942 5.6875 22.75 5.6875ZM13.5092 11.1042H3.25C2.80583 11.1042 2.4375 10.7358 2.4375 10.2917C2.4375 9.8475 2.80583 9.47917 3.25 9.47917H13.5092C13.7247 9.47917 13.9313 9.56477 14.0837 9.71714C14.2361 9.86952 14.3217 10.0762 14.3217 10.2917C14.3217 10.5072 14.2361 10.7138 14.0837 10.8662C13.9313 11.0186 13.7247 11.1042 13.5092 11.1042ZM22.75 16.5208H3.25C2.80583 16.5208 2.4375 16.1525 2.4375 15.7083C2.4375 15.2642 2.80583 14.8958 3.25 14.8958H22.75C23.1942 14.8958 23.5625 15.2642 23.5625 15.7083C23.5625 16.1525 23.1942 16.5208 22.75 16.5208ZM13.5092 21.9375H3.25C2.80583 21.9375 2.4375 21.5692 2.4375 21.125C2.4375 20.6808 2.80583 20.3125 3.25 20.3125H13.5092C13.7247 20.3125 13.9313 20.3981 14.0837 20.5505C14.2361 20.7028 14.3217 20.9095 14.3217 21.125C14.3217 21.3405 14.2361 21.5472 14.0837 21.6995C13.9313 21.8519 13.7247 21.9375 13.5092 21.9375Z" fill="#ACB1BF"/>
</svg>
