<svg width="49" height="49" viewBox="0 0 49 49" fill="none" xmlns="http://www.w3.org/2000/svg">
    <path d="M24.5 0.75C11.4137 0.75 0.75 11.4137 0.75 24.5C0.75 37.5862 11.4137 48.25 24.5 48.25C37.5862 48.25 48.25 37.5862 48.25 24.5C48.25 11.4137 37.5862 0.75 24.5 0.75ZM35.8525 19.0375L22.3862 32.5037C22.0523 32.8373 21.5995 33.0247 21.1275 33.0247C20.6555 33.0247 20.2027 32.8373 19.8687 32.5037L13.1475 25.7825C12.8162 25.4473 12.6305 24.995 12.6305 24.5237C12.6305 24.0525 12.8162 23.6002 13.1475 23.265C13.8362 22.5762 14.9762 22.5762 15.665 23.265L21.1275 28.7275L33.335 16.52C34.0237 15.8312 35.1637 15.8312 35.8525 16.52C36.5412 17.2087 36.5412 18.325 35.8525 19.0375Z" fill="#0046D0"/>
</svg>
