<svg width="20" height="20" viewBox="0 0 20 20" fill="none" xmlns="http://www.w3.org/2000/svg">
    <path d="M5.649 18.91C5.619 18.91 5.579 18.93 5.549 18.93C3.609 17.97 2.029 16.38 1.059 14.44C1.059 14.41 1.079 14.37 1.079 14.34C2.299 14.7 3.559 14.97 4.809 15.18C5.029 16.44 5.289 17.69 5.649 18.91ZM18.94 14.45C17.95 16.44 16.3 18.05 14.29 19.02C14.67 17.75 14.99 16.47 15.2 15.18C16.46 14.97 17.7 14.7 18.92 14.34C18.91 14.38 18.94 14.42 18.94 14.45ZM19.02 5.71C17.76 5.33 16.49 5.02 15.2 4.8C14.99 3.51 14.68 2.23 14.29 0.98C16.36 1.97 18.03 3.64 19.02 5.71ZM5.65 1.089C5.29 2.309 5.03 3.549 4.82 4.809C3.53 5.009 2.25 5.329 0.98 5.709C1.95 3.699 3.56 2.049 5.55 1.059C5.58 1.059 5.62 1.089 5.65 1.089ZM13.492 4.59C11.172 4.33 8.832 4.33 6.512 4.59C6.762 3.22 7.082 1.85 7.532 0.53C7.552 0.45 7.542 0.39 7.552 0.31C8.342 0.12 9.152 0 10.002 0C10.842 0 11.662 0.12 12.442 0.31C12.452 0.39 12.452 0.45 12.472 0.53C12.922 1.86 13.242 3.22 13.492 4.59ZM4.59 13.492C3.21 13.242 1.85 12.922 0.53 12.472C0.45 12.452 0.39 12.462 0.31 12.452C0.12 11.662 0 10.852 0 10.002C0 9.162 0.12 8.342 0.31 7.562C0.39 7.552 0.45 7.552 0.53 7.532C1.86 7.092 3.21 6.762 4.59 6.512C4.34 8.832 4.34 11.172 4.59 13.492ZM20 10.002C20 10.852 19.88 11.662 19.69 12.452C19.61 12.462 19.55 12.452 19.47 12.472C18.14 12.912 16.78 13.242 15.41 13.492C15.67 11.172 15.67 8.832 15.41 6.512C16.78 6.762 18.15 7.082 19.47 7.532C19.55 7.552 19.61 7.562 19.69 7.562C19.88 8.352 20 9.162 20 10.002ZM13.492 15.41C13.242 16.79 12.922 18.15 12.472 19.47C12.452 19.55 12.452 19.61 12.442 19.69C11.662 19.88 10.842 20 10.002 20C9.152 20 8.342 19.88 7.552 19.69C7.542 19.61 7.552 19.55 7.532 19.47C7.09715 18.1423 6.75631 16.7856 6.512 15.41C7.672 15.54 8.832 15.63 10.002 15.63C11.172 15.63 12.342 15.54 13.492 15.41ZM13.763 13.763C11.2643 14.0785 8.73574 14.0785 6.237 13.763C5.9215 11.2643 5.9215 8.73575 6.237 6.237C8.73575 5.9215 11.2643 5.9215 13.763 6.237C14.0785 8.73574 14.0785 11.2643 13.763 13.763Z" fill="#6A7185"/>
</svg>
