<svg width="35" height="66" viewBox="0 0 35 66" fill="none" xmlns="http://www.w3.org/2000/svg">
    <g clip-path="url(#clip0_323_1699)">
        <path d="M7.70912 52.5424C7.72439 52.4522 7.67546 52.3428 7.64115 52.396C7.66111 52.4653 7.67735 52.5356 7.68982 52.6066C7.67732 52.6804 7.66761 52.7378 7.669 52.7296L7.64262 52.8853C7.65622 52.7655 7.65973 52.6448 7.65312 52.5245C7.65312 52.5245 7.71051 52.5342 7.70912 52.5424Z" fill="#2079FF"/>
        <path d="M8.72852 45.126L8.72013 45.1755C8.72675 45.1599 8.72962 45.1429 8.72852 45.126Z" fill="#2079FF"/>
        <path d="M9.46325 40.5364C9.47636 40.5485 9.4927 40.5565 9.51029 40.5595C9.52788 40.5624 9.54595 40.5603 9.56231 40.5532C9.56231 40.5532 9.50592 40.5351 9.46325 40.5364Z" fill="#2079FF"/>
        <path d="M10.0366 39.7905L10.0282 39.8401C10.0282 39.8401 10.0682 39.8044 10.0366 39.7905Z" fill="#2079FF"/>
        <path d="M8.72861 45.1267L8.84179 45.01C8.73447 44.9918 8.75631 45.0635 8.72861 45.1267Z" fill="#2079FF"/>
        <path d="M7.59131 51.4941C7.59927 51.5193 7.60934 51.5437 7.6214 51.5672L7.63119 51.5094L7.59131 51.4941Z" fill="#2079FF"/>
        <path d="M8.68652 47.168L8.67814 47.2175L8.7772 47.2343L8.68652 47.168Z" fill="#2079FF"/>
        <path d="M8.47318 48.7254C8.47318 48.7254 8.31743 48.699 8.24365 48.6865C8.26691 48.6903 8.28876 48.7001 8.30697 48.715C8.32519 48.73 8.33911 48.7495 8.34731 48.7715L8.47318 48.7254Z" fill="#2079FF"/>
        <path d="M11.7197 0.518066L11.7238 0.544231L11.7197 0.518066Z" fill="#2079FF"/>
        <path d="M10.7295 38.3896C10.7555 38.4365 10.7501 38.4186 10.7295 38.3896Z" fill="#2079FF"/>
        <path d="M11.7573 25.1478C11.3319 25.2697 11.24 24.8662 10.7693 25.0564C10.947 25.0527 11.4753 25.3193 11.7573 25.1478Z" fill="#2079FF"/>
        <path d="M10.9127 35.0646C10.8466 35.0632 10.7806 35.069 10.7158 35.0819C10.7818 35.0822 10.8477 35.0764 10.9127 35.0646Z" fill="#2079FF"/>
        <path d="M10.0303 37.4874L10.091 37.4298C10.091 37.4298 10.0331 37.4709 10.0303 37.4874Z" fill="#2079FF"/>
        <path d="M10.4297 33.7354C10.4297 33.7354 10.5303 33.693 10.4465 33.6363L10.397 33.6279C10.5235 33.6833 10.5207 33.6998 10.4297 33.7354Z" fill="#2079FF"/>
        <path d="M10.3909 6.3224C10.4558 6.29948 10.5234 6.2854 10.592 6.28055C10.4389 6.28836 10.4216 6.09148 10.3909 6.3224Z" fill="#2079FF"/>
        <path d="M7.63259 51.5011C7.61846 51.5023 7.60425 51.4999 7.59131 51.4941L7.63259 51.5011Z" fill="#2079FF"/>
        <path d="M6.95575 33.4335L7.03282 33.2273C6.98447 33.2853 6.95729 33.358 6.95575 33.4335Z" fill="#2079FF"/>
        <path d="M8.9098 15.8704L8.86865 15.8125C8.86865 15.8125 8.86166 15.8538 8.9098 15.8704Z" fill="#2079FF"/>
        <path d="M6.98802 32.5954C7.11824 32.5836 7.24385 32.5413 7.35466 32.4719L7.1907 32.4442L6.98802 32.5954Z" fill="#2079FF"/>
        <path d="M10.4454 4.85568C10.4107 5.06062 10.6364 4.97235 10.7538 5.02597C10.7724 5.26521 10.5691 5.12117 10.4308 5.19052C10.455 5.34641 10.6515 5.48086 10.6171 5.58466C10.5826 5.68845 10.5679 5.57633 10.5187 5.568C10.6837 5.73928 10.4382 6.04346 10.666 6.24224L10.6004 6.23114C10.717 6.23646 10.8328 6.25324 10.9461 6.28124C10.9308 6.37141 11.1 6.46753 10.9114 6.48618C10.9225 6.4206 10.9225 6.4206 10.8269 6.38755L10.895 6.4834C10.6132 6.55375 10.816 6.35198 10.6247 6.33645C10.6775 6.52248 10.8738 6.75809 10.7832 6.89454C10.503 6.90612 10.739 6.55818 10.4747 6.72425L10.6106 6.51957C10.1756 6.6483 10.6342 6.38021 10.1992 6.50894C10.059 6.78879 10.2708 6.83307 10.0979 7.10737C10.2357 7.18973 10.3261 7.10386 10.4749 7.17122C10.7198 7.61744 9.72653 7.45769 10.0537 7.81665C10.2325 7.90596 10.6178 7.9712 10.3822 8.16742L10.0504 8.03534C10.0032 8.31406 10.531 8.23478 10.2487 8.50742C10.1011 8.48244 10.1618 8.27346 10.1125 8.31571C9.7977 8.48165 10.2898 8.46379 10.273 8.61273L9.93944 8.64058C9.88947 8.93569 10.125 9.28758 10.1447 9.61978C10.0381 9.60173 9.94126 9.5263 9.82497 9.56564C9.84218 9.79999 9.80688 10.0352 9.72166 10.2542C9.63645 10.4732 9.50345 10.6704 9.33237 10.8315L9.63946 11.0099C9.63252 11.0509 9.47802 11.0669 9.41799 11.023C9.26727 11.1662 9.63113 11.0591 9.75396 11.1305C9.87679 11.2019 9.54182 11.2379 9.44358 11.1707C9.68066 11.4638 9.96904 12.0018 9.54602 12.259L9.43945 12.241C9.25984 12.4551 10.1453 12.5544 9.78535 12.738L9.71977 12.7269C9.48755 13.202 9.77858 13.7741 9.14216 14.0964C9.69959 14.1908 8.81837 14.5644 9.61228 14.6566C9.18245 14.9043 9.04599 14.8137 8.72108 15.1888C8.70304 15.2954 9.21129 15.3814 9.28064 15.5196L8.84742 15.4885L9.28289 15.7055L8.75105 15.7588L8.84777 15.8848C8.94718 15.8239 9.06454 15.7991 9.1801 15.8146C9.35589 16.0215 8.8181 16.2593 8.5844 16.245L8.9071 16.7297C8.77972 16.7025 8.66191 16.6418 8.56584 16.5539C8.99159 16.8284 8.09289 16.5581 8.52003 16.8244C8.63971 16.828 8.75832 16.8481 8.87253 16.8841C8.81719 16.8967 8.76564 16.9223 8.72216 16.9588C8.67867 16.9952 8.6445 17.0415 8.62246 17.0938C8.60042 17.1461 8.59114 17.2029 8.59541 17.2595C8.59967 17.3161 8.61735 17.3709 8.64698 17.4193L8.30268 17.361C8.17881 17.6942 8.35824 18.0788 8.31079 18.4586C8.47513 18.3347 9.02853 18.4031 9.07607 18.5207L8.57714 18.529C8.87351 18.6214 8.7715 18.427 9.12638 18.622C9.06041 18.7626 8.55216 18.6766 8.39931 18.5832L8.55329 18.7695C8.41489 18.7584 8.27774 18.7352 8.14341 18.7001C8.43978 18.7925 7.60145 18.9625 8.12597 19.1019L7.98661 19.0783C7.92415 19.4472 8.08632 19.6349 8.07734 19.937C8.51181 20.0105 8.40637 20.0854 8.75735 20.2039C8.59413 20.4208 8.21084 20.6426 8.21687 20.9556C8.41725 21.1667 8.59396 21.0195 8.8506 21.1473C8.44059 21.1284 8.45216 21.4087 8.16829 21.2426C8.17921 21.5583 8.29753 21.861 8.50369 22.1004C8.67736 22.0708 8.75265 22.0245 8.88924 22.0645C9.02582 22.1045 8.70294 22.2185 8.50481 22.1934L8.46383 22.1864C9.03701 22.5365 7.17003 23.0046 8.03958 23.447L8.45813 23.8636C8.37021 24.0342 8.15092 23.7357 7.88001 23.8416C8.5431 24.308 7.71978 24.4891 8.16167 24.8674C6.88597 25.0309 8.17155 25.8051 7.34659 26.0955L7.59403 26.0784C7.87804 26.1939 7.41746 26.175 7.33939 26.2377C7.56892 26.2765 7.61433 26.1577 7.77134 26.2265C8.0645 27.035 7.21502 27.8188 6.89588 28.608C6.79672 28.8948 8.40423 28.8634 7.63929 29.1977L7.09574 29.0213C7.71328 29.6571 7.00243 30.2198 7.51341 30.8376C7.39045 30.8168 7.23469 30.7904 7.2376 30.7234C6.84234 30.8167 7.16126 31.1743 7.51111 31.1998C7.49584 31.29 7.22406 31.2018 7.05721 31.241C6.89035 31.2802 7.53744 31.5922 7.15189 31.6281C7.09567 31.6378 7.0378 31.628 6.98794 31.6003C7.17496 31.691 6.92686 31.961 7.37257 31.9184C7.15197 32.1256 7.55187 32.3535 7.27402 32.5004C7.75338 32.6575 7.01204 32.8524 7.7048 32.9444C6.99148 32.8742 7.11618 33.2832 7.44382 33.4399C7.22249 33.4024 7.21529 33.5446 6.91614 33.4686C6.88977 33.6244 7.04929 33.7779 7.41151 33.7802C6.53068 34.0021 8.06323 34.4133 6.97911 34.4912C7.29566 34.9053 7.54198 35.3686 7.70821 35.8627C7.03588 35.7994 7.6602 35.3992 6.94952 35.3632C7.21636 35.7794 7.78563 36.0529 7.61105 36.4365C7.51923 36.5306 7.32413 36.3879 7.21089 36.3097C7.46952 36.7245 7.13238 37.0722 7.47312 37.4503C7.43124 37.4197 7.39754 37.3793 7.37501 37.3325C7.3639 37.3981 7.28028 37.4936 7.56593 37.4998L7.49367 37.4285C7.92034 37.349 8.36348 37.7698 8.58482 37.8072C7.76506 37.6684 8.35299 38.1306 7.31896 37.8627C7.42802 37.9485 7.56412 37.9925 7.70273 37.9867C7.64105 38.0522 7.52893 38.0669 7.31593 37.9803C7.46561 38.2417 7.77195 38.1756 7.75087 38.3997C7.63181 38.3905 7.51382 38.3705 7.39838 38.34C7.66321 38.4691 7.92666 38.6065 7.80318 38.788C7.7212 38.7741 7.62283 38.7575 7.61463 38.7561C7.65206 39.0828 8.28692 39.3674 8.02507 39.6688C7.45957 39.5225 7.82933 39.779 7.34276 39.7641L7.48576 39.9654L7.72375 39.9045C7.69599 40.0685 8.05365 40.2471 7.88792 40.3792L7.69964 40.2462L7.78083 40.5635L7.92765 40.3438C8.16499 40.5358 8.53856 40.3713 8.39174 40.591C8.33436 40.5813 8.36398 40.755 8.09043 40.8267C8.23369 40.9269 8.38654 41.0202 8.25637 41.1415C8.12621 41.2628 7.75632 41.0569 7.65782 41.0908C8.0431 41.156 7.74972 41.4942 8.1403 41.6278C8.02186 41.5859 7.89706 41.5648 7.77141 41.5654L8.06778 41.6577C7.97192 41.7258 7.91996 41.7339 7.73823 41.7115C7.69798 41.9493 8.30009 41.6802 8.04518 41.9406C8.04518 41.9406 7.9796 41.9295 7.93874 41.872C7.79999 42.1436 8.09723 42.4301 7.94624 42.6743C7.51693 42.7197 7.84158 42.4458 7.48605 42.5037C7.56572 42.8798 7.9651 43.31 7.85485 43.6623L7.86595 43.5968C8.41519 43.6898 7.57964 43.8434 7.791 44.0394C7.791 44.0394 7.48769 43.9881 7.55327 43.9992C7.46244 44.2368 7.67632 44.5175 7.82435 44.8883L7.68499 44.8647C7.56844 45.0052 7.61975 45.25 7.59338 45.4058C7.72454 45.428 7.69552 45.5496 7.87058 45.5117C7.19013 45.9446 8.18251 46.4584 7.64433 46.8479C7.65266 46.7988 7.55581 46.7233 7.55026 46.7561L7.64633 47.135C7.81028 47.1628 7.75441 47.0943 7.89264 47.0249C7.94047 47.0493 7.98108 47.0857 8.01046 47.1306C8.03984 47.1756 8.05695 47.2274 8.06011 47.281C7.95393 47.1112 7.78959 47.2351 7.68957 47.3278C7.7421 47.3325 7.79418 47.3413 7.84532 47.3542C7.54691 47.5229 8.18142 47.4111 7.96347 47.6525L7.90609 47.6428C7.9482 47.7427 8.05047 47.8359 8.01604 47.9397C7.83417 47.9679 7.94113 47.8342 7.79219 47.8174C7.76859 47.9568 8.10985 48.1326 7.92911 48.2538C7.88964 48.1881 7.88852 48.0952 7.84085 48.0281C7.63274 48.1615 7.68874 48.1794 7.6543 48.2832L7.61127 48.5373L7.62237 48.4717C8.03325 48.6846 7.69246 48.8546 7.93371 49.1232C7.70886 48.8574 7.79435 49.0996 7.63039 49.0718C7.61929 49.1374 7.52886 49.2233 7.48383 49.1903C7.61335 49.3219 7.39175 49.3856 7.5799 49.5692C7.53072 49.5609 7.55908 49.6922 7.45529 49.6577C7.49728 49.8082 7.5374 49.621 7.58645 49.6799C7.73752 49.9332 7.42649 50.2263 7.61828 50.5876C7.68586 50.8858 7.79368 50.9462 7.82305 51.221C7.76679 51.3042 7.71938 51.136 7.71938 51.136C7.68077 51.2665 7.67479 51.4044 7.70194 51.5378C7.70194 51.5378 7.70194 51.5378 7.63623 51.5773C7.57052 51.6167 7.7153 51.6581 7.68212 51.8043C7.65082 51.7663 7.62387 51.725 7.60179 51.6811C7.57959 51.8122 7.65714 51.9518 7.67592 52.0899C7.6947 52.228 7.63241 51.9982 7.60656 51.9517C7.61181 52.1037 7.63435 52.2547 7.67375 52.4016L7.6904 52.3032C7.6904 52.3032 7.72094 52.1229 7.72371 52.1065L7.70706 52.2048C7.80708 52.1121 7.71491 51.8098 7.71404 51.6157L7.79992 51.7062C7.78313 51.6362 7.76091 51.5675 7.73348 51.501C7.7418 51.4518 7.82933 51.4329 7.83185 51.5176C7.90602 51.3784 7.80348 51.3863 7.87349 51.2717L7.84651 51.1322C7.84651 51.1322 7.93668 51.1475 7.91057 51.2021C8.01918 50.9591 7.85285 50.796 7.99247 50.7184C7.9824 50.3794 7.8859 50.7004 7.76636 50.4103L8.08659 50.2621L7.96363 50.2413C7.97057 50.2003 7.98167 50.1348 8.03766 50.1527C7.96831 50.0144 7.98848 50.1443 7.89831 50.1291C8.03541 49.9668 7.86808 49.6602 8.11691 49.6348C8.00228 49.5648 8.00579 49.7931 7.94476 49.6057C8.21958 49.5763 7.92208 49.391 8.05641 49.2451C8.20396 49.2701 8.10646 49.4475 8.25315 49.2784C8.01833 49.1712 8.35369 48.9834 8.32533 48.8522C8.11219 48.8161 8.27276 48.565 8.21867 48.3366C8.30065 48.3505 8.39603 47.9365 8.52229 47.7387C8.26817 47.6956 8.33982 47.4717 8.30742 47.3144C8.36199 47.313 8.41606 47.325 8.46486 47.3495C8.51367 47.3739 8.5557 47.41 8.58727 47.4545L8.62891 47.2086C8.59083 47.1928 8.55744 47.1675 8.53191 47.1352C8.50639 47.1028 8.4896 47.0644 8.48313 47.0237L8.68807 47.0584C8.71999 46.8699 8.49502 46.6547 8.66921 46.4228C8.45607 46.3867 8.07013 46.5743 7.94782 46.3006C8.06259 46.3201 8.25946 46.3028 8.30851 46.3617C8.35757 46.4206 8.21444 46.2699 8.27195 46.229L8.45343 46.3525C8.54802 46.242 8.28947 46.3247 8.31988 46.195C8.48383 46.2227 8.44853 46.1324 8.57969 46.1546C8.71085 46.1768 8.49884 46.2337 8.56025 46.2694C8.58956 46.2103 8.63089 46.1579 8.68161 46.1157C8.73232 46.0734 8.7913 46.0422 8.85476 46.0241C8.75639 46.0075 8.63343 45.9866 8.61716 45.9333C8.6009 45.8799 8.82778 45.8846 8.92919 45.7837C8.82137 45.7233 8.95834 45.6116 8.70005 45.5932C8.70977 45.5358 8.8369 45.532 8.90664 45.5185C8.80714 45.4089 8.98437 45.0595 8.63287 45.1433C8.38772 44.7982 8.87104 44.4837 8.80082 44.1514L8.89919 44.168C8.80676 43.9669 8.8798 43.7347 8.6697 43.5811C8.67803 43.5319 8.87504 43.464 8.99522 43.5013C8.93684 43.348 8.81527 43.319 9.05768 43.1324C9.2336 43.2886 9.23274 43.0946 9.18303 43.2885C9.29832 43.1057 9.48018 43.0774 9.20602 42.8539C9.4778 42.9421 9.57947 42.7401 9.51276 42.636L9.28965 42.7584C9.27234 42.6629 9.28903 42.5643 9.33684 42.4797L9.71393 42.5436C10.2548 42.1882 9.00105 41.7736 9.88188 41.5517C9.61704 41.4225 9.65586 41.7411 9.33767 41.6282C9.36821 41.4478 10.0233 41.3142 10.033 41.2568C10.2987 41.032 9.46372 40.9833 9.64888 40.7364C9.493 40.7606 9.09661 40.761 8.97139 40.5543C9.00192 40.3739 9.62381 40.3864 9.73832 40.507C9.73832 40.507 9.72721 40.5726 9.64524 40.5587C9.65704 40.5826 9.67349 40.6039 9.69364 40.6213C9.71378 40.6387 9.73721 40.6519 9.76254 40.6601C9.78787 40.6683 9.81458 40.6714 9.84111 40.6691C9.86764 40.6669 9.89345 40.6593 9.91702 40.6469L9.68748 40.608C9.85308 40.5265 9.86874 40.2846 10.1091 40.359C9.98238 40.211 9.86319 40.3173 9.77692 40.3786C10.0249 40.1592 9.83799 40.0179 10.0108 39.7942C9.92188 39.8213 9.7332 39.84 9.73876 39.8072C9.97198 39.4756 9.45627 39.6329 9.41315 39.3895C9.66906 39.2726 9.98699 39.4866 9.81132 39.2292C9.99345 39.0998 10.2405 39.2344 10.3606 39.3222C10.0796 39.0891 10.6199 38.936 10.6899 38.8214L10.8044 38.942C10.7808 38.9182 10.7641 38.8885 10.7562 38.8559C10.7484 38.8234 10.7496 38.7893 10.7598 38.7573L10.4248 38.7934C10.4933 38.7375 10.503 38.6801 10.6356 38.6941C10.4307 38.6089 10.0861 38.7023 9.8158 38.5553C9.98959 38.4751 9.66208 38.2679 10.109 38.2677C9.92792 38.5406 10.5546 38.2757 10.5895 38.5177C10.5473 38.4684 10.557 38.411 10.6187 38.3456C10.638 38.3399 10.6584 38.3387 10.6783 38.3421C10.6982 38.3454 10.717 38.3533 10.7335 38.365C11.1619 38.1255 10.2541 38.2079 10.2931 37.9278C10.539 37.9695 10.7784 37.9004 10.7279 37.8497C10.7085 37.9644 10.3028 37.8704 10.1295 37.7483C10.3432 37.5821 10.0043 37.5416 10.036 37.4542L9.93456 37.5551C9.68043 37.5121 9.72307 37.4097 9.65233 37.2796C9.84907 37.313 9.78323 37.403 9.87353 37.3677C9.43932 37.193 10.3759 37.0902 10.0921 36.8735C10.2741 36.7946 10.5759 36.9048 10.706 36.834C10.3922 36.5954 11.0947 36.63 10.8411 36.3847C10.4815 36.4166 10.5703 36.44 10.2345 36.282L10.4371 36.6789L9.95396 36.3947C9.93452 36.5095 10.1556 36.6481 10.0857 36.7121C9.81269 36.5816 9.89466 36.5955 9.60207 36.6303C10.145 36.5114 9.32135 36.296 9.68396 36.1466L10.5572 36.2186C10.9843 35.9873 10.1621 35.7132 10.4255 35.353L10.2571 35.451C9.9046 35.3913 10.2276 35.2267 10.0967 35.1034C10.3013 35.1241 10.508 35.1047 10.7051 35.0462C10.4838 35.0087 10.7481 34.7921 10.1537 34.7167L10.571 34.5934C10.7685 34.3233 9.73407 34.2072 9.83864 33.9382C10.1582 34.0429 10.395 33.9396 10.6473 34.1425C10.6612 34.0606 10.7256 33.9787 10.5097 33.959C10.7094 33.9254 10.1181 33.6819 10.4231 33.6239C10.2837 33.6003 9.96404 33.5462 9.99987 33.4342C10.05 33.4353 10.0997 33.4437 10.1474 33.4592C9.99987 33.4342 9.95788 33.2837 9.59818 33.3662C10.5938 33.1637 9.59472 32.5898 10.459 32.4157C10.3666 32.2166 10.3058 32.0043 10.2789 31.7865C10.3772 31.8031 10.4346 31.8129 10.41 31.8087C10.725 31.5922 9.51119 31.589 9.85766 31.3357C10.3896 31.2318 10.1238 31.5072 10.3331 31.4162C11.3882 31.4599 10.2233 31.0687 10.8552 30.9228L10.9207 30.9339C11.2942 30.82 10.5472 30.5502 10.6449 30.3222C10.6953 30.3381 10.7477 30.347 10.8006 30.3485C10.621 30.2818 10.4564 30.1801 10.3164 30.0493C10.1765 29.9185 10.0639 29.7611 9.98519 29.5865C10.4033 29.6572 10.2008 29.7073 10.6246 29.6947C10.5743 29.5934 9.94533 29.6725 9.8215 29.4575C10.1012 29.3566 10.3953 29.301 10.6926 29.293L10.7031 29.4803C11.3019 29.4299 10.7023 29.2356 10.8105 29.1443L11.0647 29.1874C11.0053 28.8906 10.3562 28.8397 10.4349 28.5242L10.2366 28.5497C9.60845 28.3252 10.6115 28.4276 10.1404 28.2214L10.7979 28.2231C10.5238 28.0379 10.2777 27.8145 10.067 27.5596C10.4551 27.7185 10.8108 27.9474 11.1163 28.2348C11.1301 28.1289 11.1034 28.0217 11.0415 27.9346C10.9797 27.8475 10.8872 27.787 10.7827 27.7651C10.8482 27.7762 10.9983 27.886 10.8916 27.9185C10.3904 27.7409 10.1135 27.5338 10.151 27.3124C11.4177 27.451 10.5242 26.7516 11.5112 26.6995C11.0695 26.2705 11.773 25.9005 11.7208 25.4616C10.72 25.5452 11.743 25.3305 10.6879 25.2868C10.6308 25.1759 10.6459 25.1363 10.7143 25.131L11.3438 24.8497C11.6391 24.7985 11.5594 24.9705 11.7849 24.9834C11.8757 24.7458 12.2184 24.9135 12.4949 24.7747C12.1313 24.7806 11.9784 24.6873 12.1305 24.536L11.6504 24.6824C11.1387 24.3174 12.5298 24.4687 12.0032 24.0928L12.3186 24.2221C12.1386 24.0398 12.3571 23.5962 11.569 23.37C11.6825 23.347 11.9559 23.3259 12.0268 23.4053C12.17 23.0079 11.2311 22.4273 11.7403 22.1594L11.978 22.1996C11.9167 22.1133 11.5342 22.0317 11.7832 21.9558C11.8815 21.9725 12.0209 21.9961 12.0291 21.9975C12.0373 21.9988 11.7128 21.6741 11.8087 21.606L12.0763 21.7187C12.4094 21.3451 11.4547 21.0569 11.3051 20.7449C11.5001 20.7851 11.7025 20.7693 11.8889 20.6994C12.0753 20.6295 12.2381 20.5083 12.3586 20.3499L12.457 20.3665C12.5347 19.9075 11.9234 19.5341 11.6785 19.0879C12.4226 18.8766 12.0211 18.2099 12.4349 17.8077C12.2354 17.8472 12.0283 17.8121 11.8529 17.7092C11.9939 17.6234 11.4163 17.3991 12.0135 17.4581C12.6013 17.4227 12.4447 17.2022 12.4711 17.0465L11.6787 16.8954C12.7976 16.5621 11.3139 15.7627 12.293 15.6081C12.1101 15.4928 12.1145 15.367 11.9399 15.2531L12.3252 15.3184C12.4391 15.0767 12.4616 14.8019 12.3887 14.5449L12.659 14.6413C12.6924 14.4445 11.5692 14.3049 11.5573 14.1259L12.1561 14.0755C12.1543 13.7378 12.6294 13.422 12.1451 13.0448C12.2189 13.0573 12.3747 13.0837 12.3991 13.1384C12.4269 12.9745 12.7451 12.5393 12.0371 12.5374C12.4949 12.5728 12.0954 12.1931 11.8854 11.9889L12.2215 12.0458C11.7983 11.8561 11.6835 11.8367 11.5693 11.615C11.62 11.5645 11.8359 11.5842 11.7496 11.6455C11.9277 11.4901 11.4466 11.493 11.6234 11.2953L11.8268 11.3887C11.856 11.2166 11.7466 11.2149 11.5132 11.0995C11.2798 10.9841 11.6111 10.7704 11.8899 10.767C11.7178 10.7378 11.4939 10.6156 11.5776 10.5201C11.6478 10.5061 11.7208 10.5184 11.7825 10.5548C11.991 10.2697 11.4488 10.0851 11.7418 9.89864C11.8402 9.91529 11.8812 9.92223 11.9141 9.87721C11.8738 10.1149 11.8925 10.3036 11.8461 10.2789C12.1166 10.3247 12.1691 10.1143 12.5513 10.2971C12.3358 10.1257 11.8882 9.83067 12.0185 9.65878L12.1005 9.67266C12.1088 9.62348 12.1144 9.59069 12.0626 9.54818C12.1044 9.5095 12.1311 9.45728 12.1381 9.40075C12.35 9.39447 12.2494 9.19191 12.2578 9.09215C11.9873 9.04635 12.0272 8.96034 11.8 9.0568C11.8 9.0568 11.8 9.0568 11.8435 9.14849L11.8539 9.38635C11.7174 9.29579 11.5973 9.208 11.7561 9.11683L11.3286 9.00228C11.7253 8.90078 11.9254 8.66483 12.1469 8.65174C11.996 8.3479 12.0366 7.95845 11.5807 7.71261C11.5276 7.62773 11.7217 7.62686 11.7846 7.60379C11.8476 7.58071 11.8254 7.71188 11.8882 7.73937C11.8024 7.59837 11.873 7.28144 11.5696 7.23008C11.7123 7.03499 11.8495 7.37022 11.8051 7.08443L11.8953 7.0997C12.1338 6.83651 11.9308 6.59132 11.7783 6.34626C11.6811 6.24242 11.626 6.10619 11.6236 5.96399C11.6212 5.82179 11.6717 5.68376 11.7653 5.57668C11.7461 5.61031 11.7147 5.63521 11.6776 5.64617C11.8721 4.94547 11.557 4.16692 11.7994 3.48274C11.8327 3.286 11.7439 3.26254 11.6814 3.13389L11.8046 3.05356L11.6766 2.86324C11.6172 2.56648 11.8952 2.369 11.7581 1.98319L11.7074 2.03364C11.6887 1.89553 11.7372 1.60862 11.7331 1.63321C11.7289 1.61655 11.7283 1.59922 11.7311 1.58229C11.734 1.56536 11.7403 1.54921 11.7497 1.53484C11.7678 1.42827 11.7051 1.3502 11.7055 1.19848C11.7485 0.944354 11.7793 1.21097 11.761 0.870576C11.742 0.751606 11.7314 0.63146 11.7291 0.51101C11.7194 0.568393 11.7055 0.650369 11.7041 0.658566L11.7291 0.51101C11.7291 0.51101 11.75 0.388046 11.6972 0.699554C11.6813 0.769879 11.6692 0.841034 11.6611 0.912691L11.6486 0.986469L11.6408 0.833361C11.6123 0.909286 11.5986 0.989998 11.6006 1.07109C11.5787 1.0966 11.5598 1.12453 11.5443 1.15432C11.5283 1.22465 11.5163 1.2958 11.5082 1.36746C11.5082 1.36746 11.5235 1.27729 11.4343 1.40554C11.3451 1.5338 11.5493 1.32383 11.5298 1.48917C11.5102 1.65451 11.4599 1.55323 11.4965 1.68591C11.533 1.81859 11.4965 1.68591 11.5062 1.62853C11.4881 1.73509 11.4576 1.91544 11.4493 1.96463C11.4409 2.01381 11.3882 2.32532 11.2816 2.30728C11.3135 2.4019 11.3281 2.50148 11.3246 2.60126C11.1556 2.404 11.198 2.95085 11.0012 2.91754C11.1375 3.05868 10.9207 3.393 11.0226 3.63793C11.0226 3.63793 10.9734 3.6296 11.0309 3.58874C11.0087 3.7199 10.9116 3.74562 10.8472 3.82747C11.0275 3.85801 11.0256 4.0685 11.1319 4.18769C10.9128 4.33611 10.9149 4.07505 10.722 4.11829C10.8778 4.14466 10.8238 4.41379 10.9742 4.37181C10.8291 4.48215 10.8988 4.46866 10.7046 4.5201C10.9669 4.56452 10.6851 4.63487 10.8748 4.75974C10.7035 4.92469 10.6014 4.7809 10.6432 4.98194C10.5064 5.0431 10.4454 4.85568 10.4454 4.85568ZM10.182 9.99713C10.1998 9.94142 10.2096 9.88345 10.2111 9.82498C10.3177 9.84302 10.4161 9.85968 10.4161 9.85968C10.4161 9.85968 10.3242 9.95375 10.1984 9.9999L10.182 9.99713ZM12.2381 9.30807C12.2776 9.37378 12.2243 9.39004 12.1641 9.39672C12.1569 9.35619 12.1437 9.31699 12.1248 9.28044L12.2313 9.29848L12.2381 9.30807Z" fill="#2079FF"/>
        <path d="M8.76694 15.4163L8.8688 15.4165L8.79044 15.3778L8.76694 15.4163Z" fill="#2079FF"/>
        <path d="M7.71848 47.3077L7.66895 47.2993C7.66895 47.2993 7.69917 47.3214 7.71848 47.3077Z" fill="#2079FF"/>
        <path d="M7.65967 48.2505L7.63607 48.3898C7.64788 48.3441 7.65577 48.2975 7.65967 48.2505Z" fill="#2079FF"/>
        <path d="M7.37556 37.3331C7.26697 37.2722 7.24094 37.2253 7.37556 37.3331Z" fill="#2079FF"/>
        <path d="M8.08762 40.8435L7.92254 40.7228C7.89504 40.7856 7.8881 40.8266 8.08762 40.8435Z" fill="#2079FF"/>
        <path d="M7.94071 40.5657C7.92576 40.5713 7.91254 40.5808 7.90239 40.5931C7.89223 40.6054 7.88548 40.6202 7.88281 40.636C7.88014 40.6517 7.88165 40.6679 7.88718 40.6829C7.89271 40.6979 7.90208 40.7112 7.91434 40.7214C7.94726 40.6764 7.99115 40.6164 7.94071 40.5657Z" fill="#2079FF"/>
        <path d="M7.62402 52.1489L7.62529 52.1916L7.63355 52.193L7.62402 52.1489Z" fill="#2079FF"/>
        <path d="M7.64661 52.3133L7.65919 52.239C7.65919 52.239 7.6329 52.294 7.64661 52.3133Z" fill="#2079FF"/>
        <path d="M7.60938 50.8896C7.59827 50.9552 7.57884 51.07 7.56357 51.1602C7.56912 51.1274 7.64884 50.9554 7.60938 50.8896Z" fill="#2079FF"/>
        <path d="M8.16475 49.7022L8.12311 49.9481C8.17243 49.9059 8.24772 49.8596 8.24608 49.9689C8.40942 49.7014 8.10242 50.0205 8.16475 49.7022Z" fill="#2079FF"/>
        <path d="M8.35094 48.9498C8.32858 49.0819 8.44176 48.9652 8.47478 48.9708C8.5078 48.9764 8.42551 48.8605 8.35094 48.9498Z" fill="#2079FF"/>
        <path d="M9.10739 43.4867L9.37791 43.5325C9.35496 43.419 9.27273 43.5063 9.10739 43.4867Z" fill="#2079FF"/>
        <path d="M7.71902 42.3241L7.52744 42.4097L7.79519 42.4719L7.71902 42.3241Z" fill="#2079FF"/>
        <path d="M9.91233 41.8689L9.94638 41.9168L9.85938 41.7334L9.91233 41.8689Z" fill="#2079FF"/>
        <path d="M10.9313 32.6643L10.427 32.6548C10.5156 32.7289 11.0704 32.7891 10.9313 32.6643Z" fill="#2079FF"/>
        <path d="M10.7679 28.6483C11.0332 28.6257 11.2111 28.5209 10.9639 28.4369C10.9159 28.5215 10.7093 28.5962 10.7679 28.6483Z" fill="#2079FF"/>
        <path d="M12.2858 16.7457L12.4305 16.8376L12.3147 16.6747L12.2858 16.7457Z" fill="#2079FF"/>
        <path d="M6.62281 62.4443L6.40134 62.4574L6.50791 62.4754L6.62281 62.4443Z" fill="#2079FF"/>
        <path d="M7.38462 61.6795C7.46857 61.6852 7.46997 61.6769 7.38462 61.6795Z" fill="#2079FF"/>
        <path d="M3.91474 61.952L3.96427 61.9604C3.96427 61.9604 3.90788 61.9424 3.91474 61.952Z" fill="#2079FF"/>
        <path d="M3.8796 61.9122L4.17901 61.887L4.07244 61.8689L3.8796 61.9122Z" fill="#2079FF"/>
        <path d="M5.13379 60.5308L5.44139 60.507C5.44139 60.507 5.26911 60.5284 5.1406 60.5404L5.34554 60.5751L5.24717 60.5584C5.41112 60.5862 5.19798 60.5501 5.42751 60.589L5.37013 60.5793L5.73651 60.557L5.62174 60.5375L5.69552 60.55C5.43029 60.5726 5.61354 60.5362 5.42348 60.563C5.48906 60.5741 5.69413 60.5582 5.61202 60.5949C5.50638 60.5954 5.40088 60.6029 5.29622 60.6173L5.41099 60.6368L5.00085 60.6685C5.09102 60.6838 4.87914 60.6901 5.00085 60.6685L5.38501 60.6408C5.63913 60.6838 4.63031 60.7154 4.9871 60.6999C5.16745 60.7305 5.55854 60.6618 5.3425 60.6926L5.00211 60.7109C4.94472 60.7012 5.49561 60.6848 5.23164 60.7498L5.08408 60.7248C4.79148 60.7596 5.27263 60.7567 5.26443 60.7553L4.93904 60.7845C4.93904 60.7845 5.16857 60.8234 5.21776 60.8317L4.89376 60.8528C5.03312 60.8764 4.7747 60.9085 4.50669 60.9475L4.8225 60.925L4.57253 60.8574C4.68625 60.8576 4.79989 60.8515 4.91293 60.8392L4.61352 60.8644C4.87736 60.85 5.1972 60.8536 4.80207 60.8963L4.7037 60.8796C4.54781 60.9038 5.42825 60.8337 5.08508 60.8683L5.02769 60.8586C4.83624 60.8936 5.16705 60.8822 4.56407 60.9572C5.11913 60.9162 4.27829 61.0015 5.07259 60.9421C4.66106 60.982 4.52435 60.9926 4.21396 61.0328L4.80042 61.0056L4.36568 61.0332L4.80862 61.007L4.28635 61.0535L4.39292 61.0715L4.71831 61.0423C4.54438 61.0848 4.36747 61.1141 4.18911 61.1298L4.54451 61.1225L4.19453 61.1476C4.63746 61.1214 3.71604 61.1846 4.12895 61.1365L4.48713 61.1128C4.21232 61.1422 4.19453 61.1476 4.30388 61.1492L3.98807 61.1716C3.8979 61.1564 4.10284 61.1911 4.08645 61.1883L4.85476 61.1329L4.35848 61.1753L4.91353 61.1344L4.17107 61.2364L4.32682 61.2627L3.91668 61.2945C4.22429 61.2707 3.40123 61.3506 3.91668 61.2945L3.77732 61.2709C3.77732 61.2709 3.92488 61.2959 3.94127 61.2986L4.63165 61.2553C4.47406 61.2668 4.31766 61.2911 4.164 61.3279L4.8038 61.2845L4.13663 61.3402C4.27042 61.3561 4.40544 61.3592 4.53983 61.3494L4.92537 61.3135C4.80051 61.3339 4.67447 61.3463 4.54802 61.3508C5.16727 61.3291 3.31747 61.4966 4.18555 61.4496L4.13637 61.4413L4.58611 61.4247C4.51233 61.4122 4.27169 61.4389 4.00507 61.4697C4.71046 61.4373 3.89699 61.5104 4.35757 61.5293C3.10798 61.6382 4.44774 61.5446 3.6465 61.6451L3.93368 61.5925C4.2235 61.5741 3.76973 61.5647 3.69304 61.6192L4.10583 61.6216C4.45846 61.6308 3.6832 61.7272 3.42881 61.7853C3.36323 61.7742 4.94767 61.6799 4.27772 61.7519L3.73225 61.7861C4.39387 61.7632 3.72254 61.8435 4.29802 61.8313L4.00819 61.8497C3.62265 61.8856 4.00819 61.8497 4.32122 61.8436L3.8769 61.878C3.65266 61.9075 4.3786 61.8534 3.99167 61.8975L3.84411 61.8725C3.98009 61.8765 4.11619 61.8714 4.25148 61.8571C4.04502 61.8812 4.44822 61.8904 4.20229 61.8488C4.70538 61.8159 3.98625 61.8797 4.67801 61.8282C3.96027 61.8837 4.1188 61.8937 4.45238 61.8658L3.93832 61.9137C4.10919 61.9123 4.27985 61.9018 4.44961 61.8822C3.59376 61.9566 5.1454 61.8567 4.08449 61.9469L4.92784 61.9463C4.25247 62.0006 4.84587 61.9325 4.12812 61.988C4.3752 61.9624 4.62409 61.9594 4.87172 61.979L4.47116 62.0039C4.75821 62.0019 4.47116 62.0039 4.81546 62.0622L4.64331 62.0331L4.84005 62.0664L4.75808 62.0525L5.87499 61.9802L4.62679 62.0809L5.01094 62.0532L4.6254 62.0891C4.78935 62.1168 5.09431 62.0589 5.10112 62.0684L4.74294 62.0921C5.01498 62.0792 5.2884 62.058 5.18309 62.0823L5.00275 62.0518C5.06013 62.0615 5.71633 62.0208 5.4825 62.0571C4.91106 62.0953 5.30202 62.0772 4.81533 62.1128L4.97108 62.1392L5.19533 62.1097C5.19533 62.1097 5.55073 62.1024 5.40026 62.1444L5.19658 62.1521L5.30315 62.1701L5.46723 62.1473C5.72149 62.1398 6.06605 62.0969 5.94434 62.1185L5.66814 62.156C5.8075 62.1796 5.96616 62.139 5.84849 62.1866L5.25106 62.2288C5.63522 62.201 5.37402 62.2496 5.77596 62.2164L5.4 62.2455L5.69538 62.1944L5.36999 62.2236C5.36999 62.2236 5.92643 62.1745 5.6926 62.2108L5.57784 62.1913C5.47127 62.1733 5.77458 62.2246 5.65161 62.2038L5.1827 62.234C5.28927 62.2521 5.724 62.2245 5.64329 62.253L5.68427 62.2599C6.23932 62.219 5.41766 62.2907 5.68427 62.2599L5.44502 62.2785C5.37944 62.2674 5.60898 62.3062 5.77293 62.334L5.64177 62.3118C5.5434 62.2951 5.64177 62.3118 5.55979 62.2979L5.84822 62.2877C5.19606 62.3544 6.22544 62.301 5.71819 62.3584L5.62802 62.3432L5.75098 62.364L5.98203 62.3441C6.04052 62.3455 6.0985 62.3553 6.15418 62.3732C6.03648 62.3771 5.91914 62.3882 5.80281 62.4065L5.95037 62.4315C5.66736 62.4595 6.28257 62.4118 6.08973 62.4551L6.00775 62.4412L6.13891 62.4634L5.90925 62.4751C5.90925 62.4751 6.24006 62.4637 6.0732 62.5029L5.97483 62.4862L5.81075 62.509L5.74517 62.4979L5.79435 62.5063C5.90947 62.4979 6.02503 62.4977 6.14017 62.5058C5.9119 62.5093 6.01721 62.485 5.85035 62.5242L5.73558 62.5047C5.85855 62.5256 5.67 62.4936 5.85035 62.5242L5.74378 62.5061L5.86674 62.527C6.0225 62.5533 5.75185 62.5581 5.96511 62.5436L6.20284 62.5839L6.10447 62.5672L6.0143 62.5519L6.13726 62.5728L6.06349 62.5603L6.17005 62.5783L6.26023 62.5936L6.17825 62.5797L6.27662 62.5964L6.3422 62.6075C6.42418 62.6213 6.26023 62.5936 6.3422 62.6075C6.26651 62.5901 6.18987 62.5771 6.11267 62.5686L6.40388 62.542L6.28912 62.5226L6.3547 62.5337L6.22353 62.5115C6.3383 62.5309 6.15795 62.5004 6.39039 62.4723C6.33793 62.4671 6.28588 62.4583 6.23464 62.4459C6.49167 62.422 6.23464 62.4459 6.30842 62.4584L6.49154 62.4725C6.55712 62.4836 6.26049 62.4924 6.49154 62.4725C6.28647 62.4884 6.41776 62.46 6.35218 62.4489C6.42596 62.4614 6.49167 62.4219 6.59559 62.4058C6.34676 62.4311 6.40705 62.3739 6.36606 62.367L6.6463 62.3554L6.49874 62.3304L6.70381 62.3145C6.70381 62.3145 6.48248 62.277 6.63823 62.3034C6.42496 62.3179 6.05581 62.3566 5.91229 62.3576L6.27185 62.3257C6.27185 62.3257 6.18168 62.3104 6.22267 62.3174L6.51236 62.3496C6.59434 62.3634 6.35661 62.3232 6.373 62.326L6.62864 62.3102L6.89665 62.2713L6.6492 62.2884C6.6492 62.2884 6.86247 62.2739 6.9582 62.2564L6.70394 62.2639L6.90901 62.2481C6.8074 62.2408 6.70532 62.2433 6.60418 62.2555L6.5304 62.243C6.25975 62.2478 6.70685 62.197 6.5975 62.1953L6.69587 62.212C6.6101 62.1886 6.52224 62.1737 6.43355 62.1676L6.75074 62.1369C6.67696 62.1245 6.5622 62.105 6.75074 62.1369C6.93929 62.1689 6.91469 62.1647 6.8819 62.1592C7.1663 62.123 6.97208 62.1744 6.8819 62.1592C7.15533 62.138 7.24286 62.1191 7.1663 62.123L6.95165 62.1457L7.32761 62.1166C7.83486 62.0591 6.55526 62.146 7.33732 62.0592L6.84382 62.0852L7.49599 62.0186C7.73801 61.9837 6.90814 62.054 7.07361 62.023C6.93426 61.9994 6.53357 62.0749 6.39005 62.0759C6.44743 62.0856 7.02443 62.0146 7.14336 62.0095L7.06138 61.9956C7.15296 61.9964 7.24444 61.9893 7.33481 61.9744L7.19545 61.9508C7.32623 61.9244 7.45875 61.9073 7.59197 61.8999L7.26658 61.9291C7.49902 61.901 7.26658 61.9291 7.45123 61.8845L7.186 61.9071C7.39384 61.8748 6.89617 61.9255 6.82921 61.9225C7.07804 61.8972 7.40204 61.8762 7.21614 61.8784L7.76161 61.8443C7.46497 61.8531 7.98723 61.8066 8.05698 61.7931L8.17994 61.814L8.11436 61.8028L7.78897 61.8321L7.98723 61.8066L7.13416 61.8646C7.29812 61.8923 6.97021 61.8368 7.40217 61.8256C7.2449 61.858 7.84649 61.7912 7.90387 61.8009C7.96125 61.8107 7.86288 61.794 7.90387 61.8009L8.01864 61.8204C8.43017 61.7804 7.52375 61.8546 7.54292 61.841L7.97084 61.8038L7.43622 61.8735C7.63448 61.8481 7.29686 61.8499 7.32145 61.8541L7.23128 61.8388C7.13238 61.8506 7.03285 61.8563 6.93326 61.8558L7.15472 61.8427C6.71179 61.8689 7.6278 61.7879 7.33798 61.8063L7.94638 61.7491C7.61418 61.7687 8.30733 61.709 8.04349 61.7234L7.43787 61.7642L7.6592 61.8017L7.15611 61.8345C7.15611 61.8345 7.36925 61.8706 7.31187 61.8609L6.82517 61.8966C7.34743 61.8501 6.52034 61.904 6.87436 61.9049L7.7302 61.8306C8.14173 61.7906 7.29825 61.8417 7.53346 61.7972L7.36938 61.8201C7.0194 61.8451 7.36938 61.8201 7.18903 61.7895L7.78785 61.7391C7.56499 61.7604 7.78785 61.7391 7.21779 61.7691L7.61973 61.736C7.7934 61.7063 6.76805 61.7857 6.86377 61.7682L7.64988 61.7073L7.46814 61.685C7.66501 61.6677 7.05939 61.7085 7.35338 61.6656C7.22221 61.6434 6.89947 61.7068 6.92684 61.6945L7.0744 61.7195L6.51935 61.7605C7.49551 61.6728 6.44557 61.748 7.29738 61.6477C7.22244 61.6435 7.1482 61.6309 7.07605 61.6102L7.19901 61.631C7.49161 61.5962 6.28578 61.6956 6.61256 61.6582L7.09105 61.6211C8.14238 61.5377 6.95169 61.5976 7.56552 61.5581L7.6229 61.5678C7.98385 61.5278 7.22512 61.5764 7.30306 61.5643L7.45882 61.5907C6.92155 61.6262 6.73565 61.6284 6.60852 61.6322L7.25791 61.5819L6.45541 61.64L7.31265 61.5575C7.90327 61.5057 7.31265 61.5575 7.39462 61.5714L7.65166 61.5474C7.56968 61.5335 6.9189 61.592 6.96406 61.5743L6.76718 61.5916C6.12738 61.6351 7.12814 61.5515 6.65242 61.5722L7.31 61.5233L6.55405 61.5555L7.63843 61.3765C7.51477 61.3631 7.38993 61.3646 7.26663 61.381L7.3814 61.4005C7.12979 61.4266 6.87702 61.4401 6.62405 61.4409C7.89685 61.3444 6.94541 61.3857 7.92977 61.2994C7.45405 61.32 8.124 61.2479 8.04202 61.234L7.00847 61.312C6.95929 61.3037 6.94289 61.3009 7.00847 61.312L7.61006 61.2452L8.06119 61.2204C8.12677 61.2315 8.48911 61.1833 8.74753 61.1511C8.38797 61.183 8.23486 61.1908 8.37296 61.172L7.91086 61.2118C7.36678 61.2378 8.7667 61.1375 8.21443 61.162L8.53023 61.1396C8.24748 61.1285 7.96431 61.1369 7.68271 61.1648L8.14482 61.125C8.24319 61.1416 7.29591 61.1583 7.76079 61.1021L8.00003 61.0836C7.92626 61.0711 7.54752 61.1166 7.7869 61.0475L8.04254 61.0318L7.75411 61.0419L8.02753 61.0208C7.74541 61.009 7.46283 61.0147 7.1814 61.0377C7.87317 60.9862 8.08921 60.9553 8.19313 60.9392L8.29151 60.9559C8.34889 60.9656 7.69005 60.9721 7.44538 60.9728C8.16451 60.909 7.71754 60.9093 8.08808 60.8624L7.50705 60.9074C7.63002 60.9282 7.04773 60.9308 7.64654 60.8804C8.22076 60.8258 8.05126 60.8308 8.06085 60.824L7.29253 60.8795C8.37261 60.7756 6.84834 60.8633 7.80672 60.781L7.41575 60.7991L7.8095 60.7646C7.91607 60.7827 7.88328 60.7771 7.8095 60.7646L8.08292 60.7435L6.94962 60.813L7.49647 60.7706C7.49647 60.7706 7.91216 60.7061 7.4063 60.7554L7.6347 60.7013C7.6347 60.7013 7.93008 60.6501 7.23012 60.7002C7.69083 60.6686 7.23012 60.7002 7.04977 60.6697L7.38335 60.6419C6.94862 60.6694 6.8283 60.6828 6.71076 60.6798C6.71076 60.6798 6.96779 60.6558 6.88291 60.7089C7.03879 60.6847 6.5685 60.7231 6.73535 60.6839L6.9321 60.7172C6.82173 60.7096 6.71087 60.7135 6.60129 60.7287C6.47832 60.7079 6.65867 60.7384 6.94585 60.6858C6.83626 60.7011 6.72541 60.7049 6.61504 60.6973L6.81178 60.7306C6.99364 60.7024 6.43998 60.7351 6.71341 60.7139L6.8843 60.7007L7.57606 60.6492C7.38508 60.6719 7.19235 60.676 7.00058 60.6614L7.09076 60.6766L7.14814 60.6864C7.36141 60.6719 7.23831 60.7016 7.23831 60.7016L6.81078 60.5871L6.90095 60.6024C6.7534 60.5774 6.62892 60.6153 6.77799 60.5815L6.32547 60.6145L7.10615 60.5359C6.89809 60.5231 6.68939 60.5244 6.48149 60.5398L6.67016 60.5211L6.78493 60.5405C6.655 60.5343 6.52479 60.5376 6.39535 60.5505C6.51012 60.5699 6.68517 60.5321 6.61001 60.5278L6.70018 60.5431C6.90803 60.5108 6.70018 60.5431 6.51983 60.5125C6.33949 60.482 6.215 60.5199 6.42966 60.4972L6.35588 60.4848C6.48995 60.44 6.11815 60.4445 6.30418 60.3917C6.30418 60.3917 6.2386 60.3806 6.17302 60.3695L6.27139 60.3861L6.14023 60.3639C6.32348 60.3275 6.05825 60.35 6.14023 60.3639C6.18941 60.3722 6.09924 60.357 6.14023 60.3639L6.00907 60.3417L5.94349 60.3306L6.00087 60.3403C6.00087 60.3403 5.93529 60.3292 5.95168 60.332C5.95168 60.332 5.95168 60.332 5.804 60.3576L5.87778 60.3701C5.73842 60.3465 5.82859 60.3617 5.64534 60.3982C5.7847 60.4218 5.64534 60.3982 5.72731 60.4121L5.57963 60.4377C5.67819 60.428 5.77729 60.4251 5.87626 60.4288L5.4839 60.4552C5.6384 60.4392 5.59867 60.4746 5.73816 60.4476L5.49752 60.4743C5.74635 60.449 5.49752 60.4743 5.66147 60.5021C5.51517 60.5195 5.40444 60.526 5.46321 60.5276L5.13379 60.5308ZM5.28499 60.7335C5.35154 60.7378 5.41746 60.749 5.48173 60.7668L5.28499 60.7335ZM7.25649 60.5445L7.1991 60.5348L7.11713 60.5209L7.25649 60.5445Z" fill="#2079FF"/>
        <path d="M4.26436 61.0838L4.36762 61.0759L4.28087 61.0866L4.26436 61.0838Z" fill="#2079FF"/>
        <path d="M4.60256 62.0765C4.53372 62.0818 4.5007 62.0762 4.60256 62.0765Z" fill="#2079FF"/>
        <path d="M5.63377 62.1585L5.46982 62.1307C5.46982 62.1307 5.4287 62.1744 5.63377 62.1585Z" fill="#2079FF"/>
        <path d="M5.46579 62.1556C5.41626 62.1472 5.39975 62.1444 5.46579 62.1556C5.51672 62.1557 5.51533 62.164 5.46579 62.1556Z" fill="#2079FF"/>
        <path d="M5.94708 62.5998C6.00766 62.5931 5.903 62.6093 5.94708 62.5998Z" fill="#2079FF"/>
        <path d="M6.40087 62.5079L6.35988 62.5009C6.40087 62.5079 6.46645 62.519 6.47465 62.5204C6.63331 62.4798 6.36531 62.5187 6.40087 62.5079Z" fill="#2079FF"/>
        <path d="M5.37504 62.2414L5.20276 62.2628L5.46799 62.2403L5.37504 62.2414Z" fill="#2079FF"/>
        <path d="M7.50708 62.0542L7.54975 62.0529L7.44789 62.0526L7.50708 62.0542Z" fill="#2079FF"/>
        <path d="M7.80299 61.5985L7.29852 61.6396C7.46726 61.6343 7.63563 61.6206 7.80299 61.5985Z" fill="#2079FF"/>
        <path d="M7.314 61.4483C7.57784 61.4339 7.74192 61.4111 7.48628 61.4269L7.314 61.4483Z" fill="#2079FF"/>
        <path d="M7.86115 60.8575L8.02245 60.8511L7.87893 60.8521L7.86115 60.8575Z" fill="#2079FF"/>
        <path d="M21.6134 52.8479C21.6273 52.766 21.5865 52.6579 21.5522 52.7111C21.5179 52.7643 21.5342 52.8177 21.5927 52.9203C21.6512 53.023 21.5719 53.0433 21.5733 53.0351L21.5483 53.1826C21.5787 53.0729 21.5978 52.9602 21.6052 52.8465L21.6134 52.8479Z" fill="#2079FF"/>
        <path d="M24.1395 41.512C24.1467 41.5289 24.158 41.5437 24.1724 41.5551C24.1868 41.5664 24.2038 41.5739 24.2219 41.5769C24.2219 41.5769 24.1822 41.5108 24.1395 41.512Z" fill="#2079FF"/>
        <path d="M24.7593 40.8413C24.7593 40.8413 24.7593 40.8413 24.7509 40.8908C24.7425 40.9404 24.7909 40.8552 24.7593 40.8413Z" fill="#2079FF"/>
        <path d="M23.1034 45.8404L23.222 45.7416C23.1161 45.7152 23.1297 45.7854 23.1034 45.8404Z" fill="#2079FF"/>
        <path d="M21.5473 51.8414C21.5391 51.8624 21.5353 51.8849 21.5361 51.9074L21.5459 51.8496L21.5473 51.8414Z" fill="#2079FF"/>
        <path d="M22.6094 49.2555C22.6094 49.2555 22.4536 49.2292 22.3882 49.1675C22.462 49.18 22.4866 49.1841 22.4905 49.2607L22.6094 49.2555Z" fill="#2079FF"/>
        <path d="M23.2103 46.7515L23.3012 46.7669C23.2729 46.7533 23.2415 46.748 23.2103 46.7515Z" fill="#2079FF"/>
        <path d="M27.4426 26.9853C27.0159 27.0649 26.9472 26.6738 26.4589 26.8188C26.6434 26.8247 27.1497 27.1213 27.4426 26.9853Z" fill="#2079FF"/>
        <path d="M21.5611 51.8109L21.5723 51.7448C21.5634 51.7656 21.5595 51.7883 21.5611 51.8109Z" fill="#2079FF"/>
        <path d="M25.942 36.3952L25.7534 36.3633C25.8145 36.3825 25.8779 36.3933 25.942 36.3952Z" fill="#2079FF"/>
        <path d="M24.9043 38.6398L24.9719 38.5918C24.9445 38.5997 24.9207 38.6166 24.9043 38.6398Z" fill="#2079FF"/>
        <path d="M25.5575 35.0826C25.5575 35.0826 25.6483 35.098 25.5715 35.0001L25.522 34.9917C25.6086 35.0318 25.6292 35.0608 25.5575 35.0826Z" fill="#2079FF"/>
        <path d="M27.3678 8.90143L27.5742 8.87736C27.3733 8.86864 27.4053 8.68009 27.3678 8.90143Z" fill="#2079FF"/>
        <path d="M22.1117 34.5156L22.2188 34.3313C22.1652 34.3804 22.1278 34.4447 22.1117 34.5156Z" fill="#2079FF"/>
        <path d="M25.2194 17.907L25.1782 17.8491C25.1782 17.8491 25.1726 17.8821 25.2194 17.907Z" fill="#2079FF"/>
        <path d="M22.2053 33.7133C22.3167 33.7087 22.4264 33.6844 22.5294 33.6417L22.4146 33.6223L22.2053 33.7133Z" fill="#2079FF"/>
        <path d="M27.4778 7.50354C27.4458 7.69209 27.6606 7.61883 27.7766 7.68064C27.7788 7.91711 27.5865 7.75806 27.4414 7.81783C27.4588 7.96413 27.6457 8.1054 27.6113 8.20919C27.5768 8.31298 27.5374 8.24727 27.48 8.23755C27.6353 8.41565 27.3626 8.68148 27.5794 8.89527L27.5138 8.88417C27.6392 8.88632 27.7636 8.90738 27.8827 8.94663C27.8689 9.0286 28.0285 9.13153 27.8508 9.13517C27.8591 9.08598 27.7949 9.06668 27.7417 9.03237L27.8002 9.13504C27.5226 9.1808 27.7391 8.9982 27.5491 8.97447C27.5856 9.15772 27.764 9.39875 27.6598 9.51603C27.3975 9.47162 27.647 9.19342 27.3705 9.33213L27.5379 9.09062C27.0921 9.18379 27.6011 8.9664 27.128 9.02122C26.9743 9.2819 27.175 9.34119 27.0295 9.60325C27.1673 9.68562 27.259 9.64212 27.4066 9.6671C27.6037 10.0968 26.6065 9.8605 26.92 10.2003C27.096 10.306 27.4703 10.3862 27.2293 10.5647L26.8961 10.4408C26.7943 10.6934 27.3644 10.6634 27.0617 10.9073C26.9306 10.8345 26.9898 10.6843 26.9419 10.7184C26.6162 10.8488 27.1096 10.8733 27.0778 11.0112L26.7581 10.9571C26.7109 11.2358 26.8959 11.5876 26.8923 11.9074C26.794 11.8908 26.6985 11.8071 26.5808 11.8547C26.5799 12.0797 26.5283 12.3016 26.4298 12.5039C26.3313 12.7063 26.1885 12.8838 26.0119 13.0232L26.308 13.2167C26.308 13.2167 26.1412 13.2559 26.0867 13.1793C25.9305 13.3046 26.2998 13.2153 26.4117 13.3017C26.5235 13.3881 26.1955 13.3832 26.1055 13.3174C26.3234 13.6241 26.5708 14.1551 26.1301 14.3672L26.0401 14.3013C25.8468 14.4963 26.7226 14.653 26.3436 14.7997L26.2862 14.7899C26.0267 15.2267 26.2768 15.7918 25.6159 16.0594C26.1636 16.2112 25.2663 16.4808 26.0518 16.6223C25.603 16.833 25.4761 16.7356 25.1335 17.0655C25.1169 17.1639 25.61 17.2895 25.6711 17.4264L25.2449 17.3542L25.6612 17.5849L25.1281 17.5958L25.2152 17.7287C25.3191 17.6764 25.4377 17.6608 25.5516 17.6844C25.7178 17.8981 25.1637 18.0825 24.941 18.0533L25.2227 18.531C25.0974 18.505 24.9842 18.4384 24.9006 18.3416C25.3058 18.6378 24.4168 18.3102 24.792 18.5846C24.9121 18.5836 25.0314 18.6038 25.1445 18.6443C25.0899 18.651 25.0377 18.6708 24.9924 18.7021C24.9471 18.7333 24.9101 18.7751 24.8844 18.8238C24.8588 18.8724 24.8453 18.9266 24.8451 18.9817C24.845 19.0367 24.8581 19.0909 24.8835 19.1398L24.572 19.087C24.4277 19.3915 24.5812 19.78 24.5133 20.1311C24.6405 20.0944 24.7744 20.0868 24.9049 20.1089C25.0355 20.131 25.1594 20.1823 25.2674 20.2588L24.7659 20.2329C25.0595 20.3417 24.9739 20.1501 25.3233 20.3273C25.2437 20.4488 24.741 20.3299 24.6019 20.2052L24.7395 20.3887C24.6018 20.3726 24.465 20.3494 24.3296 20.3193C24.6314 20.4294 23.781 20.5215 24.2658 20.6964L24.1182 20.6714C24.0572 21.0321 24.1783 21.2128 24.1516 21.5203C24.586 21.5939 24.4682 21.692 24.8069 21.8336C24.6314 22.0232 24.2373 22.2094 24.227 22.4691C24.4178 22.6869 24.5958 22.5821 24.8456 22.7003C24.4439 22.6323 24.4295 22.9166 24.1634 22.745C24.1494 23.0505 24.2451 23.3508 24.4333 23.5918C24.5632 23.5568 24.6997 23.5539 24.831 23.5833C24.8855 23.66 24.6311 23.7181 24.4358 23.6766L24.3948 23.6696C24.9374 24.2 23.0149 24.4985 23.8187 24.9803L23.7777 24.9734L24.1675 25.4104C24.066 25.5619 23.8727 25.2593 23.6019 25.3147C24.2348 25.8097 23.3994 25.9128 23.8125 26.3116C22.5289 26.3726 23.7542 27.2041 22.9157 27.4247L23.2026 27.4733C23.4757 27.6038 23.0207 27.5521 22.944 27.6066C23.1735 27.6454 23.2229 27.5526 23.3704 27.6282C23.6157 28.4202 22.7173 29.0945 22.3519 29.8084C22.2309 30.0746 23.8299 30.1936 23.0884 30.4391L22.5626 30.2573C23.1336 30.9189 22.3697 31.3967 22.867 31.9953C22.7441 31.9745 22.5801 31.9468 22.594 31.8648C22.1961 31.9239 22.5218 32.2911 22.8333 32.3438C22.8195 32.4258 22.5546 32.2966 22.385 32.3522C22.2153 32.4078 22.8378 32.7156 22.4496 32.7173C22.421 32.7166 22.3928 32.7094 22.3673 32.6964C22.3418 32.6833 22.3196 32.6646 22.3022 32.6418C22.4783 32.7475 22.2425 32.9943 22.6581 32.9803C22.4253 33.1601 22.8046 33.4099 22.5637 33.5378C23.0389 33.7194 22.2827 33.8528 22.9671 33.994C22.2539 33.8732 22.3554 34.2698 22.6707 34.4497C22.4576 34.4136 22.4381 34.5284 22.15 34.4374C22.125 34.585 22.2585 34.7425 22.6166 34.7694C21.7482 34.9175 23.2232 35.4202 22.1447 35.4147C22.419 35.8333 22.6258 36.2923 22.7577 36.775C22.0937 36.6625 22.741 36.3252 22.0059 36.2345C22.255 36.6561 22.7941 36.9582 22.5909 37.3117C22.4923 37.3962 22.3123 37.214 22.2031 37.1617C22.4357 37.5806 22.0809 37.8831 22.3861 38.2721C22.3248 38.2557 22.2691 38.223 22.2251 38.1774C22.214 38.2429 22.1167 38.3192 22.4064 38.3514L22.3355 38.272C22.7635 38.2348 23.1792 38.6678 23.3992 38.7135C22.5961 38.4763 23.1455 39.0163 22.1322 38.676C22.234 38.7687 22.366 38.821 22.5036 38.8232C22.4433 38.8805 22.3244 38.8857 22.1265 38.7594C22.2502 39.0249 22.5606 38.9847 22.5327 39.1992C22.4015 39.177 22.3442 39.1673 22.1899 39.0821C22.4438 39.2263 22.6963 39.3787 22.5674 39.5424C22.4854 39.5285 22.3788 39.5105 22.3858 39.4695C22.3986 39.7921 23.0115 40.1067 22.7237 40.4121C22.1733 40.2262 22.5239 40.4963 22.0361 40.439L22.1695 40.6471L22.4033 40.6108C22.3769 40.7666 22.714 40.967 22.5429 41.0814L22.3542 41.1L22.419 41.4146L22.6121 41.2702C22.8399 41.469 23.2105 41.3715 23.0556 41.5393C23.0134 41.4899 23.0293 41.695 22.7435 41.7394C22.8867 41.8395 23.0286 41.9479 22.8944 42.0432C22.6931 42.0215 22.4933 41.9877 22.296 41.9419C22.6688 42.0809 22.3633 42.3412 22.7497 42.4994C22.6292 42.4546 22.5012 42.4329 22.3726 42.4355L22.6662 42.5443C22.5636 42.6028 22.5198 42.6122 22.3326 42.5721C22.2542 42.7865 22.8958 42.5831 22.63 42.808C22.63 42.808 22.5644 42.7969 22.5236 42.7393C22.3712 42.9918 22.6507 43.2837 22.4779 43.5074C22.0459 43.5186 22.3992 43.2748 22.0314 43.3053C22.0865 43.6773 22.4503 44.1183 22.3196 44.4419L22.3703 44.3915C22.9196 44.4845 22.0732 44.6026 22.2995 44.8096C22.2585 44.8026 22.0128 44.7104 22.0618 44.7693C21.9574 44.9877 22.1548 45.2657 22.2673 45.6474L22.1361 45.6252C22.0142 45.7479 22.0751 45.9858 21.9681 46.1195C22.0993 46.1417 22.0607 46.2701 22.2425 46.2419C21.5322 46.6023 22.4889 47.1775 21.9194 47.5027C21.9278 47.4535 21.8405 47.3712 21.8336 47.4122L21.8982 47.7773C22.0704 47.8065 22.0049 47.7448 22.1486 47.6932C22.1946 47.7175 22.2331 47.7539 22.2598 47.7986C22.2864 47.8433 22.3002 47.8945 22.2996 47.9465C22.2099 47.7795 22.0291 47.9007 21.9347 47.9606C21.9838 47.9689 22.0412 47.9786 22.0904 47.987C21.773 48.1187 22.4265 48.0439 22.1922 48.2825L22.102 48.2672C22.1359 48.3657 22.2368 48.4671 22.1955 48.5613C22.0151 48.5814 22.1302 48.4491 21.9745 48.4227C21.9509 48.5621 22.273 48.7515 22.0868 48.8549C22.0473 48.7892 22.0544 48.6976 22.0149 48.6319C21.7946 48.738 21.8492 48.7641 21.8066 48.8665L21.7007 49.0931L21.7514 49.0427C22.1582 49.2802 21.7983 49.4132 22.0218 49.6872C21.8215 49.4256 21.8906 49.665 21.735 49.588C21.5794 49.5111 21.6266 49.7299 21.5816 49.697C21.7029 49.8271 21.4759 49.873 21.6477 50.0539C21.5985 50.0456 21.6269 50.1769 21.5245 50.1342C21.55 50.2819 21.5982 50.1467 21.6556 50.1564C21.7903 50.4069 21.4602 50.663 21.6316 50.9956C21.803 51.3282 21.7824 51.35 21.7872 51.6207C21.7733 51.7026 21.6931 51.5288 21.6931 51.5288C21.6353 51.6456 21.6131 51.7767 21.6292 51.9059C21.6292 51.9059 21.5882 51.899 21.5567 51.9358C21.5252 51.9726 21.6344 52.0249 21.5862 52.1601C21.5862 52.1601 21.5385 52.093 21.5141 52.0382C21.4933 52.1612 21.5544 52.298 21.5568 52.4334C21.5592 52.5687 21.5215 52.3431 21.5038 52.2979C21.5042 52.444 21.5162 52.5898 21.5396 52.734L21.5563 52.6357C21.5466 52.693 21.5563 52.6357 21.5153 52.6287C21.4743 52.6218 21.5458 52.4484 21.5472 52.4402L21.5306 52.5385C21.6292 52.454 21.593 52.1696 21.5758 51.9728L21.763 51.9623L21.7048 51.7585C21.7117 51.7175 21.7979 51.7068 21.8032 51.7752C21.8828 51.6537 21.7816 51.6535 21.842 51.5456L21.8628 51.4227C21.8628 51.4227 21.953 51.4379 21.9283 51.4843C22.0491 51.2687 21.9006 51.1002 22.006 51.0253C22.0192 50.6986 21.8995 51.0072 21.8045 50.7213L22.1288 50.5991L22.0058 50.5783C22.0058 50.5783 22.0225 50.4799 22.0853 50.5074C22.0241 50.3706 22.0361 50.4991 21.9542 50.4347C22.105 50.2915 21.9636 49.9809 22.2083 49.9802C22.1032 49.9033 22.0917 50.1206 22.0361 49.951C22.3068 49.9462 22.0285 49.7473 22.1764 49.6206C22.3158 49.6442 22.2019 49.8189 22.3732 49.6539C22.1411 49.5303 22.4873 49.3781 22.4412 49.2522C22.228 49.2161 22.405 48.9678 22.3741 48.7518C22.4479 48.7643 22.5801 48.3819 22.7118 48.2018L22.7528 48.2087C22.4986 48.1657 22.5867 47.9445 22.5625 47.7886C22.6182 47.7887 22.673 47.8031 22.7215 47.8306C22.7701 47.858 22.8107 47.8975 22.8396 47.9452L22.8632 47.8058C22.828 47.7887 22.7978 47.7631 22.7752 47.7313C22.7526 47.6995 22.7383 47.6625 22.7338 47.6237L22.9387 47.6584C22.9692 47.478 22.7689 47.267 22.9649 47.0557C22.7517 47.0196 22.3577 47.1552 22.2518 46.8843C22.3584 46.9024 22.5551 46.9357 22.6043 46.944C22.6535 46.9523 22.5184 46.8536 22.5759 46.8127L22.756 46.9444C22.856 46.8517 22.6004 46.8675 22.6321 46.7801C22.796 46.8078 22.7661 46.7353 22.8945 46.7739C23.0229 46.8125 22.8082 46.8352 22.8765 46.8805C22.9072 46.8239 22.9509 46.7754 23.0039 46.7389C23.057 46.7025 23.118 46.6791 23.1818 46.6708C23.0835 46.6541 22.9605 46.6333 22.947 46.5635C22.9789 46.375 23.163 46.5327 23.2809 46.4346C23.1579 46.4137 23.3072 46.2788 23.0531 46.2358C23.0614 46.1866 23.1954 46.1924 23.2719 46.1885C23.1738 46.0707 23.3469 45.7458 23.0159 45.8079C22.7968 45.4587 23.2963 45.1976 23.2329 44.8748L23.3313 44.8915C23.2553 44.6931 23.3433 44.4719 23.1428 44.3115C23.1525 44.2541 23.3618 44.2136 23.4806 44.259C23.4304 44.1072 23.3102 44.07 23.5416 43.8983C23.6984 44.0682 23.7139 43.8769 23.6478 44.0681C23.7781 43.8962 23.9572 43.8844 23.7186 43.65C23.9876 43.7546 24.1043 43.5635 24.0362 43.4677L23.809 43.5641C23.7975 43.5198 23.7954 43.4734 23.8031 43.4282C23.8107 43.383 23.8279 43.3399 23.8534 43.3018L24.2223 43.3643C24.7862 43.0719 23.5614 42.5862 24.4229 42.4285C24.1609 42.2829 24.1833 42.5987 23.8775 42.4626C23.964 42.3002 24.578 42.2102 24.5959 42.1542C24.8739 41.9567 24.0404 41.8493 24.2459 41.6312C24.0984 41.6062 23.6924 41.6133 23.5836 41.4094C23.6619 41.2456 24.2441 41.2935 24.349 41.4209C24.4539 41.5483 24.2983 41.4714 24.2491 41.4631C24.2732 41.5106 24.314 41.5475 24.3636 41.5668C24.4132 41.5861 24.4683 41.5864 24.5181 41.5676L24.3706 41.5426C24.5402 41.487 24.5722 41.2479 24.8098 41.3387C24.6913 41.1922 24.5722 41.2479 24.4736 41.3324C24.7406 41.1499 24.5319 40.9881 24.7415 40.7959C24.6596 40.782 24.4667 40.8253 24.4792 40.7515C24.7397 40.4583 24.2159 40.5636 24.1878 40.3311C24.4477 40.2402 24.7534 40.4269 24.5886 40.2051C24.7843 40.0948 25.0149 40.2772 25.1378 40.298C24.876 40.0513 25.4244 39.9502 25.5094 39.8466L25.6143 39.974C25.5915 39.95 25.576 39.9201 25.5696 39.8876C25.5631 39.8552 25.566 39.8216 25.5779 39.7907L25.2389 39.8008C25.3074 39.7449 25.3239 39.6971 25.4565 39.7111C25.2612 39.619 24.9043 39.6851 24.6464 39.5149C24.8338 39.4539 24.5173 39.2317 24.9587 39.2642C24.7572 39.5084 25.4014 39.3392 25.4268 39.5374C25.3846 39.4881 25.4435 39.4391 25.4546 39.3735C25.494 39.3659 25.5347 39.3728 25.5694 39.3929C26.0155 39.1986 25.1038 39.2045 25.1646 38.9449C25.4105 38.9866 25.6443 38.9503 25.6021 38.9009C25.584 39.0075 25.1743 38.8875 24.9955 38.7982C25.2295 38.6608 24.8866 38.5943 24.9265 38.5083L24.8183 38.5996C24.5642 38.5566 24.6164 38.4473 24.5634 38.3119C24.7602 38.3452 24.6765 38.4407 24.7736 38.4149C24.3518 38.217 25.2923 38.1907 25.0195 37.959C25.2137 37.9076 25.5031 38.0409 25.6414 37.9716C25.3468 37.7193 26.0409 37.8031 25.8065 37.5442C25.4415 37.5583 25.5303 37.5817 25.211 37.3759L25.389 37.7686L24.9265 37.4626C24.9084 37.5692 25.1103 37.7214 25.0336 37.7759C24.7716 37.6304 24.8522 37.6524 24.55 37.694C25.101 37.6271 24.2952 37.3558 24.6769 37.2433L25.5458 37.3904C25.9823 37.2029 25.1863 36.8742 25.4632 36.5838L25.2894 36.664C24.9369 36.6043 25.2749 36.4507 25.1522 36.3287C25.3547 36.3599 25.5611 36.3549 25.7618 36.3139C25.5405 36.2764 25.8021 36.0762 25.2324 35.9544L25.6605 35.8667C25.8688 35.6321 24.8483 35.434 24.9897 35.1965C25.3133 35.3272 25.5473 35.2404 25.79 35.4501C25.8039 35.3681 25.8738 35.3041 25.6607 35.268C25.8671 35.2439 25.2896 34.9691 25.5986 34.937C25.4593 34.9134 25.1396 34.8593 25.1878 34.7241L25.3435 34.7505C25.1878 34.7241 25.1554 34.5668 24.804 34.6001C25.8103 34.4838 24.8537 33.858 25.7233 33.7523C25.6448 33.5571 25.6 33.3499 25.591 33.1396C25.6811 33.1549 25.7467 33.166 25.7139 33.1604C26.0507 32.9645 24.8344 32.8766 25.1999 32.6602C25.7332 32.5987 25.455 32.8467 25.6589 32.7885C26.7097 32.9074 25.5736 32.4452 26.2122 32.3594L26.2778 32.3705C26.6538 32.2908 25.9316 31.9745 26.0428 31.7657L26.1986 31.7921C26.0256 31.7185 25.8692 31.611 25.7385 31.4759C25.6079 31.3408 25.5057 31.1809 25.4379 31.0055C25.8463 31.1337 25.644 31.1332 26.069 31.163C26.0283 31.0549 25.3968 31.0492 25.2756 30.8684C25.5742 30.8463 25.8745 30.8716 26.1652 30.9432L26.1347 31.1235C26.7348 31.1155 26.175 30.8858 26.2736 30.8013L26.5277 30.8443C26.4916 30.5599 25.8426 30.4585 25.9349 30.1621L25.7464 30.1302C25.1319 29.8744 26.1224 30.0505 25.6734 29.8142L26.3307 29.8665C26.0806 29.6692 25.8586 29.4387 25.6709 29.1814C26.0157 29.34 26.3327 29.5531 26.6097 29.8126C26.6259 29.7087 26.6038 29.6025 26.5474 29.5138C26.491 29.4251 26.4043 29.36 26.3034 29.3306C26.3606 29.3909 26.508 29.4665 26.4027 29.4908C25.9153 29.2818 25.6889 29.0748 25.7332 28.8631C26.9875 29.0754 26.1391 28.3584 27.1356 28.35C26.7308 27.902 27.4422 27.6346 27.4338 27.1862C26.4374 27.1946 27.456 27.0551 26.4148 26.9293C26.3673 26.8117 26.3892 26.7817 26.4412 26.7736L27.0855 26.5538C27.3849 26.5286 27.2902 26.6897 27.5143 26.7108C27.6256 26.5019 27.9491 26.6832 28.2378 26.5718C27.8783 26.5531 27.7406 26.4202 27.894 26.3112L27.403 26.4221C26.9215 26.0285 28.2713 26.2739 27.798 25.8818L28.0943 26.0247C27.9321 25.837 28.1942 25.4345 27.3994 25.1481C27.5142 25.1676 27.7958 25.1478 27.8585 25.2259C28.0221 24.8572 27.1202 24.2576 27.6511 24.0102L27.8889 24.0504C27.8276 23.9642 27.4574 23.8593 27.7118 23.8012C27.8102 23.8179 27.9496 23.8415 27.9578 23.8429C27.9659 23.8442 27.5702 23.5917 27.718 23.5156L27.9761 23.6351C28.3268 23.3066 27.3996 22.9557 27.3048 22.6192C27.4938 22.6735 27.6941 22.6753 27.884 22.6242C28.074 22.5732 28.2464 22.4713 28.3826 22.3295L28.4646 22.3434C28.5956 21.9186 27.9815 21.5111 27.7708 21.0622C28.5202 20.9192 28.1638 20.2855 28.6076 19.9052C28.4067 19.9121 28.2092 19.852 28.0463 19.7343C28.1859 19.6568 27.622 19.4011 28.2123 19.501C28.8 19.5162 28.6611 19.2903 28.6943 19.1441L27.9319 19.015C29.0684 18.7774 27.6478 17.9044 28.6307 17.8263C28.4575 17.7042 28.4687 17.5881 28.305 17.4592L28.6903 17.5244C28.8243 17.3063 28.8686 17.0448 28.8138 16.7948L29.0732 16.9062C29.1052 16.7176 28.0108 16.5071 28.0072 16.3294L28.5675 16.3568C28.6217 16.0371 29.0885 15.7704 28.6248 15.3714C28.7067 15.3853 28.8543 15.4103 28.876 15.4814C28.9024 15.3257 29.2642 14.9316 28.5549 14.8874C29.0058 14.9637 28.6118 14.5513 28.4443 14.3458L28.7722 14.4013C28.3613 14.1884 28.2465 14.169 28.1582 13.9432C28.2076 13.901 28.4207 13.9371 28.3304 13.9724C28.5235 13.828 28.0397 13.7966 28.2384 13.6195L28.4308 13.7279C28.46 13.5558 28.3588 13.5555 28.1363 13.4251C27.9139 13.2947 28.2547 13.1247 28.5307 13.1377C28.3586 13.1086 28.1471 12.9631 28.2375 12.8773C28.305 12.8648 28.3747 12.8766 28.4343 12.9106C28.6618 12.6624 28.1348 12.4382 28.4386 12.2873C28.4934 12.3086 28.552 12.3185 28.6108 12.3164C28.5733 12.5378 28.5428 12.7181 28.5455 12.7017C28.8161 12.7475 28.8808 12.5645 29.2507 12.7705C29.0447 12.5923 28.6259 12.2768 28.763 12.1145L28.8532 12.1298C28.8601 12.0888 28.8657 12.056 28.822 12.0149C28.7784 11.9738 28.9043 11.9276 28.9044 11.8771C29.1176 11.9132 29.0293 11.6874 29.0446 11.5972C28.774 11.5514 28.8249 11.4504 28.5937 11.5209C28.5937 11.5209 28.5937 11.5209 28.6304 11.603C28.6207 11.6604 28.6082 11.7342 28.5929 11.8243C28.4565 11.7338 28.346 11.6392 28.5116 11.5576L28.0802 11.3665C28.4794 11.2992 28.6918 11.0906 28.9187 11.0953C28.7842 10.7942 28.8562 10.4185 28.4181 10.1672C28.365 10.0824 28.5564 10.0979 28.6261 10.0844C28.6958 10.0709 28.66 10.1829 28.7214 10.2186C28.6153 10.0488 28.709 9.74427 28.4112 9.66012C28.5675 9.4842 28.6801 9.81527 28.6507 9.54046L28.7409 9.55573C28.9917 9.31991 28.8228 9.07207 28.6799 8.8202C28.5371 8.56833 28.4434 8.32478 28.7147 8.06715C28.7147 8.06715 28.664 8.11759 28.6298 8.12024C28.8666 7.46886 28.6007 6.69863 28.8934 6.06516C28.9254 5.87661 28.8544 5.84773 28.8 5.72047L28.9135 5.69753L28.8061 5.48539C28.7631 5.1914 29.0615 5.02268 28.9449 4.66563L28.891 4.88419C28.9118 4.76122 28.9085 4.48237 28.9549 4.5071C28.9483 4.49222 28.9463 4.47575 28.949 4.45972C28.9517 4.4437 28.9591 4.42882 28.9701 4.41692C28.9937 4.27757 29.0048 4.21198 29.0229 4.10542C29.0631 3.86769 29.0967 4.11791 29.0756 3.79391C29.0978 3.66275 29.0657 3.40433 29.0656 3.4549C29.065 3.5023 29.057 3.54931 29.042 3.59426L29.067 3.4467C29.067 3.4467 29.0864 3.33194 29.0364 3.62705C29.0204 3.69453 29.0088 3.76299 29.0017 3.83199L28.9906 3.89757L29.0198 3.72542C28.9925 3.79881 28.9793 3.87668 28.9809 3.95495C28.9723 3.98144 28.9676 4.00907 28.967 4.03693C28.9514 4.1045 28.9398 4.17293 28.9323 4.24187C28.9323 4.24187 28.9476 4.1517 28.8598 4.27175C28.772 4.39181 28.9406 4.19268 28.9143 4.34844C28.8879 4.50419 28.8362 4.41111 28.8332 4.52865C28.8301 4.6462 28.8332 4.52865 28.8429 4.47127C28.8248 4.57784 28.7561 4.73485 28.7874 4.79917C28.8186 4.8635 28.7291 5.14347 28.5911 5.11168C28.6215 5.20272 28.6311 5.29945 28.6191 5.39469C28.5089 5.19894 28.502 5.73747 28.3204 5.66456C28.4471 5.81251 28.2427 6.12362 28.2954 6.36022C28.2954 6.36022 28.2462 6.3519 28.3051 6.30284C28.2563 6.38973 28.1889 6.46471 28.1077 6.5224C28.288 6.55293 28.2683 6.76885 28.3664 6.88665C28.1337 7.0159 28.1604 6.759 27.9648 6.81864C28.1205 6.84501 28.0433 7.10178 28.1924 7.06799C28.0404 7.16875 28.1088 7.16346 27.9173 7.1985C28.1796 7.24292 27.8993 7.30507 28.0712 7.43537C27.8863 7.58114 27.7923 7.43875 27.826 7.63839C27.5238 7.67999 27.4778 7.50354 27.4778 7.50354ZM26.902 12.3982C26.9157 12.3443 26.925 12.2895 26.9297 12.2342C27.0281 12.2509 27.1347 12.2689 27.1265 12.2675C27.1183 12.2661 26.9827 12.3697 26.8938 12.3968L26.902 12.3982ZM28.9918 11.9087C29.0313 11.9745 28.9779 11.9907 28.9192 11.9892L28.884 11.8483L28.9918 11.9087Z" fill="#2079FF"/>
        <path d="M25.1092 17.4583L25.2082 17.4751L25.1313 17.4281L25.1092 17.4583Z" fill="#2079FF"/>
        <path d="M21.9548 47.8462L21.897 47.8364C21.897 47.8364 21.9272 47.8585 21.9548 47.8462Z" fill="#2079FF"/>
        <path d="M21.8264 48.752L21.7559 48.8675C21.7842 48.8321 21.8079 48.7933 21.8264 48.752Z" fill="#2079FF"/>
        <path d="M22.2319 38.2885C22.166 38.2264 22.14 38.1795 22.2319 38.2885Z" fill="#2079FF"/>
        <path d="M22.741 41.7054L22.5937 41.5793C22.5594 41.6325 22.5443 41.6721 22.741 41.7054Z" fill="#2079FF"/>
        <path d="M22.6198 41.4234C22.5363 41.4683 22.5526 41.5217 22.5934 41.5792C22.6343 41.6367 22.6935 41.4865 22.6198 41.4234Z" fill="#2079FF"/>
        <path d="M21.5337 52.4717L21.5364 52.5061L21.535 52.5144L21.5337 52.4717Z" fill="#2079FF"/>
        <path d="M21.5361 52.5059L21.5291 52.5471C21.5365 52.5347 21.539 52.52 21.5361 52.5059Z" fill="#2079FF"/>
        <path d="M21.5494 52.6268L21.562 52.5525C21.562 52.5525 21.5357 52.6075 21.5494 52.6268Z" fill="#2079FF"/>
        <path d="M21.5873 51.258C21.5558 51.3418 21.5408 51.4308 21.5429 51.5203C21.5157 51.482 21.6418 51.3347 21.5873 51.258Z" fill="#2079FF"/>
        <path d="M22.2353 50.1705L22.1541 50.4013C22.2033 50.4096 22.2855 50.3224 22.277 50.4221C22.4896 50.163 22.1512 50.4683 22.2353 50.1705Z" fill="#2079FF"/>
        <path d="M22.4722 49.4686C22.4512 49.5924 22.563 49.484 22.596 49.4896C22.629 49.4951 22.5536 49.389 22.4722 49.4686Z" fill="#2079FF"/>
        <path d="M23.5912 44.303L23.8945 44.3543C23.8442 44.253 23.7537 44.3389 23.5912 44.303Z" fill="#2079FF"/>
        <path d="M22.2796 43.0858L22.0908 43.155L22.3461 43.2404L22.2796 43.0858Z" fill="#2079FF"/>
        <path d="M24.4916 42.8197L24.5257 42.8676L24.4551 42.687L24.4916 42.8197Z" fill="#2079FF"/>
        <path d="M26.1199 34.1483L25.6362 34.0664C25.7003 34.1363 26.2577 34.2307 26.1199 34.1483Z" fill="#2079FF"/>
        <path d="M26.2312 30.2543C26.4936 30.2482 26.6756 30.1694 26.4326 30.0608C26.3846 30.1454 26.1739 30.1941 26.2312 30.2543Z" fill="#2079FF"/>
        <path d="M28.525 18.9977L28.6683 19.0979L28.5607 18.9363L28.525 18.9977Z" fill="#2079FF"/>
        <path d="M23.6254 63.974C23.6598 63.9713 23.6516 63.9699 23.6254 63.974Z" fill="#2079FF"/>
        <path d="M23.6124 63.1536C23.2037 63.1772 23.0821 63.1481 22.6228 63.1716C22.8005 63.1679 23.3444 63.1926 23.6124 63.1536Z" fill="#2079FF"/>
        <path d="M22.9627 63.7014C23.0398 63.6975 23.0054 63.7002 22.9627 63.7014Z" fill="#2079FF"/>
        <path d="M20.7938 62.0693L20.9893 62.0602C20.8376 62.0599 20.8144 62.0475 20.7938 62.0693Z" fill="#2079FF"/>
        <path d="M19.4842 63.7787L19.5338 63.7871C19.4962 63.7751 19.4796 63.7723 19.4842 63.7787Z" fill="#2079FF"/>
        <path d="M19.4513 63.7223L19.7575 63.7067L19.6427 63.6873L19.4513 63.7223Z" fill="#2079FF"/>
        <path d="M20.7585 61.9789C20.7175 61.9719 20.947 62.0108 21.0701 61.9811C20.9684 61.9921 20.8662 61.9973 20.7639 61.9967L20.977 62.0328L20.8705 62.0147C21.0426 62.0439 20.8143 62.0474 21.059 62.0466L20.9934 62.0355L21.3666 62.0228L21.2518 62.0034L21.3256 62.0159C21.2359 62.0216 21.1459 62.0205 21.0564 62.0125C21.1137 62.0222 21.3187 62.0569 21.2449 62.0444C21.1384 62.0371 21.0317 62.0359 20.9251 62.0408L21.0398 62.0603L20.6339 62.0674C20.724 62.0827 20.5191 62.048 20.6339 62.0674L21.0139 62.0643C21.2762 62.1087 20.2579 62.0965 20.6173 62.1152C20.8059 62.1471 21.1928 62.103 20.9782 62.1257L20.6323 62.1262C20.575 62.1165 21.1299 62.1261 20.8619 62.165C20.8149 62.1609 20.7683 62.153 20.7225 62.1414C20.4245 62.1584 20.9029 62.172 20.8947 62.1706L20.5721 62.1834C20.5721 62.1834 20.8098 62.2237 20.8508 62.2306L20.5282 62.2435C20.6675 62.2671 20.4091 62.2992 20.1343 62.3286L20.4541 62.3321L20.2492 62.2974C20.1098 62.2738 20.4541 62.3321 20.5868 62.2955L20.2902 62.3044C20.5443 62.3474 20.8737 62.3441 20.4869 62.3377L20.3803 62.3196C20.2246 62.2932 21.1062 62.316 20.7492 62.3821L20.6918 62.3724C20.5004 62.4074 20.8394 62.3973 20.2282 62.4709C20.7873 62.456 19.9438 62.5071 20.7312 62.4887C20.3224 62.5122 20.1871 62.5146 19.8781 62.5466L20.4604 62.544L19.9586 62.6192L20.4055 62.619L19.8792 62.6395L19.9858 62.6576L20.3098 62.6365C20.4984 62.6685 19.983 62.674 19.7548 62.6775L20.1073 62.7372L19.7532 62.7363C20.2002 62.736 19.2789 62.7487 19.6959 62.7265L20.0513 62.7193C19.771 62.7308 19.7601 62.7458 19.868 62.7557L19.555 62.7617C19.4566 62.7451 19.6698 62.7812 19.645 62.8276C19.7926 62.8525 20.3572 62.8048 20.4064 62.8131L19.9157 62.8228L20.4734 62.816L19.7462 62.8278L19.9101 62.8556L19.496 62.8613C19.7994 62.8621 18.9765 62.8914 19.496 62.8613L19.3484 62.8364C19.3484 62.8364 19.496 62.8613 19.5123 62.8641L20.2054 62.855C20.0456 62.8611 19.8867 62.8822 19.7309 62.918L20.3816 62.9101C19.9674 62.9159 19.9974 62.9378 19.7117 62.9316C19.8383 62.9755 19.9713 62.998 20.1052 62.9982L20.4866 62.9869L20.112 63.0078L20.071 63.0009C20.6929 63.0134 18.8406 63.0961 19.7004 63.0983L19.7086 63.0997L20.161 63.1173C20.0954 63.1062 19.8493 63.1151 19.5855 63.1295C20.2839 63.1381 19.4774 63.1702 19.9462 63.1906C18.6899 63.2393 20.0363 63.2058 19.2215 63.2871L19.5181 63.2783C19.8134 63.2777 19.3542 63.2505 19.2789 63.2968L19.7108 63.2856C20.0633 63.3453 19.28 63.3898 19.0256 63.4479C18.9518 63.4354 20.547 63.4272 19.8662 63.4637L19.3167 63.4719C19.9796 63.4914 19.3042 63.5457 19.8823 63.5676L19.5953 63.5696C19.2043 63.5878 19.5953 63.5696 19.8986 63.621L19.4488 63.6376C19.2274 63.6507 19.9532 63.6471 19.5718 63.6584L19.4161 63.6321C19.5524 63.6503 19.6903 63.6539 19.8275 63.6427C19.6224 63.6586 20.0324 63.6774 19.7865 63.6357C20.2758 63.6343 19.554 63.6638 20.2552 63.6561C19.5362 63.6693 19.6934 63.6874 20.0296 63.6938L19.5129 63.7075C19.6836 63.7266 19.8559 63.7275 20.0268 63.7102C19.1779 63.7435 20.7225 63.7352 19.6549 63.7653C20.0485 63.7813 20.3136 63.8093 20.4872 63.8303C19.8105 63.8422 20.397 63.815 19.6466 63.8144C19.8924 63.8071 20.1383 63.8205 20.3818 63.8546C20.2999 63.8407 20.0948 63.8566 19.9759 63.8618C20.2628 63.9103 19.9675 63.9109 20.3284 63.9214L20.1562 63.8923C20.1562 63.8923 20.0742 63.8784 20.353 63.9256L20.271 63.9117C20.6947 63.8992 21.1649 63.9113 21.3932 63.9078C20.5484 63.9165 21.1867 63.9319 20.1383 63.9483L20.5265 63.9466L20.1369 63.9565C20.3009 63.9843 20.6099 63.9522 20.6071 63.9686L20.2531 63.9677C20.4013 63.9587 20.5501 63.9642 20.6973 63.9839L20.5087 63.952C20.5743 63.9631 21.2304 63.973 20.9842 64.0325C20.4183 64.0379 20.8051 64.0443 20.3226 64.0554L20.4701 64.0804L20.6998 64.0687C20.6998 64.0687 21.0592 64.0874 20.9047 64.1034L20.708 64.07L20.8145 64.0881L20.9854 64.0749C21.1429 64.0653 21.3008 64.0639 21.4584 64.0706C21.3648 64.0865 21.2702 64.0959 21.1754 64.0986C21.3229 64.1236 21.4788 64.0994 21.3639 64.1305L20.7624 64.1467C21.1506 64.145 20.8854 64.1676 21.29 64.1686L20.91 64.1717L21.2134 64.1725L20.8908 64.1853C20.8498 64.1784 21.4513 64.1622 21.2189 64.1903L21.1041 64.1709C20.9906 64.1938 21.3008 64.2042 21.1779 64.1833C20.7541 64.1959 21.0631 64.1639 20.7049 64.1876C20.8115 64.2056 21.2475 64.2204 21.164 64.2653L21.205 64.2723C21.7545 64.2641 20.9398 64.2948 21.205 64.2723L20.9603 64.273C20.8947 64.2619 21.1243 64.3008 21.2964 64.3299L21.1653 64.3077C21.0669 64.291 21.1653 64.3077 21.075 64.343C21.1705 64.3506 21.2666 64.3499 21.362 64.341C20.7126 64.3913 21.7309 64.4035 21.2292 64.4281L21.139 64.4129L21.3358 64.4462L21.5668 64.4263C21.6281 64.4272 21.689 64.4375 21.7472 64.4568C21.628 64.4503 21.5085 64.4555 21.3904 64.4723L21.5461 64.4987C21.2563 64.5171 21.8755 64.4954 21.6855 64.5223L21.6035 64.5084L21.7347 64.5306C21.5625 64.5014 21.6527 64.5167 21.5051 64.4917C21.5051 64.4917 21.833 64.5473 21.6773 64.5209L21.5789 64.5042C21.382 64.5215 21.4396 64.4806 21.4148 64.527L21.3574 64.5173L21.3247 64.5118C21.7374 64.5142 21.423 64.5284 21.669 64.5701C21.5727 64.5647 21.4762 64.5681 21.3805 64.5803C21.339 64.5772 21.2978 64.5702 21.2576 64.5594C21.3887 64.5816 21.192 64.5483 21.3723 64.5789C21.3313 64.5719 21.3723 64.5789 21.2658 64.5608C21.3079 64.5757 21.3522 64.5832 21.3969 64.583C21.5527 64.6094 21.2806 64.6224 21.4953 64.5997C21.5773 64.6136 21.6838 64.6316 21.733 64.6399C21.6996 64.6395 21.6664 64.6339 21.6346 64.6233L21.5691 64.6122C21.5691 64.6122 21.6592 64.6274 21.6346 64.6233L21.5445 64.608L21.651 64.6261C21.733 64.6399 21.651 64.6261 21.6101 64.6191L21.7002 64.6344L21.6182 64.6205C21.6519 64.6186 21.6855 64.6243 21.7166 64.6372C21.7166 64.6372 21.8068 64.6524 21.7822 64.6483C21.7576 64.6441 21.7002 64.6344 21.7822 64.6483C21.7069 64.6291 21.6301 64.6161 21.5527 64.6094L21.8425 64.591L21.7277 64.5716L21.7933 64.5827L21.6621 64.5605C21.7769 64.5799 21.5966 64.5494 21.829 64.5213L21.6732 64.4949C21.9275 64.4873 21.6323 64.488 21.754 64.4664C21.8131 64.4819 21.8734 64.4921 21.9343 64.4969C21.9999 64.508 21.713 64.4595 21.9343 64.4969C21.7306 64.5046 21.8605 64.4844 21.795 64.4733C21.8687 64.4858 21.944 64.4396 22.0466 64.4316C21.7937 64.431 21.858 64.3997 21.8088 64.3914C21.9041 64.3874 21.9995 64.3895 22.0945 64.3976C22.0413 64.399 21.9884 64.3901 21.9387 64.3712L22.1437 64.4059C22.1437 64.4059 21.9223 64.3684 22.0781 64.3948C21.865 64.3587 21.4916 64.422 21.3427 64.4052L21.7063 64.3993C21.7063 64.3993 21.6161 64.384 21.6571 64.391L21.8457 64.4229C21.9358 64.4382 21.6899 64.3965 21.7063 64.3993L21.9606 64.3918L22.234 64.3706L21.9962 64.3303C22.0951 64.3129 22.1953 64.3045 22.2957 64.3051L22.0579 64.2649C22.1246 64.2681 22.1907 64.2792 22.2547 64.2982C22.1589 64.2579 22.0551 64.2403 21.9514 64.2468C21.689 64.2024 22.136 64.2022 22.0294 64.1842L22.1196 64.1994C22.0341 64.1749 21.9461 64.16 21.8573 64.155C21.9618 64.1447 22.0667 64.14 22.1717 64.1408C21.9832 64.1089 22.1061 64.1297 22.1717 64.1408C22.3602 64.1727 22.3356 64.1686 22.2947 64.1616C22.5845 64.1432 22.393 64.1783 22.2947 64.1616C22.5735 64.1582 22.6596 64.1475 22.5845 64.1432L22.3712 64.1577L22.7512 64.1546C23.2461 64.1203 21.9722 64.1239 22.7637 64.0808L22.2374 64.1013L22.8854 64.0593C23.1329 64.0421 22.3031 64.0619 22.4672 64.039C22.3196 64.0141 21.9245 64.0568 21.7824 64.0496C21.8398 64.0593 22.4194 64.0225 22.5369 64.0256L22.4468 64.0103L22.7256 64.0069L22.5863 63.9833C22.7338 64.0083 22.7421 63.9591 22.9868 63.9584C22.8764 63.9521 22.7657 63.9559 22.656 63.9698C22.8871 63.9499 22.656 63.9698 22.8406 63.9252L22.5782 63.9314C22.7847 63.9073 22.283 63.932 22.2339 63.8731C22.48 63.8641 22.7998 63.8677 22.6167 63.8535C22.7806 63.8813 23.0404 63.841 23.1662 63.8454C22.8793 63.7968 23.3904 63.8159 23.4602 63.8024L23.5831 63.8232C23.5093 63.8107 23.5175 63.8121 23.5257 63.8135L23.3447 64.0358L23.5333 64.0678L22.6885 64.0765C22.8525 64.1043 22.5164 64.0474 22.962 64.0554C22.7979 64.0782 23.4021 64.0456 23.4595 64.0553C23.5169 64.065 23.4185 64.0483 23.4595 64.0553L23.5743 64.0747C23.983 64.0512 23.0767 64.0748 23.1041 64.0626L23.5292 64.0418L22.9196 64.0566C23.1247 64.0407 22.7802 64.033 22.8048 64.0372L22.7146 64.0219C22.6176 64.0158 22.5214 63.9995 22.4277 63.9733L22.6409 64.0094C22.1925 64.0178 23.118 63.9806 22.8145 63.9798L23.4256 63.9568C23.0975 63.9518 23.8002 63.9359 23.5323 63.9242L22.9226 63.9391L23.1522 63.9779L22.6464 63.9766C22.6464 63.9766 22.8596 64.0127 22.794 64.0016C22.5235 63.9558 22.6054 63.9697 22.3128 64.0045C22.8391 63.984 22.0177 63.9545 22.362 64.0128L23.2081 63.9959C23.6183 63.9641 22.7735 63.9729 23.0032 63.9612L22.8475 63.9348C22.4934 63.9339 22.8065 63.9278 22.6671 63.9042L23.2686 63.888C23.0752 63.8763 22.8813 63.8744 22.6877 63.8824L23.095 63.8671C23.2673 63.8456 22.2517 63.8676 22.3406 63.8405L23.1252 63.8384C23.1252 63.8384 23.1908 63.8496 22.9776 63.8135C23.1731 63.8044 22.5662 63.8028 22.8629 63.794L22.4323 63.797L22.5798 63.822L22.0221 63.8288C23.0064 63.793 21.9566 63.8177 22.811 63.7515L22.5815 63.7127L22.7045 63.7335C23.0039 63.7083 21.7914 63.7475 22.1249 63.7197C22.643 63.6978 22.4024 63.7245 22.5979 63.7154C23.6573 63.684 22.4585 63.6918 23.0778 63.6702L23.1352 63.6799C23.5001 63.6658 22.7415 63.6639 22.8236 63.6272L22.9794 63.6535C22.4395 63.6549 22.2564 63.6407 22.1388 63.6377L22.7813 63.6284C22.7239 63.6187 22.1046 63.6404 21.9789 63.6359L22.8702 63.6013C23.4553 63.5823 22.8702 63.6013 22.944 63.6138L23.2064 63.6077C23.1244 63.5938 22.4724 63.6099 22.5176 63.5922L22.329 63.5603C21.6866 63.5696 22.694 63.5462 22.2143 63.5409L22.8677 63.5166L22.1118 63.4982L23.2071 63.3548C23.2071 63.3548 23.1579 63.3465 22.8382 63.2923C22.9038 63.3034 23.0595 63.3298 22.9611 63.3132C22.7092 63.33 22.4562 63.3239 22.2053 63.2948C23.4738 63.2735 22.5239 63.256 23.5081 63.2202C23.038 63.2081 23.7106 63.1702 23.6314 63.1399C22.6389 63.1743 23.6314 63.1399 22.5829 63.1564L23.2376 63.1744C23.5274 63.1561 23.4507 63.2105 23.686 63.166C23.7597 63.1785 24.1179 63.1548 24.3831 63.1323C24.0182 63.1464 23.8664 63.146 23.9963 63.1258L23.537 63.1493C22.9985 63.1424 24.3859 63.1159 23.8392 63.1077L24.1604 63.103C23.8829 63.0651 23.6023 63.0543 23.3226 63.0708L23.7874 63.0651C23.8941 63.0326 22.9496 63.0329 23.4021 62.9999L23.6316 63.0388C23.566 63.0277 23.1751 63.0458 23.4185 63.0027L23.6644 63.0443C23.5824 63.0304 23.2434 63.0405 23.3857 62.9971L23.6563 62.9924C23.9557 62.9672 22.9853 62.9715 22.8185 62.9601C23.5129 62.9428 23.729 62.9119 23.8397 62.9054L23.9299 62.9206C23.6392 62.8854 23.3467 62.8668 23.0539 62.8651C23.777 62.8273 23.3342 62.8029 23.7034 62.7642L23.1279 62.7764C23.2509 62.7972 22.6659 62.7656 23.2509 62.7972C23.8346 62.7864 23.6596 62.7737 23.6692 62.7669L22.8996 62.7799C23.9878 62.728 22.457 62.705 23.422 62.6828L23.027 62.675L23.4248 62.6665C23.4986 62.6789 23.5397 62.6353 23.4331 62.6173L23.7037 62.6631L23.1474 62.6616C22.8685 62.665 22.5815 62.667 22.5664 62.656L23.1255 62.6411C23.1255 62.6411 23.5384 62.5929 23.019 62.623L23.28 62.6251C23.28 62.6251 23.5836 62.5753 22.8796 62.5994C23.3375 62.5842 22.8796 62.5994 22.6911 62.5675L23.0219 62.5561C22.5913 62.5591 22.4806 62.5656 22.3562 62.553L22.5284 62.5821C22.6841 62.6085 22.2167 62.58 22.3808 62.5572L22.5858 62.5919C22.5858 62.5919 22.4874 62.5752 22.2509 62.5773C22.0144 62.5794 22.3083 62.587 22.5927 62.5509L22.2647 62.5459L22.4614 62.5792C22.6433 62.551 22.0856 62.5578 22.363 62.5626L22.527 62.5903C22.8058 62.5869 22.8332 62.5747 23.2296 62.5744C23.0366 62.5807 22.8434 62.5734 22.6515 62.5524L22.7334 62.5663L22.799 62.5774C23.004 62.6121 22.881 62.5912 22.881 62.5912L22.4231 62.6065L22.4886 62.6176C22.3411 62.5926 22.2263 62.5732 22.3657 62.5967L21.9187 62.597L22.6938 62.5511C22.4864 62.5229 22.2772 62.51 22.0679 62.5126L22.2565 62.5445L22.363 62.5626C22.2388 62.5335 22.1128 62.5121 21.9859 62.4987C22.1007 62.5182 22.2647 62.5459 22.1992 62.4842L22.2976 62.5009C22.5026 62.485 22.2976 62.5009 22.109 62.469C21.9205 62.437 21.8139 62.419 22.0189 62.4537L21.9451 62.4412C22.0791 62.3964 21.7074 62.401 21.8989 62.3153C21.8989 62.3153 21.8334 62.3042 21.7596 62.2917L21.8661 62.3098L21.7022 62.282C21.6202 62.2681 21.8854 62.2456 21.7119 62.2246L21.6545 62.2149L21.6053 62.2066L21.548 62.1969C21.548 62.1969 21.548 62.1969 21.4003 62.2225L21.474 62.235C21.3347 62.2114 21.4249 62.2266 21.243 62.2549C21.3824 62.2785 21.243 62.2549 21.325 62.2687L21.1705 62.2848L21.4656 62.3347C21.2605 62.3506 21.2607 62.3 21.076 62.3447C21.2154 62.3682 21.1826 62.3627 21.3219 62.3863L21.0759 62.3952C21.3218 62.4369 21.0759 62.3952 21.248 62.4244C20.9827 61.9494 20.9171 61.9383 20.9171 61.9383L20.7585 61.9789ZM20.904 62.2649C20.9708 62.2668 21.037 62.278 21.1007 62.2982L20.904 62.2649ZM22.8862 62.1621C22.9272 62.169 22.8862 62.1621 22.8206 62.151L22.7468 62.1385L22.8862 62.1621Z" fill="#2079FF"/>
        <path d="M19.8767 62.6561L19.9799 62.6481L19.8946 62.6507L19.8767 62.6561Z" fill="#2079FF"/>
        <path d="M20.1631 64.0033C20.0957 64.0003 20.0626 63.9947 20.1631 64.0033Z" fill="#2079FF"/>
        <path d="M21.4866 64.8005C21.5458 64.802 21.4412 64.8183 21.4866 64.8005Z" fill="#2079FF"/>
        <path d="M21.9391 64.717L21.8981 64.7101C21.9473 64.7184 22.0047 64.7281 22.0129 64.7295C22.1811 64.6821 21.9021 64.7361 21.9391 64.717Z" fill="#2079FF"/>
        <path d="M22.0666 64.6629L22.1822 64.6825C22.146 64.6659 22.1062 64.6591 22.0666 64.6629Z" fill="#2079FF"/>
        <path d="M20.933 64.2854L20.7539 64.2972L21.0245 64.2925L20.933 64.2854Z" fill="#2079FF"/>
        <path d="M23.0729 64.2007L23.1142 64.2077L23.0137 64.1992L23.0729 64.2007Z" fill="#2079FF"/>
        <path d="M22.9065 63.3883C23.1689 63.3821 23.3316 63.3675 23.0704 63.4161L22.9065 63.3883Z" fill="#2079FF"/>
        <path d="M23.4812 62.634L23.6411 62.6357L23.4976 62.6367L23.4812 62.634Z" fill="#2079FF"/>
    </g>
    <defs>
        <clipPath id="clip0_323_1699">
            <rect width="23.546" height="62.2156" fill="white" transform="translate(11.0981 0.404297) rotate(9.61013)"/>
        </clipPath>
    </defs>
</svg>
