<svg width="30" height="30" viewBox="0 0 30 30" fill="none" xmlns="http://www.w3.org/2000/svg">
    <path d="M24.2714 12.178C23.9814 11.718 23.6714 11.288 23.3514 10.888C23.2641 10.7773 23.1544 10.6864 23.0295 10.6211C22.9046 10.5558 22.7673 10.5176 22.6266 10.5091C22.4859 10.5006 22.345 10.522 22.2131 10.5718C22.0813 10.6215 21.9614 10.6986 21.8614 10.798L18.8614 13.798C19.0814 14.458 19.1214 15.218 18.9214 16.008C18.7427 16.7071 18.3792 17.3453 17.8689 17.8555C17.3587 18.3658 16.7205 18.7293 16.0214 18.908C15.2314 19.108 14.4714 19.068 13.8114 18.848L11.3514 21.308C10.8514 21.808 11.0114 22.688 11.6814 22.948C12.7514 23.358 13.8614 23.568 15.0014 23.568C16.7814 23.568 18.5114 23.048 20.0914 22.078C21.7014 21.078 23.1514 19.608 24.3214 17.738C25.2714 16.228 25.2214 13.688 24.2714 12.178ZM17.0204 12.98L12.9804 17.02C12.4704 16.5 12.1404 15.78 12.1404 15C12.1404 13.43 13.4204 12.14 15.0004 12.14C15.7804 12.14 16.5004 12.47 17.0204 12.98Z" fill="#6A7185"/>
    <path d="M21.25 8.74993L17.86 12.1399C17.486 11.7626 17.0403 11.4638 16.5492 11.2611C16.058 11.0585 15.5313 10.9561 15 10.9599C12.76 10.9599 10.96 12.7699 10.96 14.9999C10.96 16.1199 11.41 17.1299 12.14 17.8599L8.76 21.2499H8.75C7.64 20.3499 6.62 19.1999 5.75 17.8399C4.75 16.2699 4.75 13.7199 5.75 12.1499C6.91 10.3299 8.33 8.89993 9.91 7.91993C11.49 6.95993 13.22 6.42993 15 6.42993C17.23 6.42993 19.39 7.24993 21.25 8.74993ZM17.858 14.9979C17.858 16.5679 16.578 17.8579 14.998 17.8579C14.938 17.8579 14.888 17.8579 14.828 17.8379L17.838 14.8279C17.858 14.8879 17.858 14.9379 17.858 14.9979Z" fill="#6A7185"/>
    <path d="M24.7689 5.22891C24.4689 4.92891 23.9789 4.92891 23.6789 5.22891L5.22891 23.6889C4.92891 23.9889 4.92891 24.4789 5.22891 24.7789C5.3001 24.8499 5.38468 24.9059 5.47775 24.9439C5.57081 24.9818 5.6705 25.0009 5.771 25C5.8715 24.999 5.97081 24.9781 6.06316 24.9385C6.15551 24.8988 6.23904 24.8412 6.30891 24.7689L24.7689 6.30891C25.0789 6.00891 25.0789 5.52891 24.7689 5.22891Z" fill="#6A7185"/>
</svg>
