<svg width="30" height="30" viewBox="0 0 30 30" fill="none" xmlns="http://www.w3.org/2000/svg">
    <path d="M24.25 12.1501C21.94 8.52005 18.56 6.43005 15 6.43005C13.22 6.43005 11.49 6.95005 9.91 7.92005C8.33 8.90005 6.91 10.3301 5.75 12.1501C4.75 13.7201 4.75 16.2701 5.75 17.8401C8.06 21.4801 11.44 23.5601 15 23.5601C16.78 23.5601 18.51 23.0401 20.09 22.0701C21.67 21.0901 23.09 19.6601 24.25 17.8401C25.25 16.2801 25.25 13.7201 24.25 12.1501ZM15 19.0401C12.76 19.0401 10.96 17.2301 10.96 15.0001C10.96 12.7701 12.76 10.9601 15 10.9601C17.24 10.9601 19.04 12.7701 19.04 15.0001C19.04 17.2301 17.24 19.0401 15 19.0401Z" fill="#6A7185"/>
    <path d="M14.9981 12.14C14.2409 12.14 13.5147 12.4408 12.9793 12.9762C12.4439 13.5116 12.1431 14.2378 12.1431 14.995C12.1431 15.7522 12.4439 16.4784 12.9793 17.0138C13.5147 17.5492 14.2409 17.85 14.9981 17.85C16.5681 17.85 17.8581 16.57 17.8581 15C17.8581 13.43 16.5681 12.14 14.9981 12.14Z" fill="#6A7185"/>
</svg>
