<svg width="21" height="20" viewBox="0 0 21 20" fill="none" xmlns="http://www.w3.org/2000/svg">
<path d="M15.5761 11.4569L15.5761 11.4569L15.5733 11.4596C15.1937 11.8246 15.0187 12.3606 15.1082 12.8756L15.1082 12.8756L15.1088 12.8789L15.9972 17.7957C16.0359 18.0296 15.9411 18.2513 15.7568 18.3778L15.7502 18.3824L15.7436 18.3872C15.5623 18.5205 15.3182 18.541 15.1027 18.4275L15.1011 18.4267L10.6721 16.1167L10.6721 16.1166L10.6633 16.1122C10.456 16.0092 10.209 15.929 9.94083 15.929H9.66983H9.64489L9.62008 15.9315C9.42709 15.9508 9.2687 16.0271 9.18901 16.0656L9.18293 16.0685L9.17529 16.0722L9.16779 16.0761L4.74253 18.3946C4.61694 18.4565 4.47827 18.4777 4.34988 18.4581C4.01503 18.3869 3.81111 18.0792 3.8625 17.7644L4.75185 12.848L4.75189 12.848L4.75299 12.8414C4.84053 12.3176 4.66364 11.7971 4.29507 11.4271L4.29512 11.4271L4.28882 11.421L0.681005 7.92405C0.510469 7.75187 0.459753 7.52178 0.532261 7.3166L0.532344 7.31662L0.535294 7.30775C0.605408 7.09687 0.789337 6.93454 1.02691 6.89405L5.98279 6.1751C6.52781 6.11413 7.00222 5.78325 7.24705 5.29361L7.24707 5.29362L7.24923 5.28919L9.43792 0.801861C9.45666 0.764893 9.48511 0.724662 9.52378 0.684254L9.58894 0.633005L9.63617 0.595855L9.66051 0.564829C9.66274 0.563196 9.66545 0.561261 9.66874 0.558969L9.72208 0.539392L9.73121 0.536042L9.74021 0.532339L9.81874 0.5H10.1108C10.3125 0.52852 10.4848 0.652666 10.5749 0.825153L12.791 5.2904C13.0262 5.77354 13.4784 6.08874 13.989 6.17242L13.989 6.1725L13.998 6.17382L18.968 6.89482L18.9691 6.89497C19.2019 6.92823 19.3971 7.08824 19.4759 7.30949C19.544 7.52456 19.4838 7.76 19.3182 7.91486L19.3161 7.91687L15.5761 11.4569Z" stroke="#ACB1BF"/>
</svg>
