<svg width="21" height="20" viewBox="0 0 21 20" fill="none" xmlns="http://www.w3.org/2000/svg">
<path d="M4.72702 14.053C4.83663 13.5612 4.63733 12.8585 4.28857 12.5072L1.86714 10.068C1.10982 9.30512 0.810875 8.49205 1.0301 7.7894C1.25929 7.08675 1.96678 6.60493 3.02305 6.42425L6.13205 5.90228C6.58046 5.82197 7.12852 5.42046 7.33778 5.0089L9.05171 1.54583C9.54995 0.552084 10.2276 0 10.9649 0C11.7023 0 12.3799 0.552084 12.8782 1.54583L14.5921 5.0089C14.7217 5.26989 14.9907 5.52084 15.2797 5.69148L4.54765 16.5023C4.40815 16.6428 4.16899 16.5123 4.20885 16.3116L4.72702 14.053ZM17.6413 12.5092C17.2826 12.8706 17.0833 13.5632 17.2029 14.055L17.8904 17.0764C18.1794 18.3312 18 19.2747 17.3822 19.7265C17.1198 19.9112 16.8055 20.0062 16.4854 19.9975C15.9772 19.9975 15.3793 19.8068 14.7217 19.4153L11.802 17.6687C11.3436 17.3977 10.5863 17.3977 10.1279 17.6687L7.20824 19.4153C6.10215 20.0677 5.1555 20.1782 4.54765 19.7265C4.31846 19.5558 4.14906 19.3249 4.03945 19.0238L16.1566 6.81773C16.6149 6.35599 17.2627 6.14519 17.8904 6.25561L18.8969 6.42625C19.9531 6.60694 20.6606 7.08875 20.8898 7.79141C21.109 8.49406 20.8101 9.30713 20.0528 10.07L17.6413 12.5092Z" fill="#6A7185"/>
</svg>
