<svg width="12" height="18" viewBox="0 0 12 18" fill="none" xmlns="http://www.w3.org/2000/svg">
<path d="M10.4915 12.0582L7.12482 8.99986H4.86649L1.49982 12.0582C1.04189 12.4673 0.720458 13.0071 0.578895 13.6046C0.437332 14.2022 0.482447 14.8288 0.708155 15.3999C0.929181 15.9711 1.31839 16.4617 1.82431 16.8069C2.33023 17.1522 2.92902 17.3357 3.54149 17.3332H8.44982C9.71649 17.3332 10.8248 16.5749 11.2832 15.3999C11.7415 14.2165 11.4332 12.9082 10.4915 12.0582ZM7.51649 14.1165H4.48316C4.33287 14.1165 4.18873 14.0568 4.08246 13.9506C3.97619 13.8443 3.91649 13.7002 3.91649 13.5499C3.91649 13.2415 4.17482 12.9832 4.48316 12.9832H7.51649C7.83315 12.9832 8.08316 13.2415 8.08316 13.5499C8.08316 13.8582 7.82482 14.1165 7.51649 14.1165ZM11.2915 2.59986C11.0705 2.02866 10.6813 1.538 10.1753 1.19279C9.66942 0.847574 9.07063 0.664064 8.45815 0.666528H3.54149C2.92848 0.664209 2.32923 0.848189 1.82313 1.1941C1.31702 1.54 0.927961 2.03151 0.707477 2.6035C0.486993 3.1755 0.445495 3.80098 0.588481 4.39709C0.731467 4.9932 1.05219 5.53179 1.50815 5.94153L4.87482 8.99986H7.13315L10.4998 5.94153C10.9545 5.53011 11.2736 4.99039 11.415 4.39372C11.5563 3.79705 11.5133 3.17154 11.2915 2.59986ZM7.51649 5.02486H4.48316C4.33287 5.02486 4.18873 4.96516 4.08246 4.85889C3.97619 4.75262 3.91649 4.60849 3.91649 4.4582C3.91649 4.14986 4.17482 3.89153 4.48316 3.89153H7.51649C7.83315 3.89153 8.08316 4.14986 8.08316 4.4582C8.08316 4.76653 7.82482 5.02486 7.51649 5.02486Z" fill="#5BB7F0"/>
</svg>
