<svg width="16" height="17" viewBox="0 0 16 17" fill="none" xmlns="http://www.w3.org/2000/svg">
<path d="M14.2504 5.24894L13.0088 6.4906L10.5088 3.9906L11.7504 2.74894C12.1004 2.39894 12.5504 2.23227 13.0004 2.23227C13.4504 2.23227 13.9004 2.39894 14.2504 2.74894C14.9421 3.4406 14.9421 4.55727 14.2504 5.24894ZM12.4254 7.0831L3.41709 16.0831C2.72542 16.7748 1.60875 16.7748 0.917088 16.0831C0.225421 15.3914 0.225421 14.2748 0.917088 13.5831L9.92542 4.5831L12.4254 7.0831ZM6.29209 1.91644L6.63375 0.758103C6.66709 0.64977 6.63375 0.533103 6.55875 0.44977C6.48375 0.366437 6.35042 0.333103 6.24209 0.366437L5.08375 0.708103L3.92542 0.366437C3.81709 0.333103 3.70042 0.366437 3.61709 0.441437C3.53375 0.52477 3.50875 0.641437 3.54209 0.74977L3.87542 1.91644L3.53375 3.07477C3.50042 3.1831 3.53375 3.29977 3.60875 3.3831C3.69209 3.46644 3.80875 3.49144 3.91709 3.4581L5.08375 3.12477L6.24209 3.46644C6.27542 3.47477 6.30042 3.4831 6.33375 3.4831C6.41709 3.4831 6.49209 3.44977 6.55875 3.39144C6.64209 3.3081 6.66709 3.19144 6.63375 3.0831L6.29209 1.91644ZM2.95875 6.91644L3.30042 5.7581C3.33375 5.64977 3.30042 5.5331 3.22542 5.44977C3.14209 5.36644 3.02542 5.34144 2.91709 5.37477L1.75042 5.7081L0.592088 5.36644C0.483754 5.3331 0.367088 5.36644 0.283754 5.44144C0.200421 5.52477 0.175421 5.64144 0.208754 5.74977L0.542088 6.91644L0.200421 8.07477C0.167088 8.1831 0.200421 8.29977 0.275421 8.3831C0.358754 8.46644 0.475421 8.49144 0.583754 8.4581L1.74209 8.11644L2.90042 8.4581C2.92542 8.46644 2.95875 8.46644 2.99209 8.46644C3.07542 8.46644 3.15042 8.4331 3.21709 8.37477C3.30042 8.29144 3.32542 8.17477 3.29209 8.06644L2.95875 6.91644ZM15.4588 11.0831L15.8004 9.92477C15.8338 9.81644 15.8004 9.69977 15.7254 9.61644C15.6421 9.5331 15.5254 9.5081 15.4171 9.54144L14.2588 9.8831L13.1004 9.54144C12.9921 9.5081 12.8754 9.54144 12.7921 9.61644C12.7088 9.69977 12.6838 9.81644 12.7171 9.92477L13.0588 11.0831L12.7171 12.2414C12.6838 12.3498 12.7171 12.4664 12.7921 12.5498C12.8754 12.6331 12.9921 12.6581 13.1004 12.6248L14.2588 12.2831L15.4171 12.6248C15.4421 12.6331 15.4754 12.6331 15.5088 12.6331C15.5921 12.6331 15.6671 12.5998 15.7338 12.5414C15.8171 12.4581 15.8421 12.3414 15.8088 12.2331L15.4588 11.0831Z" fill="#9747FF"/>
</svg>
