<svg width="275" height="29" viewBox="0 0 275 29" fill="none" xmlns="http://www.w3.org/2000/svg">
    <g clip-path="url(#clip0_323_1498)">
        <path d="M271.427 13.7973C270.959 13.7813 270.419 13.7628 270.717 13.773C271.185 13.789 271.298 13.7929 271.798 13.8099C272.005 13.8201 272.212 13.8406 272.418 13.8715L273.224 13.899C272.708 13.8814 272.049 13.7782 271.365 13.7305C271.25 13.7912 271.395 13.7962 271.427 13.7973Z" fill="#2079FF"/>
        <path d="M232.625 10.0815L232.873 10.1385C232.793 10.1088 232.71 10.0897 232.625 10.0815Z" fill="#2079FF"/>
        <path d="M208.533 8.32992C208.711 8.33598 208.793 8.29841 208.802 8.25836C208.632 8.27677 208.494 8.29628 208.533 8.32992Z" fill="#2079FF"/>
        <path d="M204.43 7.64867L204.672 7.65694C204.635 7.63874 204.594 7.6286 204.552 7.62718C204.51 7.62576 204.469 7.63308 204.43 7.64867Z" fill="#2079FF"/>
        <path d="M232.625 10.0814L231.992 9.93862C231.94 10.0338 232.312 10.0384 232.625 10.0814Z" fill="#2079FF"/>
        <path d="M243.255 10.711L243.456 10.7179L243.62 10.6428L243.255 10.711Z" fill="#2079FF"/>
        <path d="M251.392 11.482C251.214 11.4759 251.137 11.6106 251.054 11.6723C251.185 11.6183 251.327 11.5955 251.468 11.6057C251.468 11.6057 251.455 11.5326 251.392 11.482Z" fill="#2079FF"/>
        <path d="M237.436 10.1659C237.424 10.1276 237.399 10.0948 237.365 10.0737C237.365 10.0737 237.388 10.1316 237.436 10.1659Z" fill="#2079FF"/>
        <path d="M0.0406772 19.1726L0.170276 19.1609L0.194748 19.1537L0.0406772 19.1726Z" fill="#2079FF"/>
        <path d="M196.9 6.81815C197.022 6.79809 197.135 6.79388 196.9 6.81815V6.81815Z" fill="#2079FF"/>
        <path d="M127.539 6.53161C128.333 6.91405 126.276 7.08602 127.506 7.49947C127.35 7.32458 128.523 6.79134 127.539 6.53161Z" fill="#2079FF"/>
        <path d="M179.497 6.41699C179.542 6.49623 179.61 6.56032 179.692 6.60132C179.692 6.60132 179.623 6.51012 179.497 6.41699Z" fill="#2079FF"/>
        <path d="M192.439 7.40024L192.118 7.34082C192.222 7.37348 192.33 7.39343 192.439 7.40024Z" fill="#2079FF"/>
        <path d="M172.756 6.84073C172.603 6.78757 172.437 6.78191 172.28 6.82447L172.351 6.87534C172.411 6.83711 172.479 6.81397 172.549 6.80794C172.62 6.80191 172.691 6.81316 172.756 6.84073Z" fill="#2079FF"/>
        <path d="M165.75 6.76318C165.789 6.79785 165.831 6.82901 165.876 6.85631L166.093 6.86375L165.75 6.76318Z" fill="#2079FF"/>
        <path d="M30.6277 16.1158C30.5044 16.091 30.3878 16.0402 30.2856 15.9669C30.4021 16.1001 29.3876 16.2511 30.6277 16.1158Z" fill="#2079FF"/>
        <path d="M266.062 13.4286C265.992 13.4384 265.921 13.436 265.852 13.4214L266.086 13.4294C266.086 13.4294 266.11 13.4383 266.062 13.4286Z" fill="#2079FF"/>
        <path d="M172.422 10.2211L171.309 10.1831C171.679 10.2174 172.051 10.2301 172.422 10.2211Z" fill="#2079FF"/>
        <path d="M80.6304 12.2444L80.3782 12.3004C80.4661 12.3093 80.5545 12.2896 80.6304 12.2444Z" fill="#2079FF"/>
        <path d="M168.021 10.2159C167.835 10.0727 167.622 9.96927 167.394 9.91185C167.394 9.91185 167.295 9.97307 167.269 10.0287L168.021 10.2159Z" fill="#2079FF"/>
        <path d="M23.0445 17.0841C24.0971 16.9989 23.5133 16.8336 23.7202 16.6873C24.9702 16.4958 24.3223 16.7886 24.7637 16.8683C25.5755 16.7426 26.118 16.4624 26.709 16.418C26.7574 16.4196 26.8703 16.4235 26.7057 16.5148C27.5224 16.2439 29.1366 16.2667 30.1016 15.9121C30.1504 15.9184 30.197 15.9366 30.237 15.9652C30.0635 15.8462 30.0275 15.7158 30.047 15.6196C30.5173 15.563 30.8637 15.3487 31.1005 15.5102C30.9399 15.5127 30.7857 15.5734 30.6666 15.6811L31.1558 15.5444C31.6251 15.7542 30.4881 15.7073 30.506 15.8936C31.4277 15.6556 32.3644 15.4798 33.3098 15.3677C33.4951 15.6162 31.5967 15.6402 32.6018 15.7634L31.4465 15.7804C32.3725 16.0947 30.7507 15.8212 31.6029 16.1653C33.115 16.1039 33.2765 15.8672 34.7881 15.8219C35.1093 15.6391 34.6501 15.6073 34.9713 15.4244C37.0787 14.9554 36.7286 15.9851 38.2639 15.4804C38.472 15.2659 38.7301 15.1063 39.015 15.016C39.3 14.9257 39.6028 14.9074 39.8966 14.9629L39.5529 15.3307C41.0175 15.2434 40.3312 14.7678 41.8864 14.8613C41.6306 15.0221 40.7485 15.0808 40.974 15.0966C41.9928 15.2929 41.6528 14.8452 42.4143 14.7744L42.606 15.0716C44.1542 14.8984 45.8553 14.5043 47.5585 14.288C47.4739 14.3981 47.187 14.5256 47.6044 14.5964C49.8399 14.2754 52.1022 14.1823 54.3565 14.3184L55.1284 13.941C55.3139 13.9473 55.4878 14.0583 55.2912 14.1404C56.0977 14.1679 55.2983 13.9307 55.6913 13.7745C56.0842 13.6184 56.3243 13.9173 56.0376 14.0367C57.4556 13.6572 60.1067 13.1098 61.6403 13.3641L61.3533 13.4916C62.547 13.5323 62.6249 12.671 63.7472 12.9112L63.5428 12.985C66.1201 12.9438 68.9258 12.3614 70.9284 12.8336C71.2628 12.2636 73.4932 12.9212 73.6014 12.1174C75.0936 12.4026 74.684 12.5743 76.8111 12.7116C77.3595 12.7303 77.6372 12.1665 78.2715 12.0347L78.3137 12.4561L79.211 11.9538L79.736 12.4239L80.3708 12.276C80.1128 12.2672 79.819 12.1199 79.8473 11.9998C80.8332 11.7427 82.2651 12.1389 82.3383 12.3594L84.6815 11.8419C84.6752 12.0274 84.2444 12.1096 83.9413 12.2365C85.1704 11.7133 84.2006 12.6814 85.3313 12.2033C85.1647 12.1168 85.3969 11.939 85.416 11.8509C86.3541 12.0547 87.3241 12.0631 88.2656 11.8756L88.1013 12.1929C89.8618 12.1885 91.7863 11.8747 93.7678 11.7809C93.0611 11.668 93.185 11.115 93.7932 11.0389L94.0517 11.508C94.4098 11.1892 93.4432 11.358 94.1839 10.9473C94.9259 10.9726 94.7069 11.4739 94.2971 11.6537L95.1764 11.4415C95.2443 11.5811 95.0394 11.671 94.9927 11.8551C95.3427 11.536 96.5934 12.2732 97.0566 11.7157L97.1161 11.863C99.0815 11.7687 99.9689 11.5568 101.571 11.45C101.586 11.0226 102.206 11.0841 102.672 10.6801C103.97 10.8758 105.281 10.9745 106.594 10.9756C107.588 10.727 106.873 10.5976 107.311 10.3218C107.402 10.7126 108.819 10.6237 108.097 10.9382C109.546 10.8596 110.986 10.6686 112.405 10.3667C112.168 10.2132 111.903 10.1558 112.029 10.0147C112.419 9.93115 112.929 10.1424 112.882 10.3426L112.775 10.3874C115.174 9.6619 118.395 11.3466 120.299 10.4426L120.193 10.4874L122.18 9.9901C123.099 10.0215 121.636 10.3107 122.322 10.5521C124.455 9.81751 125.729 10.5716 127.491 10.0666C128.896 11.2451 132.343 9.86091 134.24 10.5879L134.12 10.3012C134.598 10.0107 134.705 10.4503 135.058 10.5108C135.009 10.2912 134.533 10.2668 134.83 10.0993C138.882 9.64832 143.218 10.3859 147.377 10.6007C148.901 10.6528 148.235 9.11194 150.159 9.76714L149.616 10.3057C151.152 10.0168 152.716 9.89691 154.279 9.94828C155.824 10.0209 157.373 9.94942 158.905 9.7349C158.724 9.84982 158.718 10.0111 158.427 10.0093C159.061 10.3862 160.777 10.0249 160.787 9.71846C161.255 9.73444 160.891 9.99654 161.184 10.1519C161.814 10.3753 162.815 9.67471 163.118 10.0484C163.18 10.1071 162.944 10.1717 162.822 10.1998C163.24 10.0203 164.757 10.2659 164.361 9.80827C165.493 10.0165 166.524 9.61569 167.418 9.91272C168.016 9.4325 169.348 10.1402 169.549 9.46873C169.46 10.1682 171.516 10.0204 172.238 9.71401C171.996 9.92379 172.852 9.93687 172.567 10.2259C173.374 10.2535 174.13 10.1097 173.997 9.74989C175.485 10.6082 177.021 9.13458 177.849 10.1884C180.283 9.85165 182.527 9.64569 184.704 9.51819C184.609 10.1771 182.28 9.5565 182.378 10.2462C184.445 9.99385 185.635 9.45309 187.696 9.62043C188.226 9.71927 187.388 9.90059 187.206 10.0074C189.274 9.76316 191.191 10.1436 193.042 9.85959C193.04 9.91605 192.836 9.97368 192.641 10.0155C193.003 10.0279 193.444 10.1317 193.454 9.84945L193.096 9.90991C192.53 9.47873 194.561 9.09596 194.633 8.8804C193.993 9.666 196.441 9.14404 195.398 10.1258C195.634 10.0774 195.937 9.95852 195.895 9.77136C196.248 9.83188 196.349 9.94032 195.987 10.146C197.291 10.029 196.809 9.72185 198.011 9.76291C198.006 9.89196 197.763 9.94015 197.636 10.0893C198.319 9.75776 199.085 9.63772 199.836 9.74453C199.777 9.82326 199.887 9.93197 199.588 9.92177C201.292 9.92346 202.523 9.32763 204.387 9.62546C203.811 10.163 205.01 9.82439 205.09 10.3036L206.109 10.2496L205.714 10.0019C206.593 10.0319 207.387 9.73604 208.139 9.92325L207.48 10.0864L209.095 10.069L208.174 9.85176C209.077 9.65652 208.105 9.25995 209.27 9.44509C209.026 9.48522 210.149 9.47513 210.599 9.78926C211.1 9.59852 211.643 9.55003 212.17 9.64915C212.334 9.80011 212.008 10.1442 212.15 10.2379C212.598 9.88986 214.217 10.2278 214.779 9.85942C214.745 9.87303 214.713 9.89344 214.687 9.91943C214.661 9.94543 214.64 9.97646 214.626 10.0107C214.612 10.0449 214.605 10.0816 214.606 10.1185C214.606 10.1555 214.614 10.192 214.629 10.2257L215.002 9.93972C215.41 10.0586 215.465 10.1009 215.394 10.2842C216.618 10.3906 215.026 9.71444 216.478 10.0143C216.357 10.0102 216.411 10.0847 216.167 10.1168C217.623 10.2957 219.003 10.0603 220.345 10.2595C220.718 10.6841 219.165 10.308 219.596 10.6781C221.564 10.5306 223.539 10.4983 225.51 10.5814L225.157 10.5128C225.45 9.98983 226.542 10.8669 227.502 10.6656C227.268 10.6576 227.177 10.9452 227.244 10.8829C228.772 10.973 230.304 10.966 231.831 10.8619L231.585 10.9747C232.331 11.1293 233.573 11.1556 234.386 11.2561C234.64 11.1436 235.106 11.1919 234.83 11.0048C237.306 11.808 239.678 10.9282 241.858 11.6244C241.592 11.6153 241.219 11.6753 241.428 11.6905L243.34 11.7558C243.2 11.5815 243.093 11.6424 242.703 11.4757C243.117 11.3822 243.543 11.3559 243.966 11.3977C243.1 11.4408 243.957 11.6638 244.316 11.7811C244.261 11.7308 244.392 11.6787 244.362 11.6292C245.334 11.9935 244.558 11.3129 245.896 11.617L245.821 11.6952C246.328 11.6459 246.839 11.6337 247.348 11.6586C247.568 11.8518 246.806 11.7046 246.76 11.8484C247.49 11.7569 248.227 11.7549 248.957 11.8427C248.634 11.8317 248.15 11.8152 247.826 11.8526C248.274 12.0151 248.745 12.1075 249.222 12.1263L249.173 12.1247L250.468 12.2981L250.139 12.2223C251.136 11.8849 252.107 12.2895 253.42 12.1406C252.14 12.2664 253.206 12.2544 253.096 12.4041C253.417 12.4716 253.899 12.5526 253.776 12.5888C254.393 12.5049 254.788 12.7526 255.672 12.6536C255.67 12.702 256.325 12.6759 256.175 12.808C256.982 12.8356 255.992 12.721 256.067 12.6671C257.305 12.5963 258.936 13.0558 260.722 13.0119C262.247 13.0639 262.54 12.9851 263.95 13.0737C264.424 13.1625 263.544 13.1406 263.544 13.1406C264.233 13.2393 264.926 13.3034 265.621 13.3327C265.468 13.3274 265.621 13.3327 265.836 13.4127C266.224 13.402 266.612 13.4153 266.998 13.4524C266.802 13.4767 266.604 13.4888 266.407 13.4887C267.101 13.5124 267.778 13.5356 268.488 13.5598C268.681 13.5664 268.06 13.5452 267.81 13.5367C268.617 13.5642 269.881 13.672 270.124 13.6641L269.615 13.6468C269.906 13.6567 269.761 13.6517 269.551 13.6446C269.207 13.6497 268.864 13.6109 268.529 13.5289L269.037 13.5463C268.525 13.4077 267 13.3717 265.986 13.2886L266.416 13.2306L265.367 13.1948C265.15 13.1873 265.008 13.0775 265.507 13.1108C264.785 12.9811 264.862 13.0887 264.237 12.9624L263.519 12.9378C263.656 12.9425 263.409 12.8372 263.843 12.9005C262.575 12.6875 261.772 12.7812 261.301 12.6279L261.414 12.6317C259.634 12.4982 261.233 12.7144 259.892 12.7251L259.017 12.3399L258.836 12.4468C258.651 12.4404 258.29 12.3716 258.364 12.3257C257.678 12.3022 258.475 12.394 258.069 12.4367C257.205 12.2214 255.652 12.2815 255.459 12.0326C255.133 12.1184 256.261 12.1892 255.348 12.1903C255.1 11.9073 254.252 12.1528 253.459 11.9562C253.721 11.836 254.475 11.9909 253.683 11.7781C253.175 11.9788 252.123 11.5795 251.437 11.5641C251.39 11.7644 249.953 11.5134 248.808 11.4743C248.883 11.4122 246.671 11.159 245.595 10.9689C245.377 11.2037 244.284 11.0533 243.485 11.0421C243.531 10.8822 243.678 10.8307 244.115 10.8052L243.456 10.7181C243.162 10.807 242.854 10.8349 242.549 10.8002L242.749 10.6132C241.647 10.6222 240.546 10.5576 239.453 10.4198C239.365 10.6187 240.433 11.0509 239.066 11.1011C239.022 10.9865 238.988 10.7915 239.344 10.7714C239.127 10.8032 238.905 10.7956 238.691 10.7491L239.245 10.5985C238.668 10.4738 238.934 10.7332 238.435 10.6838C238.44 10.5225 238.092 10.5429 238.169 10.4244C238.246 10.3059 238.577 10.5191 238.758 10.4445C238.29 10.4018 237.834 10.2825 237.405 10.0915C237.402 10.1883 237.398 10.3092 237.002 10.3038C236.002 10.2696 236.671 10.0745 236.094 9.9417C235.848 10.0463 235.215 9.91166 235.183 10.1286C235.097 10.1227 235.013 10.099 234.937 10.0588C234.86 10.0187 234.793 9.96302 234.739 9.8954C234.219 9.97455 232.322 9.74014 232.892 10.0745L233.021 10.0789L232.932 10.0759C231.223 10.2275 229.434 9.66568 227.746 9.65648L227.746 9.66455C226.759 9.62083 225.771 9.64642 224.788 9.74112C224.49 9.73093 224.094 9.49938 224.235 9.39115C223.578 9.47576 222.911 9.43654 222.268 9.27552C223.08 9.14176 222.016 9.08926 223.079 9.19016C222.331 8.97011 221.541 8.94308 220.78 9.11162C221.16 8.85813 220.051 8.71525 219.572 8.77158L220.259 9.01305C219.765 9.01329 219.273 8.98028 218.784 8.91423L219.063 8.56038C217.048 7.96668 215.345 9.12779 213.833 8.24441C213.276 8.48377 214.931 8.49994 214.428 8.78961C213.689 8.60392 212.968 8.35227 212.274 8.03771C211 7.7358 211.045 8.55289 209.712 8.32164C209.877 8.4726 210.016 8.87305 209.012 8.95179C208.071 8.85503 207.881 8.27521 208.481 8.19076C208.707 8.19847 208.81 8.24238 208.801 8.2905C209.107 8.30097 209.506 8.21769 209.141 8.03564L209.015 8.17668C208.56 7.99966 207.262 7.93917 207.577 7.71574C206.863 7.81247 207.262 7.93917 207.784 8.0458C206.59 7.76277 205.907 7.91707 204.67 7.72138C204.861 7.80865 205.04 8.0005 204.838 7.98554C203.03 7.7219 204.022 8.24027 202.794 8.26291C202.101 7.99697 203.063 7.70687 201.815 7.84994C201.062 7.66272 201.676 7.43336 201.978 7.32258C200.839 7.56629 199.873 7.02454 199.23 6.93797L199.872 6.8065C199.556 6.85317 199.236 6.86121 198.919 6.83044L199.254 7.16491C198.901 7.09633 198.603 7.07806 198.616 6.94929C198.246 7.13853 198.872 7.49098 198.153 7.74096C197.69 7.56366 196.719 7.86156 196.549 7.41968C198.011 7.63115 196.402 6.9867 197.646 6.97268C197.354 7.01872 197.055 7.00852 196.767 6.94264C196.712 6.89232 196.818 6.85558 196.916 6.83469C195.526 6.38346 196.254 7.2885 194.795 7.21443C194.989 6.9788 194.481 6.73533 194.237 6.77546C194.826 6.79557 194.505 7.19644 193.958 7.36348C193.038 7.13016 192.946 7.46615 192.455 7.41708L193.008 7.53288C192.814 7.77657 192.347 7.72026 191.692 7.77053C191.642 7.57503 192.293 7.66187 192.062 7.57322C191.321 7.97589 190.465 7.05031 189.43 7.30567C188.969 7.11225 189.398 6.82816 188.991 6.69312C187.851 6.97716 187.777 6.30442 186.574 6.53786C186.909 6.89652 186.968 6.80973 186.126 7.12816L188.078 6.93648L186.819 7.40217C187.408 7.42228 188.061 7.2185 188.438 7.28791C187.831 7.5498 187.899 7.46329 188.172 7.75523C187.382 7.21954 186.548 8.01466 185.647 7.66897L185.676 6.81403C184.286 6.39507 183.184 7.18916 181.369 6.92524L181.952 7.09861C181.698 7.43715 180.829 7.11676 180.235 7.24182C180.294 6.95312 179.926 6.83559 179.683 6.64154C179.675 6.85931 178.352 6.59607 178.179 7.17155L177.385 6.76491C175.922 6.56958 175.694 7.57115 174.285 7.46647C174.715 7.15011 174.077 6.91836 175.03 6.68444C174.554 6.66819 174.136 6.60546 174.121 6.81489C173.853 6.62001 172.816 7.1902 172.382 6.89275C172.184 7.02325 172.117 7.33588 171.561 7.30073C171.546 7.27757 171.539 7.25061 171.54 7.22331C171.541 7.19601 171.55 7.16961 171.566 7.14749C171.561 7.29267 170.752 7.3377 171.193 7.67575C169.756 6.72226 167.154 7.72347 165.882 6.89675C164.853 6.9908 163.615 7.08575 162.645 7.10107C162.705 7.00622 162.651 6.93976 162.827 6.97809C161.537 6.67562 162.029 7.8633 160.571 7.53086C159.822 7.02075 161.388 7.26806 160.878 7.07298C160.678 6.04874 159.113 7.19841 158.124 6.59132L158.368 6.53506C157.573 6.17682 156.523 6.90804 155.298 6.83389C155.298 6.83389 155.358 6.73903 155.303 6.67258C154.154 7.16571 152.929 7.4597 151.68 7.542C152.05 7.12666 152.221 7.31823 151.993 6.90669C151.466 6.96943 152.156 7.57439 151.094 7.68347C150.746 7.46164 149.986 7.27415 149.88 6.83449L150.908 6.7485C150.386 6.18159 149.607 6.77672 149.085 6.68622L149.151 6.43005C147.613 6.53094 147.599 7.18452 145.953 7.1283L146.124 7.31987C145.231 7.95148 145.329 6.97776 144.505 7.45026L144.228 6.81902C143.201 7.14345 142.154 7.39901 141.093 7.584C141.917 7.13797 142.794 6.79633 143.703 6.56694C143.115 6.54682 141.698 6.63571 141.397 6.9484C141.633 6.88381 141.93 6.72435 142.169 6.82134C141.315 7.38542 140.305 7.66468 139.283 7.61905C139.47 6.38193 136.224 7.33689 135.351 6.41883C133.283 6.92954 131.228 6.33447 128.809 6.46984C129.697 7.40458 128.104 6.51845 128.281 7.50154C127.721 7.57931 127.471 7.5627 127.474 7.47398L125.749 6.93053C125.338 6.6581 126.281 6.69841 126.216 6.48623C124.982 6.44406 125.689 6.08062 124.865 5.84254C125.047 6.1879 124.452 6.36135 123.745 6.24838L124.748 6.67025C123.041 7.24176 123.232 5.89172 121.526 6.45517L122.069 6.1346C121.183 6.3304 118.78 6.23215 117.928 7.05898C117.77 6.95668 117.552 6.69893 117.943 6.60731C115.804 6.59074 113.232 7.64951 111.558 7.2451L111.712 7.00809C111.321 7.09165 111.042 7.47777 110.532 7.26656C110.535 7.16977 110.686 7.02149 110.5 7.02322C110.014 7.26775 109.474 7.38541 108.93 7.36524L109.368 7.08142C107.275 6.87266 106.208 7.86976 104.488 8.1017C104.462 7.43061 102.82 7.27761 101.999 7.20917L102.002 7.11239C99.5774 7.18296 97.937 7.92632 95.7108 8.32668C94.2786 7.70443 90.987 8.32678 88.7342 8.08831C89.0782 8.18081 88.7171 8.58836 88.3186 8.67165C87.7807 8.58059 86.8953 9.20441 86.9394 8.62452L87.1329 8.63114C86.6992 8.09145 85.6341 8.30538 84.7925 8.35737L84.7004 9.16172C82.4293 8.27663 79.019 10.0093 77.7155 9.16531C77.1991 9.38991 76.5353 9.4399 76.0272 9.65671L76.0402 9.27764C74.6859 9.27762 73.3333 9.37443 71.9928 9.56732L72.3421 9.27241C71.3144 9.33419 71.1312 10.4423 70.1915 10.5313L69.8618 10.0194C68.0805 10.1604 66.2404 9.89564 64.5143 10.5473C64.5171 10.4666 64.5788 10.3153 64.863 10.2685C64.0531 10.3377 61.6332 10.2631 61.958 10.9202C61.9006 10.4741 60.1119 11.0671 59.1656 11.3496L59.29 11.0147C58.7403 11.4629 58.076 11.7479 57.3724 11.8375C57.1063 11.8284 57.1137 11.6106 57.4836 11.6555C56.5739 11.576 56.809 12.0201 55.7129 11.9584L56.0925 11.7211C55.6104 11.6955 55.1368 11.8556 54.7691 12.1684C54.1979 12.3427 53.0139 12.2538 52.8531 11.998C52.7048 12.1479 52.5254 12.2633 52.3276 12.3361C52.1297 12.4089 51.9182 12.4372 51.7082 12.4191C51.6306 12.3276 51.8191 12.2453 51.9176 12.2002C50.3528 12.1467 49.6605 12.7933 48.5761 12.627C48.5609 12.5858 48.5344 12.5496 48.4996 12.5227C48.4649 12.4958 48.4232 12.4793 48.3794 12.475C49.6034 12.3391 50.5837 12.2434 50.4939 12.2727C50.503 12.0065 49.4832 12.0766 50.2259 11.6094C49.2638 12.0761 48.2297 12.3766 47.1674 12.4981C47.1199 12.4772 47.0748 12.4513 47.0328 12.4209L47.1309 12.3839C46.9256 12.3837 46.722 12.4205 46.5297 12.4925C46.2601 12.4828 45.9902 12.4898 45.7215 12.5133C45.5907 12.3231 44.5821 12.539 44.1037 12.5953C44.1675 12.8559 43.5203 12.8903 44.1453 13.0328C44.0646 13.03 44.2354 12.9955 44.5683 12.9423C44.6377 12.9328 44.7059 12.9162 44.7718 12.8927L45.9969 12.7246C45.5958 12.9626 45.1249 13.0549 44.6637 12.9859C44.4593 13.1669 44.246 13.3375 44.0245 13.497C43.3079 13.198 41.9933 13.1531 41.7899 12.9604C40.3012 13.281 38.2594 13.4858 37.3685 14.0367C36.9449 14.1434 36.862 13.971 36.6943 13.9168C36.9093 13.8836 37.1216 13.8342 37.3292 13.7689C36.5143 13.9833 34.8062 14.1107 34.6339 14.4278C33.545 14.3906 35.2108 14.0841 33.7333 14.3163L33.9229 14.2016C32.621 14.2174 31.329 14.4291 30.0901 14.8297C28.7519 15.2217 27.363 15.4137 25.9686 15.3995C26.0999 15.3776 26.2343 15.3822 26.3638 15.413C24.5102 15.5434 22.6263 15.8505 20.7517 16.1256C18.877 16.4007 16.9875 16.6349 15.1726 16.8151C14.5772 16.8788 13.9906 17.0077 13.4233 17.1995L13.1836 17.1267L12.1724 17.4151C10.661 17.6946 9.50981 17.5906 7.60568 18.0181L7.85571 18.0267C7.16628 18.1162 5.67204 18.3639 5.78689 18.3113C5.6243 18.3538 5.45858 18.3832 5.29131 18.3993L3.53787 18.6705C2.22327 18.8598 3.73502 18.5723 1.81862 18.8863L0.0643555 19.1817L0.811339 19.0618L0.161968 19.1608C0.0409859 19.1566 -0.461829 19.2202 1.15036 19.0653L2.26919 18.934L2.63213 18.9464L1.68406 19.0432C2.22638 19.0052 2.56706 18.9603 2.94027 18.9085L3.41751 18.8844L4.52186 18.7041C4.65897 18.7088 4.03407 18.8005 4.77189 18.7127C5.29166 18.6255 4.27183 18.6956 5.12311 18.5955C5.46217 18.601 5.801 18.5747 6.13515 18.517C6.23194 18.5203 6.13377 18.5573 5.85011 18.588C6.41021 18.5022 7.33353 18.4207 7.61885 18.3416C8.2301 18.2587 8.84683 18.2231 9.46356 18.2351C9.63459 18.1924 10.4394 18.0342 10.9584 17.9712C10.037 18.2304 12.8873 17.7626 12.6618 17.981C13.332 17.7455 15.1684 17.6467 16.3878 17.4058C16.2888 17.4444 16.1846 17.4681 16.0786 17.4759C16.5302 17.4429 16.9834 17.4368 17.4358 17.4577C17.4986 17.2741 18.5777 17.1253 19.1488 16.951C20.0174 17.0533 18.655 17.2248 18.9487 17.3721C18.8811 17.2245 20.404 17.0827 20.1008 16.9754C20.7703 16.9983 20.6654 16.9947 21.0248 17.112C21.1068 16.8402 21.6255 17.0195 22.15 16.7951C23.1097 16.8279 22.4245 17.0306 23.4485 16.8395C23.9455 16.9453 23.0445 17.0841 23.0445 17.0841ZM49.6679 13.9967C49.4178 13.9881 49.1014 14.0339 48.769 14.0709C48.6914 13.9795 48.7759 13.8693 48.9622 13.8515C48.8546 13.9285 49.355 13.9375 49.6679 13.9967ZM45.0996 12.5163C45.4253 12.4386 45.5368 12.4828 45.5916 12.5331C45.4384 12.5279 45.2587 12.5864 45.0229 12.6348L45.0215 12.6751C45.036 12.6173 45.0626 12.5631 45.0996 12.5163Z" fill="#2079FF"/>
        <path d="M44.5522 12.9415C44.5077 12.9593 44.4612 12.9713 44.4137 12.9772L44.6153 12.984L44.7235 12.8908L44.5522 12.9415Z" fill="#2079FF"/>
        <path d="M232.922 10.1485L232.865 10.1466C232.895 10.1403 232.926 10.1414 232.955 10.1496L232.922 10.1485Z" fill="#2079FF"/>
        <path d="M78.3341 12.5777L78.3212 12.4804L78.1485 12.5714L78.3341 12.5777Z" fill="#2079FF"/>
        <path d="M244.285 11.7397C244.328 11.7701 244.377 11.7911 244.428 11.8012L244.285 11.7397Z" fill="#2079FF"/>
        <path d="M252.973 12.4651C253.007 12.4531 253.036 12.4313 253.057 12.4027L252.973 12.4651Z" fill="#2079FF"/>
        <path d="M192.616 10.0307C192.568 10.0213 192.519 10.0197 192.471 10.0257C192.129 10.1109 192.364 10.0866 192.616 10.0307Z" fill="#2079FF"/>
        <path d="M210.624 9.75763C210.437 9.80775 210.241 9.8576 210.038 9.89104C210.36 9.93432 210.609 9.95093 210.624 9.75763Z" fill="#2079FF"/>
        <path d="M209.208 9.84649C209.472 9.91221 209.747 9.9216 210.015 9.87405C209.748 9.83065 209.477 9.82139 209.208 9.84649Z" fill="#2079FF"/>
        <path d="M270.281 13.7664L269.886 13.7529C270.018 13.764 270.15 13.7685 270.281 13.7664Z" fill="#2079FF"/>
        <path d="M264.428 13.3162L264.362 13.314C264.362 13.314 264.419 13.3322 264.428 13.3162Z" fill="#2079FF"/>
        <path d="M262.896 13.2071C263.259 13.2195 263.804 13.3431 264.312 13.3605L264.36 13.3621C264.118 13.37 263.244 13.1867 262.896 13.2071Z" fill="#2079FF"/>
        <path d="M256.578 12.1274L257.856 12.3003C257.632 12.2281 257.345 12.1294 257.933 12.1818C256.337 11.8608 258.251 12.3219 256.578 12.1274Z" fill="#2079FF"/>
        <path d="M252.629 11.6773C253.314 11.7007 252.632 11.5966 252.633 11.5644C252.196 11.5737 252.123 11.5793 252.629 11.6773Z" fill="#2079FF"/>
        <path d="M224.014 9.24635L224.095 8.99074C223.538 8.99592 224.059 9.10255 224.014 9.24635Z" fill="#2079FF"/>
        <path d="M218.419 10.3958L218.921 10.5987L219.18 10.3491L218.419 10.3958Z" fill="#2079FF"/>
        <path d="M215.282 8.14833L215.517 8.12406L214.627 8.1744L215.282 8.14833Z" fill="#2079FF"/>
        <path d="M166.997 6.39404L167.15 6.88375C167.509 6.79103 167.592 6.24478 166.997 6.39404Z" fill="#2079FF"/>
        <path d="M146.14 6.87614C145.985 6.73021 145.788 6.63683 145.578 6.60933C145.367 6.58183 145.153 6.62161 144.966 6.72299C145.352 6.80741 145.745 6.85865 146.14 6.87614Z" fill="#2079FF"/>
        <path d="M83.6027 8.67988L84.0126 8.50009L83.2308 8.6914L83.6027 8.67988Z" fill="#2079FF"/>
    </g>
    <defs>
        <clipPath id="clip0_323_1498">
            <rect width="273.829" height="19.1909" fill="white" transform="translate(0.655273) rotate(1.95689)"/>
        </clipPath>
    </defs>
</svg>
