<svg width="40" height="40" viewBox="0 0 40 40" fill="none" xmlns="http://www.w3.org/2000/svg">
    <g clip-path="url(#clip0_496_1056)">
        <path d="M34 0H6C2.68629 0 0 2.68629 0 6V34C0 37.3137 2.68629 40 6 40H34C37.3137 40 40 37.3137 40 34V6C40 2.68629 37.3137 0 34 0Z" fill="black"/>
        <path d="M11.0947 13.6719C12.6912 13.6719 13.9854 12.3777 13.9854 10.7812C13.9854 9.1848 12.6912 7.89062 11.0947 7.89062C9.49828 7.89062 8.2041 9.1848 8.2041 10.7812C8.2041 12.3777 9.49828 13.6719 11.0947 13.6719Z" fill="white"/>
        <path d="M19.0625 15.1562V30.625ZM11.0938 15.1562V30.625Z" fill="white"/>
        <path d="M19.0625 15.1562V30.625M11.0938 15.1562V30.625" stroke="white" stroke-width="3.73828"/>
        <path d="M21.5625 22.0312C21.5625 20.4688 22.5781 18.9062 24.375 18.9062C26.25 18.9062 26.9531 20.3125 26.9531 22.4219V30.625H32.1094V21.7969C32.1094 17.0312 29.6094 14.8438 26.1719 14.8438C23.5156 14.8438 22.1875 16.3281 21.5625 17.3438" fill="white"/>
    </g>
    <defs>
        <clipPath id="clip0_496_1056">
            <rect width="40" height="40" fill="white"/>
        </clipPath>
    </defs>
</svg>
