<svg width="83" height="20" viewBox="0 0 83 20" fill="none" xmlns="http://www.w3.org/2000/svg">
    <path d="M0 19.2853V1.71199H4.11916V8.9084H4.23125L9.66743 1.71199H14.2069L8.68667 8.71973L15.2157 19.2853H10.7042L6.2488 11.8732L4.11916 14.5685V19.2853H0Z" fill="black"/>
    <path d="M22.4069 19.6087C21.23 19.6087 20.1185 19.3392 19.0724 18.8001C18.0449 18.2431 17.2136 17.4435 16.5785 16.4013C15.9433 15.3412 15.6257 14.0744 15.6257 12.6009C15.6257 11.1096 15.9433 9.84277 16.5785 8.80059C17.2136 7.75841 18.0449 6.9678 19.0724 6.42874C20.1185 5.87171 21.23 5.5932 22.4069 5.5932C23.5838 5.5932 24.686 5.87171 25.7135 6.42874C26.7409 6.9678 27.5722 7.75841 28.2074 8.80059C28.8425 9.84277 29.1601 11.1096 29.1601 12.6009C29.1601 14.0744 28.8425 15.3412 28.2074 16.4013C27.5722 17.4435 26.7409 18.2431 25.7135 18.8001C24.686 19.3392 23.5838 19.6087 22.4069 19.6087ZM22.4069 16.4013C23.2476 16.4013 23.8827 16.0599 24.3124 15.3771C24.7421 14.6763 24.9569 13.7509 24.9569 12.6009C24.9569 11.433 24.7421 10.5076 24.3124 9.8248C23.8827 9.14199 23.2476 8.80059 22.4069 8.80059C21.5476 8.80059 20.9031 9.14199 20.4734 9.8248C20.0625 10.5076 19.857 11.433 19.857 12.6009C19.857 13.7509 20.0625 14.6763 20.4734 15.3771C20.9031 16.0599 21.5476 16.4013 22.4069 16.4013Z" fill="black"/>
    <path d="M36.5948 19.6087C34.8762 19.6087 33.6432 19.1325 32.896 18.1802C32.1674 17.2279 31.8031 15.979 31.8031 14.4337V9.01621H29.8977V6.07835L32.0273 5.91663L32.5037 2.35886H35.9223V5.91663H39.2569V9.01621H35.9223V14.3798C35.9223 15.1345 36.0811 15.6826 36.3987 16.024C36.7349 16.3474 37.1739 16.5091 37.7157 16.5091C37.9398 16.5091 38.164 16.4822 38.3882 16.4283C38.631 16.3743 38.8459 16.3115 39.0327 16.2396L39.6772 19.1235C39.3222 19.2313 38.8832 19.3392 38.3602 19.447C37.8558 19.5548 37.2673 19.6087 36.5948 19.6087Z" fill="black"/>
    <path d="M47.6979 19.6087C46.3715 19.6087 45.176 19.3302 44.1111 18.7731C43.0463 18.2161 42.2057 17.4165 41.5892 16.3743C40.9727 15.3322 40.6645 14.0744 40.6645 12.6009C40.6645 11.1455 40.9727 9.89667 41.5892 8.8545C42.2244 7.81232 43.0463 7.01272 44.0551 6.45569C45.0639 5.8807 46.1194 5.5932 47.2215 5.5932C48.5479 5.5932 49.6407 5.8807 50.5001 6.45569C51.3781 7.01272 52.0319 7.77638 52.4616 8.74668C52.9099 9.69902 53.1341 10.7861 53.1341 12.008C53.1341 12.3494 53.1154 12.6908 53.078 13.0322C53.0407 13.3556 53.0033 13.5982 52.9659 13.7599H44.6436C44.8304 14.7302 45.2507 15.449 45.9045 15.9161C46.5584 16.3654 47.343 16.59 48.2583 16.59C49.2484 16.59 50.2479 16.2935 51.2566 15.7005L52.6297 18.0993C51.9198 18.5665 51.1259 18.9349 50.2479 19.2044C49.3699 19.4739 48.5199 19.6087 47.6979 19.6087ZM44.6155 11.1455H49.6314C49.6314 10.4088 49.4446 9.80683 49.071 9.33965C48.716 8.8545 48.1276 8.61192 47.3056 8.61192C46.6704 8.61192 46.1007 8.82754 45.5963 9.25879C45.0919 9.67207 44.765 10.301 44.6155 11.1455Z" fill="black"/>
    <path d="M59.5826 19.6087C58.1628 19.6087 57.1727 19.2044 56.6123 18.3958C56.0705 17.5693 55.7997 16.4822 55.7997 15.1345V2.22914H59.9188V15.2962C59.9188 15.7095 59.9936 15.997 60.143 16.1587C60.3111 16.3204 60.4793 16.4013 60.6474 16.4013C60.7408 16.4013 60.8155 16.4013 60.8716 16.4013C60.9463 16.3833 61.0397 16.3654 61.1518 16.3474L61.6562 19.2853C61.432 19.3751 61.1424 19.447 60.7875 19.5009C60.4512 19.5728 60.0496 19.6087 59.5826 19.6087Z" fill="#63A2FF"/>
    <path d="M65.8259 19.6087C64.4061 19.6087 63.416 19.2044 62.8556 18.3958C62.3138 17.5693 62.043 16.4822 62.043 15.1345V0.391296H66.1621V15.2962C66.1621 15.7095 66.2368 15.997 66.3863 16.1587C66.5544 16.3204 66.7225 16.4013 66.8907 16.4013C66.9841 16.4013 67.0588 16.4013 67.1149 16.4013C67.1896 16.3833 67.283 16.3654 67.3951 16.3474L67.8995 19.2853C67.6753 19.3751 67.3857 19.447 67.0308 19.5009C66.6945 19.5728 66.2929 19.6087 65.8259 19.6087Z" fill="black"/>
    <path d="M76.0294 19.6087C74.8525 19.6087 73.741 19.3392 72.6949 18.8001C71.6674 18.2431 70.8361 17.4435 70.2009 16.4013C69.5658 15.3412 69.2482 14.0744 69.2482 12.6009C69.2482 11.1096 69.5658 9.84277 70.2009 8.80059C70.8361 7.75841 71.6674 6.9678 72.6949 6.42874C73.741 5.87171 74.8525 5.5932 76.0294 5.5932C77.2063 5.5932 78.3085 5.87171 79.336 6.42874C80.3634 6.9678 81.1947 7.75841 81.8299 8.80059C82.465 9.84277 82.7826 11.1096 82.7826 12.6009C82.7826 14.0744 82.465 15.3412 81.8299 16.4013C81.1947 17.4435 80.3634 18.2431 79.336 18.8001C78.3085 19.3392 77.2063 19.6087 76.0294 19.6087ZM76.0294 16.4013C76.8701 16.4013 77.5052 16.0599 77.9349 15.3771C78.3645 14.6763 78.5794 13.7509 78.5794 12.6009C78.5794 11.433 78.3645 10.5076 77.9349 9.8248C77.5052 9.14199 76.8701 8.80059 76.0294 8.80059C75.1701 8.80059 74.5256 9.14199 74.0959 9.8248C73.685 10.5076 73.4795 11.433 73.4795 12.6009C73.4795 13.7509 73.685 14.6763 74.0959 15.3771C74.5256 16.0599 75.1701 16.4013 76.0294 16.4013Z" fill="black"/>
    <path d="M65.8259 19.6087C64.4061 19.6087 63.416 19.2044 62.8556 18.3958C62.3138 17.5693 62.043 16.4822 62.043 15.1345V0.391296H66.1621V15.2962C66.1621 15.7095 66.2368 15.997 66.3863 16.1587C66.5544 16.3204 66.7225 16.4013 66.8907 16.4013C66.9841 16.4013 67.0588 16.4013 67.1149 16.4013C67.1896 16.3833 67.283 16.3654 67.3951 16.3474L67.8995 19.2853C67.6753 19.3751 67.3857 19.447 67.0308 19.5009C66.6945 19.5728 66.2929 19.6087 65.8259 19.6087Z" fill="#0066FF"/>
</svg>
