<svg width="197" height="26" viewBox="0 0 197 26" fill="none" xmlns="http://www.w3.org/2000/svg">
    <path d="M84.8829 16.7328H97.9006L90.9933 5.61081L78.3741 25.8453H72.6621L87.9205 1.60766C88.5851 0.67045 89.6482 0 90.9757 0C92.171 0 93.2323 0.533516 93.8987 1.47606L109.307 25.7297H103.611L100.954 21.1735H87.8024L84.8829 16.7328ZM144.527 21.1557V0.117373H139.61V23.1652C139.61 23.8357 139.875 24.371 140.275 24.9081C140.804 25.4416 141.338 25.7119 142.003 25.7119H164.186L167.109 21.1557H144.527ZM64.0271 17.4211C68.81 17.4211 72.5281 13.5353 72.5281 8.84569C72.5281 4.02093 68.676 0.270315 64.0271 0.270315H42.7711V25.8648H47.6863V4.6896H63.7591C64.8494 4.69613 65.8931 5.13592 66.664 5.91359C67.435 6.69126 67.8709 7.74414 67.8774 8.84391C67.8709 9.94338 67.4352 10.996 66.6647 11.7736C65.8941 12.5512 64.8508 12.9912 63.7609 12.9982H50.0804L64.5595 25.7279H71.6008L61.7705 17.4193L64.0271 17.4211ZM12.6193 25.7297C5.578 25.7297 0 19.9677 0 13C0 5.89713 5.71198 0.270315 12.6193 0.270315H27.3646C34.4059 0.270315 39.9839 6.03228 39.9839 13C39.9839 20.1029 34.2719 25.7297 27.3646 25.7297H12.6193ZM27.0984 21.1735C29.2789 21.1604 31.3664 20.2808 32.9082 18.7255C34.4501 17.1701 35.322 15.0644 35.335 12.8648C35.322 10.6653 34.4501 8.55954 32.9082 7.0042C31.3664 5.44885 29.2789 4.56929 27.0984 4.55622H13.0177C10.8372 4.56929 8.74973 5.44885 7.20788 7.0042C5.66603 8.55954 4.79409 10.6653 4.78114 12.8648C4.79409 15.0644 5.66603 17.1701 7.20788 18.7255C8.74973 20.2808 10.8372 21.1604 13.0177 21.1735H27.0984ZM119.553 25.7297C112.512 25.7297 106.934 19.9677 106.934 13C106.934 5.89713 112.646 0.270315 119.553 0.270315H137.088L134.165 4.82654H119.818C117.637 4.83961 115.55 5.71917 114.008 7.27451C112.466 8.82986 111.594 10.9356 111.581 13.1352C111.594 15.3347 112.466 17.4405 114.008 18.9958C115.55 20.5511 117.637 21.4307 119.818 21.4438H137.352L134.429 26H119.55L119.553 25.7297ZM179.198 21.1735C175.495 21.1735 172.29 18.6268 171.36 15.1447H192.215L195.138 10.5885H171.494C172.423 7.10287 175.612 4.55978 179.332 4.55978H193.679L196.602 0.00355821H179.065C172.024 0.00355821 166.446 5.76553 166.446 12.7332C166.446 19.8361 172.158 25.4629 179.065 25.4629H194.077L197 20.9067H179.199L179.198 21.1735Z" fill="#687692"/>
</svg>
