<svg width="24" height="25" viewBox="0 0 24 25" fill="none" xmlns="http://www.w3.org/2000/svg">
<path d="M6.29934 2.5C5.28662 2.5 4.35033 2.86245 3.61467 3.4698C3.10875 3.87976 2.70045 4.40239 2.42071 4.99811C2.14096 5.59383 1.99711 6.24702 2.00004 6.90819C2.00004 7.73105 2.22934 8.51473 2.62105 9.18085C3.13697 10.0625 3.94906 10.7482 4.92357 11.0813C5.3535 11.238 5.81209 11.3164 6.29934 11.3164C7.3885 11.3164 8.37256 10.9049 9.12733 10.2192C9.75911 9.65499 10.2144 8.91212 10.4362 8.0837C10.5413 7.71146 10.5986 7.30982 10.5986 6.90819C10.5986 4.46899 8.67829 2.5 6.29934 2.5ZM7.88531 7.64289H7.035V8.55391C7.035 8.74877 6.95951 8.93564 6.82513 9.07342C6.69075 9.2112 6.50849 9.28861 6.31845 9.28861C6.12841 9.28861 5.94615 9.2112 5.81177 9.07342C5.6774 8.93564 5.6019 8.74877 5.6019 8.55391V7.64289H4.67516C4.28345 7.64289 3.95861 7.30982 3.95861 6.90819C3.95861 6.50655 4.28345 6.17349 4.67516 6.17349H5.6019V5.26246C5.6019 5.16598 5.62044 5.07045 5.65645 4.98131C5.69246 4.89217 5.74524 4.81118 5.81177 4.74295C5.87831 4.67473 5.9573 4.62061 6.04424 4.58369C6.13118 4.54677 6.22435 4.52777 6.31845 4.52777C6.41255 4.52777 6.50573 4.54677 6.59266 4.58369C6.6796 4.62061 6.75859 4.67473 6.82513 4.74295C6.89167 4.81118 6.94445 4.89217 6.98046 4.98131C7.01647 5.07045 7.035 5.16598 7.035 5.26246V6.17349H7.88531C8.07535 6.17349 8.25761 6.2509 8.39199 6.38868C8.52637 6.52646 8.60186 6.71333 8.60186 6.90819C8.60186 7.10304 8.52637 7.28992 8.39199 7.4277C8.25761 7.56548 8.07535 7.64289 7.88531 7.64289Z" fill="#0066FF"/>
<path d="M15.376 21.3961L6.43348 22.4736C5.81247 22.552 5.25833 22.454 4.79019 22.2189C4.29522 21.9709 3.89511 21.5607 3.65326 21.0532C3.42397 20.5732 3.33798 20.0148 3.40486 19.3879L4.21695 12.3838C4.29338 12.4131 4.36981 12.4425 4.44624 12.4621C5.02904 12.6776 5.65005 12.7854 6.29972 12.7854C7.6946 12.7854 9.04172 12.2662 10.064 11.3356C11.1112 10.4031 11.7907 9.11085 11.9748 7.70128C11.9844 7.6523 11.9844 7.60332 11.9844 7.55434L12.1468 7.56414L17.9556 13.5299L18.204 17.8597C18.4429 20.2891 17.6212 21.1316 15.376 21.3961ZM21.1084 10.6126L19.1307 11.8959C18.7581 12.131 18.2804 12.082 17.9747 11.7588L13.7423 7.41916C13.5931 7.26585 13.4988 7.06544 13.4745 6.85033C13.4502 6.63523 13.4975 6.41802 13.6085 6.23384L14.8601 4.20608C15.6244 2.97178 17.1531 2.91301 18.29 4.05914L21.2613 7.10568C22.3027 8.19304 22.2358 9.87794 21.1084 10.6126Z" fill="#0066FF"/>
</svg>
