<svg width="21" height="21" viewBox="0 0 21 21" fill="none" xmlns="http://www.w3.org/2000/svg">
    <rect width="21" height="21" rx="6.05263" fill="white"/>
    <path d="M15.4693 15.3501H5.23975C5.13525 15.3501 5.03502 15.3916 4.96112 15.4655C4.88722 15.5394 4.8457 15.6396 4.8457 15.7441C4.8457 15.8487 4.88722 15.9489 4.96112 16.0228C5.03502 16.0967 5.13525 16.1382 5.23975 16.1382H15.4693C15.5738 16.1382 15.6741 16.0967 15.748 16.0228C15.8219 15.9489 15.8634 15.8487 15.8634 15.7441C15.8634 15.6396 15.8219 15.5394 15.748 15.4655C15.6741 15.3916 15.5738 15.3501 15.4693 15.3501Z" fill="#ACB1BF"/>
    <path d="M15.6638 5.33579C14.9203 4.59234 13.5937 4.70793 12.7057 5.59849L7.40443 10.8972C7.35515 10.9456 7.31976 11.0064 7.30198 11.0732L6.51387 14.0049C6.49715 14.0716 6.49804 14.1415 6.51645 14.2077C6.53486 14.2739 6.57017 14.3342 6.6189 14.3827C6.66764 14.4312 6.72814 14.4661 6.79446 14.4842C6.86079 14.5022 6.93066 14.5028 6.99724 14.4857L9.92636 13.6976C9.99321 13.6814 10.0542 13.6468 10.1024 13.5977L14.6602 9.03462L15.4037 8.29117C16.2075 7.52409 16.4702 6.12914 15.6638 5.33579Z" fill="#ACB1BF"/>
</svg>
