<svg width="203" height="41" viewBox="0 0 203 41" fill="none" xmlns="http://www.w3.org/2000/svg">
    <path d="M12.5332 17.0473V27.4771C12.5332 28.3403 12.6048 28.9157 12.748 29.2034C12.8196 29.3473 13.0344 29.4912 13.3924 29.5631C13.7504 29.707 14.4665 29.8508 15.5405 29.9227C16.6146 29.9947 18.1182 30.0666 19.9799 30.0666V30.4982H0.0742188V30.0666C1.64949 30.0666 2.93835 29.9947 3.94079 29.9227C4.94324 29.8508 5.65927 29.707 6.01729 29.5631C6.3753 29.4192 6.59011 29.2754 6.66171 29.2034C6.80492 28.9877 6.87652 28.4122 6.87652 27.4771V3.66836C6.87652 2.8052 6.80492 2.30169 6.66171 2.01398C6.59011 1.87012 6.4469 1.79819 6.08889 1.65433C5.22965 1.29468 3.15316 1.15082 0.0742188 1.15082V0.719238H17.975C21.6268 0.719238 24.4909 1.5824 26.639 3.23678C28.6439 4.81924 29.6463 6.9052 29.6463 9.49468C29.6463 11.221 28.8587 12.8754 27.355 14.314C25.4218 16.1122 22.844 16.9754 19.6219 16.9754H12.5332V17.0473ZM12.5332 16.6157H17.1874C19.7651 16.6157 21.5552 15.9684 22.5576 14.6017C23.4169 13.4508 23.8465 11.6526 23.8465 9.13503C23.8465 6.47362 23.2737 4.53152 22.128 3.16485C20.9824 1.79819 19.2639 1.15082 16.8294 1.15082H14.6097C13.9652 1.15082 13.464 1.22275 13.1776 1.29468C12.8912 1.36661 12.6764 1.5824 12.6048 1.87012C12.6048 2.15783 12.5332 2.73327 12.5332 3.66836V16.6157Z" fill="#687692"/>
    <path d="M34.8736 21.0033C34.8736 24.312 35.2316 26.7576 36.0192 28.1962C36.8069 29.7068 38.0241 30.4261 39.5994 30.4261C41.3179 30.4261 42.7499 29.8506 44.0388 28.6997C45.6141 27.3331 46.4017 25.391 46.4017 23.0173H46.7597C46.7597 25.319 46.0437 27.2611 44.54 28.6997C43.0364 30.2103 41.1031 30.9296 38.6686 30.9296C36.5921 30.9296 34.7304 30.1383 33.0835 28.5559C31.0786 26.6857 30.0762 24.312 30.0762 21.291C30.0762 18.0541 31.0786 15.3927 33.0119 13.3787C34.7304 11.6524 36.6637 10.7173 38.8118 10.7173C40.8167 10.7173 42.4635 11.2927 43.7524 12.4436C45.6857 14.1699 46.6881 16.9752 46.6881 20.9313H34.8736V21.0033ZM42.7499 20.4997C42.7499 17.4787 42.4635 15.2489 41.9623 13.6664C41.4611 12.084 40.6018 11.2927 39.3846 11.2927C37.7377 11.2927 36.5205 12.012 35.876 13.5225C35.16 15.0331 34.8736 17.3348 34.8736 20.4997H42.7499Z" fill="#687692"/>
    <path d="M56.569 19.205V28.3401C56.569 28.9875 56.6406 29.3471 56.7122 29.5629C56.7838 29.6348 56.927 29.7787 57.1418 29.8506C57.3566 29.9225 57.7862 29.9945 58.3591 30.0664C58.9319 30.1383 59.5047 30.1383 59.9343 30.1383V30.5699H48.1914V30.1383C48.8358 30.1383 49.5519 30.1383 50.1963 30.0664C50.8407 29.9945 51.4136 29.8506 51.9864 29.7068C52.2012 29.5629 52.2728 29.1313 52.2728 28.3401V14.2418C52.2728 13.9541 52.2728 13.6664 52.2728 13.3787C52.2728 13.091 52.2012 12.8752 52.058 12.7313L51.7716 12.2997C51.4852 12.084 50.2679 11.9401 48.263 11.9401V11.5085L56.569 10.7892V16.6875C56.7838 15.3927 57.1418 14.1699 57.7862 13.1629C58.6455 11.7243 59.5763 11.005 60.5072 10.8611C61.438 10.7892 62.0824 10.7173 62.3688 10.7173C64.3021 10.7173 65.8058 11.2927 66.9515 12.5155C67.8823 13.5225 68.3835 14.6734 68.3835 16.0401V28.3401C68.3835 28.9875 68.4551 29.3471 68.5267 29.5629C68.5983 29.6348 68.7415 29.7787 68.9563 29.8506C69.1711 29.9225 69.6724 29.9945 70.3168 30.0664C70.9612 30.1383 71.6057 30.1383 72.1785 30.1383V30.5699H60.364V30.1383C60.8652 30.1383 61.438 30.1383 62.0824 30.0664C62.7269 29.9945 63.2997 29.8506 63.8009 29.7068C64.0157 29.5629 64.0873 29.1313 64.0873 28.3401V16.5436C64.0873 15.0331 63.9441 13.9541 63.7293 13.1629C63.2997 11.8682 62.5837 11.2208 61.5096 11.2208C60.0775 11.2208 58.9319 12.084 58.0727 13.8822C57.3566 15.2489 56.8554 17.0471 56.569 19.205Z" fill="#687692"/>
    <path d="M86.1412 20.7159V22.8737C86.1412 23.593 86.1412 24.2404 86.2128 24.8878C86.2128 27.0457 85.998 28.5562 85.4968 29.3474C84.8524 30.4264 83.4919 31.0018 81.5586 31.0018C79.6969 31.0018 78.3365 30.5702 77.4772 29.6352C76.618 28.772 76.1884 27.4773 76.1884 25.8229V12.6597H72.5366V12.2281C75.0427 11.5808 76.976 10.1422 78.2649 7.84041C79.2673 5.97024 79.8402 3.88427 79.8402 1.58252H80.6278V11.365H85.9264V12.7316H80.6278V25.3194C80.6278 26.9737 80.6994 28.0527 80.8426 28.5562C81.129 29.7071 81.845 30.2825 82.8475 30.2825C84.0647 30.2825 84.924 29.6351 85.282 28.2685C85.5684 27.3334 85.7116 25.6071 85.7116 23.0176V20.7878H86.1412V20.7159Z" fill="#687692"/>
    <path d="M99.173 17.1194V14.386C99.173 13.1632 98.9582 12.3001 98.6002 11.8685C98.2422 11.4369 97.383 11.2211 96.0941 11.2211C95.02 11.2211 94.0892 11.4369 93.3016 11.8685C92.5139 12.3001 92.0127 12.8036 91.7263 13.5229C91.8695 13.5229 92.0127 13.451 92.1559 13.451C92.7287 13.451 93.23 13.6667 93.588 14.1703C93.946 14.6018 94.1608 15.1773 94.1608 15.7527C94.1608 16.4001 93.946 16.9755 93.4448 17.4071C93.0151 17.8387 92.4423 18.0545 91.7979 18.0545C91.3683 18.0545 91.0103 17.9106 90.7239 17.7667C89.793 17.1913 89.3634 16.472 89.3634 15.5369C89.3634 15.1053 89.435 14.6018 89.6498 14.0264C90.0794 12.8036 91.1535 11.9404 92.872 11.365C94.0892 10.9334 95.3781 10.7896 96.5953 10.7896C98.8866 10.7896 100.605 11.2211 101.751 12.0843C102.825 12.8755 103.326 13.8106 103.326 14.9615V25.1755C103.326 27.0457 103.398 28.1966 103.469 28.6281C103.684 29.7071 104.257 30.2106 105.116 30.2106C105.904 30.2106 106.477 29.779 106.763 28.9878C107.049 28.1246 107.193 26.9738 107.193 25.3913C107.193 24.9597 107.193 24.5281 107.193 24.0966C107.193 23.665 107.193 23.2334 107.193 22.7299V22.2983H107.765V24.3124C107.765 24.9597 107.765 25.6071 107.837 26.1825C107.837 27.9808 107.622 29.2036 107.193 29.779C106.62 30.5703 105.474 30.9299 103.827 30.9299C102.467 30.9299 101.536 30.7141 100.892 30.2106C100.104 29.6352 99.6026 28.7001 99.3878 27.4053C98.7434 28.9159 97.741 29.9229 96.4521 30.4264C95.6645 30.7141 94.662 30.858 93.3732 30.858C92.0843 30.858 90.9387 30.5703 90.0078 29.9229C88.719 29.0597 88.0029 27.8369 88.0029 26.1106C88.0029 24.4562 88.6474 23.0176 89.9362 21.8667C91.2251 20.7878 92.8003 20.1404 94.5904 19.9966C96.4521 19.8527 97.6694 19.565 98.3138 19.2773C98.8866 19.0615 99.173 18.2703 99.173 17.1194ZM99.1014 25.5352V19.3492C98.7434 19.8527 98.1706 20.1404 97.4546 20.2843C96.7385 20.4281 96.0225 20.5001 95.3781 20.572C94.5188 20.7878 93.8028 21.2913 93.23 22.0825C92.5855 23.0176 92.2991 24.3124 92.2991 25.9667C92.2991 27.765 92.4423 28.9878 92.8003 29.6352C93.1584 30.2825 93.7312 30.5703 94.4472 30.5703C95.5929 30.5703 96.6669 30.0667 97.5978 29.1317C98.6002 28.0527 99.1014 26.9018 99.1014 25.5352Z" fill="#687692"/>
    <path d="M112.992 22.7299C111.99 22.2264 111.274 21.579 110.701 20.7878C110.128 19.9965 109.842 18.9895 109.842 17.8386C109.842 15.8965 110.701 14.1702 112.491 12.8035C114.138 11.5088 115.928 10.9334 117.861 10.9334C118.434 10.9334 119.079 11.0053 119.723 11.1492C120.368 11.293 120.94 11.5088 121.513 11.7246V10.6457C121.513 9.20706 121.8 8.27197 122.301 7.76846C122.802 7.33688 123.59 7.12109 124.592 7.12109C125.022 7.12109 125.451 7.26495 125.809 7.6246C126.167 7.91232 126.311 8.3439 126.311 8.84741C126.311 9.92636 125.809 10.5018 124.807 10.5018C123.733 10.5018 123.232 9.99829 123.232 8.99127C123.232 8.77548 123.232 8.63162 123.303 8.48776C123.375 8.3439 123.446 8.20004 123.518 7.98425C122.874 8.05618 122.516 8.3439 122.301 8.77548C122.086 9.20706 122.014 9.85443 122.014 10.5737C122.014 11.2211 122.086 11.7246 122.086 12.0123C123.303 12.5878 124.234 13.379 124.95 14.3141C125.666 15.2492 125.953 16.4 125.953 17.6228C125.953 19.493 125.093 21.0755 123.303 22.2264C121.728 23.3053 119.938 23.8807 117.933 23.8807C116.501 23.8807 115.212 23.665 113.923 23.1614C112.849 23.1614 111.99 23.3053 111.345 23.665C110.486 24.0965 110.057 24.8878 110.057 25.9667C110.057 26.3983 110.415 26.7579 111.202 27.0457C111.918 27.3334 113.35 27.4772 115.498 27.4772H118.148C120.869 27.4772 122.945 27.8369 124.377 28.5562C126.167 29.4913 127.027 31.0018 127.027 33.1597C127.027 35.4614 126.239 37.1878 124.592 38.4106C122.945 39.6334 120.869 40.2807 118.291 40.2807C115.212 40.2807 112.706 39.7772 110.844 38.6983C108.983 37.6913 108.052 36.4685 108.052 35.1737C108.052 34.3106 108.553 33.5913 109.555 33.0158C110.271 32.5843 111.346 32.2246 112.849 31.793C111.489 31.2895 110.486 30.786 109.842 30.2106C108.983 29.4193 108.481 28.4123 108.481 27.1895C108.481 25.8948 108.839 24.8158 109.627 24.0246C110.486 23.0895 111.56 22.7299 112.992 22.7299ZM118.506 39.8492C120.582 39.8492 122.158 39.4176 123.303 38.5544C124.449 37.6913 125.022 36.6123 125.022 35.3895C125.022 33.879 124.52 32.872 123.59 32.3685C122.659 31.865 120.94 31.5772 118.434 31.5772C115.57 31.5772 113.565 31.9369 112.491 32.5843C111.632 33.1597 111.131 34.0948 111.131 35.4614C111.131 36.7562 111.489 37.7632 112.205 38.4106C113.422 39.3457 115.498 39.8492 118.506 39.8492ZM121.8 17.4071C121.8 15.465 121.513 13.9544 121.012 13.0193C120.439 11.8685 119.365 11.293 117.861 11.293C116.501 11.293 115.498 11.8685 114.854 12.9474C114.21 14.0264 113.923 15.5369 113.923 17.4071C113.923 19.565 114.21 21.1474 114.711 22.0825C115.212 23.0176 116.286 23.4492 117.861 23.4492C119.293 23.4492 120.224 22.9457 120.869 22.0106C121.513 21.0036 121.8 19.493 121.8 17.4071Z" fill="#687692"/>
    <path d="M133.185 13.8825C133.185 13.2352 133.113 12.8755 132.97 12.7317C132.755 12.4439 132.54 12.2281 132.397 12.1562C131.824 12.0124 130.607 11.9404 128.602 11.9404V11.5088L137.481 10.7896V16.6878C137.624 15.3931 138.054 14.2422 138.77 13.0913C139.772 11.5808 141.061 10.7896 142.565 10.7896C143.138 10.7896 143.782 11.0053 144.426 11.365C145.071 11.7246 145.572 12.2281 145.787 12.8036C146.002 13.379 146.145 13.8825 146.145 14.386C146.145 15.6088 145.644 16.472 144.641 16.9036C144.426 17.0474 144.068 17.1194 143.639 17.1194C142.994 17.1194 142.493 16.9036 142.063 16.472C141.634 16.0404 141.419 15.3931 141.419 14.5299C141.419 13.9545 141.634 13.451 142.063 12.8755C142.493 12.3001 142.994 12.0843 143.496 12.2281C143.281 11.5808 142.779 11.2211 141.849 11.2211C140.989 11.2211 140.059 11.8685 139.199 13.1632C138.054 14.8176 137.481 16.9755 137.481 19.6369V28.2685C137.481 28.9159 137.552 29.2755 137.624 29.4913C137.696 29.5632 137.839 29.7071 138.054 29.779C138.698 29.9948 140.059 30.1387 142.063 30.1387V30.5703H128.602V30.1387C129.461 30.1387 130.321 30.1387 131.037 30.0667C131.753 29.9948 132.397 29.851 132.898 29.7071C133.113 29.5632 133.185 29.1317 133.185 28.3404V13.8825Z" fill="#687692"/>
    <path d="M158.675 17.1194V14.386C158.675 13.1632 158.461 12.3001 158.103 11.8685C157.745 11.4369 156.885 11.2211 155.597 11.2211C154.522 11.2211 153.592 11.4369 152.804 11.8685C152.016 12.3001 151.515 12.8036 151.229 13.5229C151.372 13.5229 151.515 13.451 151.658 13.451C152.231 13.451 152.732 13.6667 153.09 14.1703C153.448 14.6018 153.663 15.1773 153.663 15.7527C153.663 16.4001 153.448 16.9755 152.947 17.4071C152.518 17.8387 151.945 18.0545 151.3 18.0545C150.871 18.0545 150.513 17.9106 150.226 17.7667C149.295 17.1913 148.866 16.472 148.866 15.5369C148.866 15.1053 148.937 14.6018 149.152 14.0264C149.582 12.8036 150.656 11.9404 152.374 11.365C153.592 10.9334 154.881 10.7896 156.098 10.7896C158.389 10.7896 160.108 11.2211 161.253 12.0843C162.327 12.8755 162.828 13.8106 162.828 14.9615V25.1755C162.828 27.0457 162.9 28.1966 162.972 28.6281C163.186 29.7071 163.759 30.2106 164.619 30.2106C165.406 30.2106 165.979 29.779 166.265 28.9878C166.552 28.1246 166.695 26.9738 166.695 25.3913C166.695 24.9597 166.695 24.5281 166.695 24.0966C166.695 23.665 166.695 23.2334 166.695 22.7299V22.2983H167.268V24.3124C167.268 24.9597 167.268 25.6071 167.339 26.1825C167.339 27.9808 167.125 29.2036 166.695 29.779C166.122 30.5703 164.977 30.9299 163.33 30.9299C161.969 30.9299 161.038 30.7141 160.394 30.2106C159.606 29.6352 159.105 28.7001 158.89 27.4053C158.246 28.9159 157.243 29.9229 155.955 30.4264C155.167 30.7141 154.164 30.858 152.876 30.858C151.587 30.858 150.441 30.5703 149.51 29.9229C148.221 29.0597 147.505 27.8369 147.505 26.1106C147.505 24.4562 148.15 23.0176 149.439 21.8667C150.728 20.7878 152.303 20.1404 154.093 19.9966C155.955 19.8527 157.172 19.565 157.816 19.2773C158.389 19.0615 158.675 18.2703 158.675 17.1194ZM158.532 25.5352V19.3492C158.174 19.8527 157.601 20.1404 156.885 20.2843C156.169 20.4281 155.453 20.5001 154.809 20.572C153.95 20.7878 153.234 21.2913 152.661 22.0825C152.016 23.0176 151.73 24.3124 151.73 25.9667C151.73 27.765 151.873 28.9878 152.231 29.6352C152.589 30.2825 153.162 30.5703 153.878 30.5703C155.024 30.5703 156.098 30.0667 157.029 29.1317C158.103 28.0527 158.532 26.9018 158.532 25.5352Z" fill="#687692"/>
    <path d="M187.675 16.3999C187.89 14.9613 188.248 13.8823 188.749 13.0192C189.536 11.7245 190.539 10.9332 191.899 10.7894C192.114 10.7894 192.329 10.7894 192.615 10.7174C192.902 10.7174 193.045 10.6455 193.188 10.6455C195.05 10.6455 196.625 11.2209 197.699 12.4438C198.63 13.4508 199.131 14.6016 199.131 15.9683V28.2683C199.131 28.8438 199.203 29.2753 199.274 29.4192C199.346 29.5631 199.489 29.635 199.704 29.7788C199.919 29.8508 200.349 29.9227 200.921 29.9946C201.494 30.0666 201.995 30.0666 202.425 30.0666V30.4981H191.541V30.0666C192.257 30.0666 192.83 30.0666 193.26 29.9946C193.689 29.9227 194.119 29.7788 194.549 29.5631C194.763 29.4192 194.835 28.9876 194.835 28.2683V16.5438C194.835 15.1052 194.692 13.9543 194.477 13.1631C194.047 11.8683 193.331 11.2209 192.329 11.2209C191.255 11.2209 190.324 11.7245 189.608 12.7315C188.82 13.8824 188.176 15.9683 187.746 18.9894V28.2683C187.746 28.9157 187.818 29.2753 187.89 29.4911C187.961 29.5631 188.104 29.635 188.319 29.7788C188.534 29.8508 188.892 29.9227 189.465 29.9946C190.038 30.0666 190.539 30.1385 191.04 30.1385V30.5701H180.085V30.1385C181.23 30.1385 182.161 30.0666 182.806 29.7788L183.164 29.635C183.379 29.4911 183.45 29.0595 183.45 28.2683V16.5438C183.45 15.0332 183.307 13.9543 183.092 13.1631C182.663 11.8683 181.947 11.2209 180.872 11.2209C179.512 11.2209 178.438 12.0841 177.65 13.8823C177.149 15.1052 176.719 16.9034 176.433 19.2052V28.3402C176.433 28.9876 176.505 29.3473 176.576 29.5631C176.648 29.635 176.791 29.7788 177.006 29.8508C177.221 29.9227 177.65 29.9946 178.223 30.0666C178.796 30.1385 179.297 30.1385 179.727 30.1385V30.5701H167.984V30.1385C168.628 30.1385 169.273 30.1385 169.917 30.0666C170.562 29.9946 171.134 29.8508 171.707 29.7069C171.922 29.5631 171.994 29.1315 171.994 28.3402V14.3139C171.994 14.0262 171.994 13.7385 171.994 13.4508C171.994 13.1631 171.922 12.9473 171.779 12.8034C171.564 12.5157 171.349 12.2999 171.206 12.228C170.776 12.0841 169.702 12.0122 168.055 12.0122V11.5806L176.361 10.7894V16.6876C176.576 15.1771 176.934 14.0262 177.364 13.1631C178.08 11.7245 179.154 10.9332 180.514 10.7894C180.801 10.7894 181.087 10.7174 181.302 10.7174C181.517 10.7174 181.732 10.7174 181.803 10.7174C183.808 10.7174 185.24 11.2929 186.314 12.3718C187.174 13.4508 187.675 14.7455 187.675 16.3999Z" fill="#687692"/>
</svg>
