<svg width="4.8rem" height="4.8rem" viewBox="0 0 36 36" fill="none" xmlns="http://www.w3.org/2000/svg">
    <rect width="36" height="36" rx="7.95455" fill="#0066FF"/>
    <path d="M20.8951 11.2046L13.7121 13.591C8.88372 15.2057 8.88372 17.8387 13.7121 19.4455L15.8439 20.1535L16.5519 22.2853C18.1587 27.1137 20.7996 27.1137 22.4064 22.2853L24.8008 15.1103C25.8667 11.8887 24.1167 10.1307 20.8951 11.2046ZM21.1496 15.4842L18.1269 18.5228C18.0076 18.6421 17.8564 18.6978 17.7053 18.6978C17.5542 18.6978 17.403 18.6421 17.2837 18.5228C17.1728 18.4105 17.1105 18.259 17.1105 18.1012C17.1105 17.9434 17.1728 17.7919 17.2837 17.6796L20.3064 14.641C20.5371 14.4103 20.9189 14.4103 21.1496 14.641C21.3803 14.8717 21.3803 15.2535 21.1496 15.4842Z" fill="#EDF3FE"/>
</svg>
