<svg width="56" height="47" viewBox="0 0 56 47" fill="none" xmlns="http://www.w3.org/2000/svg">
    <g clip-path="url(#clip0_323_1936)">
        <path d="M14.1108 11.4355C14.0913 11.4421 14.0739 11.4539 14.0605 11.4695C14.0471 11.4852 14.0382 11.5042 14.0347 11.5245L14.1108 11.4355C14.1108 11.4355 14.1108 11.4355 14.0347 11.4355H14.1108Z" fill="#2079FF"/>
        <path d="M12.3721 9.26279L12.4355 9.14844C12.407 9.18194 12.3854 9.22082 12.3721 9.26279Z" fill="#2079FF"/>
        <path d="M12.9942 10.1647V10.0122C12.9688 10.1647 12.9942 10.1647 12.9942 10.1647Z" fill="#2079FF"/>
        <path d="M13.6664 10.4951L13.5142 10.8001L13.603 10.6603L13.6664 10.4951Z" fill="#2079FF"/>
        <path d="M4.33984 6.89941L4.35231 6.91185L4.33984 6.89941Z" fill="#2079FF"/>
        <path d="M10.1516 6.35303C9.91047 6.93751 9.75819 7.07728 9.50439 7.72529C9.64398 7.49658 10.0374 6.75962 10.1516 6.35303Z" fill="#2079FF"/>
        <path d="M12.0042 8.53865V8.44971C11.9967 8.47888 11.9967 8.50948 12.0042 8.53865Z" fill="#2079FF"/>
        <path d="M4.88544 8.61497L4.99965 8.34814C4.91082 8.55144 4.86006 8.57686 4.88544 8.61497Z" fill="#2079FF"/>
        <path d="M9.12358 12.8712V12.7695C9.12358 12.7695 9.0982 12.8712 9.12358 12.8712Z" fill="#2079FF"/>
        <path d="M8.94629 12.8461L9.11126 12.4014L9.03512 12.5665L8.94629 12.8461Z" fill="#2079FF"/>
        <path d="M4.5936 8.53833C4.5936 8.61457 4.73318 8.28421 4.80932 8.13173C4.88546 7.97926 4.72049 8.38585 4.65704 8.56374C4.65704 8.56374 4.86008 8.2715 4.86008 8.30962C4.84176 8.35745 4.82058 8.40412 4.79663 8.44939C4.93622 8.22068 4.79663 8.56374 5.03774 8.24609V8.34774L5.26615 7.82679C5.26615 7.82679 5.2027 7.90302 5.16464 7.97926V7.89032C5.01236 8.25879 5.0885 7.99196 4.97429 8.24609C5.05043 8.24609 5.22808 7.90302 5.19002 8.03008C5.02505 8.41127 5.0885 8.03008 4.9616 8.46209V8.2715C4.82201 8.8941 5.07581 8.24609 4.80932 8.8941C4.80932 9.0974 4.92353 8.80516 4.89815 8.99575L5.15195 8.4748C5.40574 8.14444 4.73318 9.55482 5.01236 9.08469C5.15195 8.83057 5.40574 8.29691 5.30422 8.61457L5.07581 9.07199C5.07581 9.18634 5.41843 8.39856 5.30422 8.79245C5.2027 8.98304 5.2027 8.90681 5.17733 8.98304C5.02505 9.41505 5.3296 8.72892 5.34229 8.75433L5.13926 9.19905C5.21539 9.19905 5.41843 8.93222 5.50726 8.90681C5.42532 9.04995 5.35324 9.19854 5.29153 9.35152C5.46919 9.19905 5.39305 9.59294 5.29153 10.0122L5.53264 9.58023C5.49547 9.68592 5.44874 9.78799 5.39305 9.88518C5.39305 10.0885 5.53264 9.59294 5.63416 9.42776C5.58302 9.57281 5.51932 9.71311 5.44381 9.84706C5.67223 9.504 5.97678 9.0974 5.77374 9.66918L5.69761 9.80894C5.63416 10.0504 6.2052 8.83057 6.02754 9.32611V9.41505C6.02754 9.72 6.31941 9.3134 6.02754 10.1901C6.40823 9.41505 5.93871 10.6221 6.45899 9.52941C6.28822 9.94328 6.14411 10.3677 6.02754 10.8C6.02754 10.8 6.37016 10.1139 6.4463 10.0122L6.16713 10.6094L6.34478 9.97412L6.01485 10.7111L6.11637 10.5713C6.17878 10.4285 6.2553 10.2923 6.34478 10.1647C6.49706 9.91059 6.21789 10.6475 6.0783 10.9652L6.34478 10.4697C6.26916 10.6311 6.18442 10.788 6.09099 10.9398C6.43361 10.3426 5.79912 11.6005 6.09099 11.0541L6.34478 10.5586C6.19251 10.9525 6.23058 11.0033 6.34478 10.8763L6.14175 11.2956C6.14175 11.4734 6.34478 11.2066 6.39554 11.2956C6.54113 10.9064 6.71502 10.5284 6.91582 10.1647L6.61127 10.8508C6.81431 10.4315 6.71279 10.584 6.97927 10.0758C6.84525 10.4205 6.6884 10.7558 6.50975 11.0796L6.64934 10.8763L6.34478 11.4989C6.56051 11.0669 6.06561 12.2358 6.43361 11.4989L6.34478 11.7149C6.34478 11.7149 6.53513 11.5497 6.59858 11.5624C6.89045 10.9525 6.83969 11.105 7.09348 10.6221C7.09348 10.8381 6.85238 11.3591 6.92851 11.3464C7.10617 11.0541 7.18231 10.8254 7.35997 10.4697C7.2546 10.7979 7.13176 11.1202 6.99196 11.4353C7.09348 11.4353 7.10617 11.4353 7.39804 10.9652C7.45938 10.7666 7.53139 10.5715 7.61376 10.3807C7.56228 10.5662 7.4899 10.7452 7.39804 10.9144V10.9779C7.88025 10.152 6.80162 12.7822 7.39804 11.6132L7.75335 11.016C7.75335 11.1304 7.53762 11.448 7.38535 11.8165C7.91832 10.889 7.38535 12.0325 7.80411 11.4099C7.04272 13.1761 8.03253 11.4099 7.58838 12.5153L7.76604 12.1088C7.96908 11.7149 7.67721 12.3502 7.65183 12.4518C7.79142 12.1342 7.80411 12.0706 7.91832 11.8546C8.28632 11.4353 7.91832 12.6043 7.91832 13.0236C7.91832 13.1507 8.92081 10.9271 8.54012 11.9309L8.1848 12.7059C8.71777 11.8419 8.41322 12.8203 8.88274 12.096C8.82328 12.2273 8.75546 12.3547 8.6797 12.4772C8.45129 13.0236 8.75584 12.4772 8.95888 12.096C8.95888 12.096 8.78122 12.4899 8.69239 12.7186C8.60357 12.9474 9.07309 12.0452 8.83198 12.5789C8.79965 12.6538 8.76146 12.726 8.71777 12.7949C8.85736 12.5408 8.71777 12.8838 9.03502 12.2612C8.94619 12.5662 9.25074 12.0071 9.11116 12.3756C9.45378 11.7022 9.03502 12.7314 9.49185 11.7657C9.03502 12.7568 9.19999 12.5789 9.49185 12.1215C9.35226 12.4264 9.37764 12.4391 9.17461 12.8457C9.17461 12.8457 9.32688 12.6678 9.5553 12.1596C9.07309 13.3412 10.1136 11.2447 9.45378 12.7441C9.66241 12.3893 9.89563 12.0496 10.1517 11.7276C9.70758 12.6678 10.0121 11.8038 9.5553 12.7949C9.82178 12.4137 10.2405 11.6259 10.2152 11.8673C10.1373 12.0568 10.0439 12.2396 9.93599 12.4137C10.2025 12.0452 10.0629 12.5153 10.3674 12.0325C10.3304 12.1157 10.288 12.1963 10.2405 12.2739C10.2405 12.2739 10.2405 12.4137 10.4055 12.0071L10.3421 12.1088C10.5832 11.5116 10.9639 10.9017 11.1035 10.5967C10.5451 11.7403 11.1035 10.9017 10.3294 12.3375C10.4324 12.1715 10.5216 11.9972 10.5959 11.8165C10.5327 12.0017 10.452 12.1804 10.3548 12.3502C10.507 12.1342 10.6847 11.7149 10.7354 11.7276L10.4943 12.2104C10.6847 11.8419 10.8877 11.4734 10.8497 11.6386C10.8148 11.7309 10.7723 11.8202 10.7228 11.9055C10.8243 11.9055 11.2811 10.9525 11.205 11.321C11.051 11.6216 10.9154 11.9314 10.7989 12.2485L10.9385 12.0579L11.0654 11.7276C11.0654 11.7276 11.4207 11.2701 11.3192 11.4353L11.1669 11.7022L11.2938 11.5878L11.4207 11.4353C11.611 11.105 11.8014 10.6094 11.7633 10.8C11.7317 10.9387 11.6893 11.0746 11.6364 11.2066C11.7506 11.0033 11.8648 10.8 11.8141 10.9652L11.4207 11.753C11.6872 11.232 11.573 11.6132 11.8521 11.0668L11.611 11.5878L11.8141 11.1685C11.7618 11.3295 11.6982 11.4866 11.6237 11.6386C11.6237 11.7149 11.9664 10.8508 11.8648 11.1939L11.7887 11.3591C11.7887 11.537 12.0171 11.1304 11.979 11.3591C11.7253 11.9436 11.8648 11.4989 11.6491 11.9944C11.7887 11.88 12.144 11.3083 12.1567 11.4607V11.4353C12.5247 10.673 12.0425 11.8292 12.2455 11.4353C12.185 11.5426 12.1299 11.6528 12.0806 11.7657C12.0806 11.88 12.2836 11.5751 12.4613 11.3718L12.3597 11.5497C12.3597 11.7149 12.3597 11.6513 12.3597 11.7276C12.4334 11.6059 12.4971 11.4784 12.5501 11.3464C12.2328 12.2866 12.9688 10.9017 12.7277 11.6386C12.7277 11.6386 12.6389 11.7657 12.6516 11.7657L12.7912 11.6259C12.8437 11.52 12.8862 11.4094 12.9181 11.2956C12.9942 11.1558 13.0704 11.0541 13.0831 11.0668C12.9872 11.2205 12.9145 11.3875 12.8673 11.5624L12.9689 11.3464C12.8293 11.753 13.1846 10.889 13.1084 11.1812V11.2956C13.1084 11.2956 13.248 11.0923 13.248 11.1304C13.1465 11.3845 13.1719 11.2447 13.0831 11.448C13.0831 11.448 13.3495 11.0033 13.2607 11.2447C13.2308 11.2901 13.1968 11.3326 13.1592 11.3718C13.0704 11.6513 13.1592 11.5751 13.1592 11.6132V11.7276V11.664C13.4511 11.105 13.2861 11.5497 13.5018 11.232C13.4091 11.3488 13.3402 11.4826 13.2988 11.6259C13.3045 11.6893 13.3045 11.7531 13.2988 11.8165C13.4003 11.6386 13.2988 11.9309 13.4384 11.6895C13.4384 11.753 13.4384 11.6895 13.4384 11.8419C13.4384 11.8419 13.4384 11.7403 13.5145 11.664C13.5906 11.5878 13.5145 11.8673 13.7429 11.664C13.9713 11.4607 13.9333 11.4226 14.0094 11.3845C13.9935 11.4357 13.9676 11.4832 13.9333 11.5243C13.9333 11.5878 13.9333 11.5243 14.0094 11.5243C14.0019 11.5534 14.0019 11.584 14.0094 11.6132C14.0094 11.6132 13.8825 11.4353 13.9587 11.4353L13.8825 11.5497C13.9068 11.5312 13.9323 11.5142 13.9587 11.4989L13.8825 11.5878C13.8825 11.5878 14.0094 11.5878 14.0348 11.4862V11.4353C14.0348 11.2956 13.946 11.4353 13.8952 11.4353L13.9713 11.3083L13.8444 11.4353C13.8444 11.4353 13.8444 11.2956 13.9206 11.2956C13.9967 11.2956 13.9206 11.2956 13.9206 11.232C13.9206 11.232 13.9206 11.1177 13.9206 11.1558C13.9206 11.1939 13.7937 11.232 13.8444 11.0796C13.7556 11.0796 13.7683 11.2193 13.6414 11.3845L13.7937 10.9525L13.7049 11.1177C13.7006 11.0839 13.7006 11.0498 13.7049 11.016C13.6287 11.1304 13.7049 11.105 13.616 11.2066C13.616 11.016 13.4891 11.2066 13.616 10.9271C13.5272 11.0669 13.616 11.0541 13.5018 11.1431C13.6668 10.7873 13.4384 11.1431 13.5018 11.0033C13.5653 10.8636 13.578 10.9398 13.6287 10.7492C13.4638 11.0668 13.6287 10.6221 13.6287 10.6603C13.4891 10.9398 13.5272 10.7365 13.4384 10.8C13.455 10.6692 13.455 10.5369 13.4384 10.4061C13.2734 10.7492 13.2734 10.6603 13.21 10.7111C13.2686 10.5753 13.3364 10.4437 13.413 10.3172C13.3799 10.3933 13.3325 10.4623 13.2734 10.5205L13.4511 10.1647C13.4511 10.1647 13.2353 10.4315 13.2988 10.1647C13.1606 10.5097 12.9996 10.8451 12.8166 11.1685C12.8927 11.016 13.0069 10.7365 13.0577 10.673C12.9815 10.8 13.1084 10.6094 13.0577 10.673L13.1973 10.4188C13.1973 10.2918 13.0831 10.6348 13.0831 10.6094L13.2353 10.2537C13.2622 10.1179 13.3048 9.98567 13.3622 9.85977C13.3157 9.97629 13.2561 10.0871 13.1846 10.1901C13.1846 10.1901 13.3115 9.89789 13.3495 9.75812C13.2607 9.91059 13.3495 9.75812 13.1592 10.0885C13.1838 9.98632 13.2222 9.888 13.2734 9.79624C13.1846 9.94871 13.1846 9.79624 13.0069 10.1901C12.7658 10.5459 13.0069 9.88518 12.8673 10.0122L12.9308 9.87247C12.8166 9.99953 12.8166 9.87247 12.6516 10.1901C12.7 10.0378 12.7594 9.88915 12.8293 9.74541C12.7531 9.83435 12.677 9.99953 12.7531 9.74541C12.8293 9.49129 12.8546 9.504 12.8673 9.58023C12.8673 9.41505 13.0069 9.16093 12.7785 9.58023C12.9688 9.21175 12.9942 9.05928 12.9181 9.16093L12.8166 9.47858L12.9689 8.8941C13.2226 8.16985 12.3471 9.91059 12.8166 8.74163C12.6262 9.12281 12.7277 9.05928 12.4993 9.49129C12.597 9.17209 12.7114 8.85824 12.842 8.55104C12.9562 8.18256 12.4232 9.33882 12.4739 9.08469C12.3447 9.40883 12.1921 9.72308 12.0171 10.0249C12.1409 9.66173 12.2937 9.30906 12.4739 8.97034C12.4739 8.97034 12.4739 9.03387 12.4739 9.0974C12.5592 8.99661 12.6316 8.88565 12.6897 8.76704L12.5882 8.97034C12.6046 8.77705 12.6385 8.58567 12.6897 8.39856C12.6069 8.55311 12.5511 8.72071 12.5247 8.8941C12.6262 8.55104 12.5247 8.8941 12.5247 8.57645L12.3724 8.8941C12.4359 8.56374 12.1567 9.27528 12.0679 9.33882C12.2075 8.98304 12.4486 8.55104 12.2836 8.79245C12.3845 8.53049 12.5032 8.27577 12.6389 8.03008C12.4105 8.42397 12.7151 7.67431 12.7404 7.57266L12.8293 7.42019C12.8293 7.49643 12.8293 7.50913 12.8293 7.42019L12.6262 7.87761C12.6372 7.79068 12.6585 7.70538 12.6897 7.62349C12.5501 7.91573 12.347 8.38586 12.144 8.77975C12.2328 8.52562 11.979 8.98304 12.2582 8.37315C12.2582 8.62727 12.5374 7.75055 12.6262 7.69972L12.6897 7.54725C12.9054 6.95006 12.3597 8.22068 12.3217 8.15715C12.4075 7.98521 12.4796 7.80677 12.5374 7.62349C12.4198 7.91132 12.2842 8.19142 12.1313 8.46209C12.2328 8.16985 12.0044 8.63998 12.0044 8.60186V8.74163C11.8268 9.08469 11.8395 9.03387 11.7633 9.12281C11.8902 8.85598 11.8775 8.95763 11.9156 8.83057C11.611 9.42776 12.1694 8.13173 11.9156 8.53833L12.2836 7.62349C12.0298 8.0682 12.4739 7.10254 12.2836 7.4456C12.1687 7.7346 12.033 8.01488 11.8775 8.28421L12.0933 7.99197L11.7253 8.66539C11.7253 8.66539 11.9156 8.39856 11.8775 8.4875C11.7566 8.70449 11.6506 8.92949 11.5603 9.16093C11.8775 8.41127 11.3065 9.55482 11.5603 9.03387L12.1186 7.76325C12.3344 7.17877 11.7506 8.32232 11.8395 7.96655L11.7633 8.20797C11.5222 8.6908 11.6872 8.20797 11.573 8.43668C11.776 8.01738 11.8268 7.8522 11.941 7.58537C11.7515 7.84577 11.5777 8.11732 11.4207 8.39856L11.6491 7.82679C11.7126 7.55996 11.04 8.99575 11.0527 8.81786C11.2811 8.37315 11.408 8.0555 11.5857 7.73784C11.5857 7.73784 11.5857 7.63619 11.4588 7.92843C11.573 7.66161 11.1415 8.4748 11.3192 8.0682C11.2307 8.26957 11.129 8.46482 11.0146 8.65268L11.1161 8.43668C11.0146 8.65268 10.9512 8.71621 10.7481 9.19905C11.3192 7.81408 10.5578 9.19905 11.0527 8.03008C10.9857 8.13076 10.8994 8.21713 10.7989 8.28421C10.8623 8.14444 10.9004 8.0555 10.8877 8.10632C11.0273 7.67431 10.2659 9.37693 10.4309 8.88139C10.5206 8.6538 10.6266 8.43298 10.7481 8.22068C11.4207 6.75947 10.5959 8.38586 10.9639 7.50913V7.43289C11.1796 6.91194 10.6466 7.95385 10.6466 7.82679L10.8243 7.62349C10.6353 8.02033 10.4101 8.39888 10.1517 8.75433C10.4309 8.16985 10.3167 8.44939 10.5832 7.8522C10.5197 7.92843 10.1517 8.80516 10.0375 8.95763C10.1644 8.62727 10.2659 8.33503 10.5578 7.68702C10.9258 6.86112 10.5578 7.68702 10.5578 7.54725L10.7354 7.19148C10.6212 7.26772 10.2025 8.16985 10.1771 8.08091L10.0502 8.36044C9.60606 9.23717 10.2659 7.83949 9.9233 8.4875L10.3421 7.62349C10.2279 7.83949 9.85985 8.46209 9.74565 8.61457C10.0883 7.95385 10.2913 7.63619 10.4943 7.2423C10.4943 7.2423 10.3928 7.2423 10.1771 7.72514C10.1771 7.63619 10.3421 7.42019 10.2786 7.55996C9.9233 8.2715 9.73296 8.60186 9.69489 8.56374C10.5197 6.81029 9.7964 8.0682 10.3928 6.68323C10.0248 7.30583 10.3928 6.34017 10.2405 6.4164C9.63144 7.78867 10.2405 6.4164 9.5553 7.8522L9.88523 6.98818C10.0629 6.56888 10.0502 6.68323 10.1898 6.36558C10.304 6.0329 10.4353 5.70634 10.5832 5.38721C10.3674 5.88275 10.2405 6.09875 10.304 5.89545L10.0375 6.55617C9.63144 7.28042 10.5324 5.3618 10.1263 6.07334L10.3421 5.64133C10.054 5.9477 9.82592 6.30541 9.66951 6.69594C9.74565 6.54347 9.91061 6.16228 9.97406 6.06063C10.0375 5.95898 9.25074 7.17877 9.49185 6.47993L9.65682 6.14958C9.65682 6.25122 9.33957 6.77218 9.47916 6.42911L9.64413 6.07334C9.64413 6.18769 9.32688 6.65782 9.40302 6.45452L9.59337 6.08604C9.70758 5.62862 9.04771 6.96277 8.87005 7.16607C9.1138 6.70165 9.30532 6.21158 9.44109 5.70486V5.5778C9.44109 5.43803 8.90812 6.34017 8.65433 6.68323C9.0604 5.65404 8.65432 6.21311 8.81929 5.65404C8.71451 5.89369 8.59587 6.12704 8.46398 6.35287C8.46398 6.17499 8.12135 6.97547 8.46398 6.14958C8.83198 5.33638 8.6797 5.55239 8.65433 5.52697L8.15942 6.59429C8.78122 5.04414 7.66452 7.11524 8.23556 5.75569L7.96908 6.35287L8.22287 5.80651C8.22287 5.67945 8.22287 5.61592 8.0706 5.80651L8.26094 5.42533C8.26094 5.42533 7.51224 6.93736 7.46149 6.96277L7.80411 6.18769C7.71528 6.18769 7.9437 5.55239 7.55031 6.18769L7.72797 5.83192C7.72797 5.83192 7.80411 5.36179 7.35997 6.34017C7.66452 5.70486 7.35997 6.34017 7.14424 6.55617L7.35997 6.09875C7.2169 6.40692 7.05149 6.70419 6.86507 6.98818C6.86507 6.92465 7.01734 6.63241 6.97927 6.74676C7.05541 6.50535 6.75086 7.16607 6.827 6.92465L6.96658 6.63241C6.96658 6.63241 6.87776 6.74676 6.71279 7.07712C6.54782 7.40748 6.71279 6.95006 6.86507 6.56888C6.73817 6.81029 6.5732 7.11524 6.61127 7.00089C6.64934 6.88653 6.72548 6.77218 6.75086 6.72135C6.75086 6.44182 6.42092 7.20418 6.56051 6.79759L6.67472 6.55617C6.67472 6.55617 6.75086 6.55617 6.67472 6.6197C6.80126 6.28421 6.94963 5.95739 7.11886 5.64133C6.9412 5.94628 6.59858 6.55617 6.63665 6.39099V6.26393V6.16228C6.77624 5.85733 6.63665 6.00981 6.63665 5.9971C6.52758 6.20324 6.43013 6.41534 6.34478 6.63241C6.23058 6.823 6.14175 6.98818 6.21789 6.77218L5.90064 7.38207C6.11637 6.84841 6.19251 6.56888 6.33209 6.26393C6.09339 6.49262 5.89969 6.76416 5.76105 7.06442C5.76105 7.14065 5.76105 6.87383 5.86257 6.77218C5.96409 6.67053 5.86257 6.77218 5.96409 6.63241C5.84988 6.79759 5.8245 6.63241 5.60878 7.12795C5.60878 6.93736 5.8245 6.73406 5.72299 6.81029L5.78643 6.68323C5.87526 6.36558 5.68492 6.68323 5.53264 6.87382C5.38036 7.06442 5.25346 7.2423 5.3296 6.87382C5.33875 6.91139 5.33875 6.95061 5.3296 6.98818C5.3296 6.73406 4.91084 7.17877 4.89815 6.86112C4.89815 6.86112 4.82201 6.93736 4.74587 7.01359L4.80932 6.87382L4.68242 7.039C4.58091 7.12795 4.68242 6.73406 4.53015 6.93736C4.53015 6.93736 4.41594 6.93736 4.44132 6.93736H4.3398H4.23828V7.00089C4.23828 7.00089 4.23828 7.00089 4.23828 7.10254C4.23828 7.20418 4.23828 7.00089 4.23828 7.01359C4.23828 7.0263 4.23828 7.12795 4.23828 7.11524C4.23828 7.11524 4.23828 7.20418 4.31442 7.11524C4.39056 7.0263 4.31442 7.19148 4.31442 7.35666C4.31442 7.35666 4.39056 7.26772 4.40325 7.28042C4.41594 7.29313 4.40325 7.38207 4.31442 7.63619C4.42863 7.4456 4.40325 7.63619 4.50477 7.63619C4.52018 7.71593 4.52018 7.79788 4.50477 7.87761C4.60135 7.78203 4.70768 7.69685 4.82201 7.62349C4.75009 7.80715 4.66528 7.98548 4.56822 8.15715C4.65704 7.95385 4.69511 8.03008 4.77125 7.82679C4.73595 7.94776 4.69358 8.06656 4.64435 8.18256C4.80932 7.82679 4.64435 8.18256 4.79663 7.95385C4.79663 8.18256 4.64435 8.32232 4.72049 8.25879C4.70216 8.36112 4.65854 8.45722 4.5936 8.53833ZM5.57071 8.76704C5.60177 8.66689 5.64892 8.57248 5.7103 8.4875C5.67045 8.62059 5.64076 8.75651 5.62147 8.8941L5.57071 8.76704ZM6.68741 5.94628C6.68741 5.94628 6.68741 5.94628 6.68741 6.04793V5.94628Z" fill="#2079FF"/>
        <path d="M6.00195 10.7111L6.0654 10.5713L6.01464 10.6856L6.00195 10.7111Z" fill="#2079FF"/>
        <path d="M13.0703 11.5879V11.6768C13.0748 11.6474 13.0748 11.6174 13.0703 11.5879Z" fill="#2079FF"/>
        <path d="M10.2784 12.2739C10.1515 12.401 10.2277 12.3629 10.2784 12.2739V12.2739Z" fill="#2079FF"/>
        <path d="M11.5854 11.1558L11.4204 11.4353C11.4204 11.4353 11.4204 11.4353 11.5854 11.1558Z" fill="#2079FF"/>
        <path d="M13.9585 11.5876H13.971V11.5752L13.9585 11.5876Z" fill="#2079FF"/>
        <path d="M13.6411 11.639C13.6665 11.728 13.6919 11.5755 13.6411 11.639V11.639Z" fill="#2079FF"/>
        <path d="M13.7173 10.9021V10.991C13.7173 10.9148 13.7173 10.8131 13.7934 10.8258C13.8569 10.5717 13.7427 10.9783 13.7173 10.9021Z" fill="#2079FF"/>
        <path d="M13.6538 10.6603C13.6538 10.6603 13.6538 10.5459 13.7299 10.4951C13.7066 10.516 13.6879 10.5414 13.6748 10.5698C13.6617 10.5982 13.6545 10.629 13.6538 10.6603Z" fill="#2079FF"/>
        <path d="M12.8418 9.70736L13.0195 9.32617C12.9513 9.44887 12.892 9.57625 12.8418 9.70736Z" fill="#2079FF"/>
        <path d="M11.6997 11.6515L11.5981 11.9056L11.7885 11.5371L11.6997 11.6515Z" fill="#2079FF"/>
        <path d="M12.956 8.62748L12.9941 8.57666L12.8926 8.69102L12.956 8.62748Z" fill="#2079FF"/>
        <path d="M11.4208 7.36963L11.1035 8.06847C11.2334 7.8473 11.3398 7.61307 11.4208 7.36963Z" fill="#2079FF"/>
        <path d="M10.3801 7.62372C10.5451 7.25525 10.6339 7.01383 10.4563 7.3696C10.4436 7.47125 10.3294 7.76349 10.3801 7.62372Z" fill="#2079FF"/>
        <path d="M8.52734 5.81952L8.64155 5.60352L8.52734 5.7814V5.81952Z" fill="#2079FF"/>
        <path d="M39.3378 8.03023C39.301 8.01662 39.2605 8.01662 39.2236 8.03023H39.3125H39.3378Z" fill="#2079FF"/>
        <path d="M40.6069 6.17524H40.7465C40.7002 6.1688 40.6532 6.1688 40.6069 6.17524Z" fill="#2079FF"/>
        <path d="M39.96 6.88674H40.1249C39.96 6.86133 39.998 6.87404 39.96 6.88674Z" fill="#2079FF"/>
        <path d="M42.2188 5.81934C42.2686 5.83177 42.2686 5.83177 42.2188 5.81934V5.81934Z" fill="#2079FF"/>
        <path d="M37.9805 0.901919H38.2723C38.0693 0.901919 38.0693 0.876507 37.9805 0.901919Z" fill="#2079FF"/>
        <path d="M37.9168 0.686131C37.8533 0.686131 38.2086 0.686131 38.399 0.686131C38.5893 0.686131 38.1325 0.686131 37.9294 0.686131C37.9294 0.686131 38.2848 0.686131 38.2594 0.686131H38.069C38.3355 0.686131 37.9802 0.762368 38.3482 0.78778H38.805C38.805 0.78778 38.7035 0.78778 38.6147 0.78778H38.7289C38.3228 0.78778 38.602 0.78778 38.3228 0.78778C38.4117 0.78778 38.7289 0.851311 38.602 0.876723C38.1832 0.876723 38.5132 0.876723 38.1198 0.876723H38.3101C37.663 0.876723 38.3863 0.876723 37.6883 0.876723C37.498 0.876723 37.8279 0.876723 37.6883 0.965666H38.2721C38.6655 1.0292 37.1173 0.965666 37.663 1.05461C37.9548 1.05461 38.5386 1.05461 38.2086 1.05461H37.6883C37.5868 1.05461 38.437 1.05461 38.0437 1.13085C37.6503 1.20708 37.8787 1.13085 37.8152 1.13085C37.3203 1.27061 38.069 1.27061 38.069 1.27061H37.5614C37.5614 1.27061 37.9168 1.35956 37.9802 1.41038C37.8279 1.41038 37.663 1.41038 37.4853 1.41038C37.701 1.41038 37.3076 1.55015 36.8889 1.61368H37.3711C37.2612 1.62031 37.151 1.62031 37.0412 1.61368C36.8254 1.61368 37.3711 1.61368 37.5614 1.61368C37.4096 1.63026 37.2564 1.63026 37.1046 1.61368C37.498 1.61368 38.0056 1.72803 37.3965 1.77886H37.2315C36.9904 1.77886 38.3355 1.77886 37.8152 1.8551H37.7137C37.4219 1.93133 37.9294 2.02028 37.0031 2.08381C37.8533 2.08381 36.5716 2.16004 37.7772 2.16004C37.1554 2.16004 36.9396 2.16004 36.5082 2.24899C36.4321 2.24899 37.2696 2.24899 37.3965 2.24899H36.7366H37.4092H36.6097H36.7747H37.2696C37.5614 2.24899 36.7747 2.32522 36.4321 2.32522L36.965 2.40146H36.4321C37.1173 2.40146 35.7087 2.40146 36.3305 2.40146H36.8001C36.3813 2.40146 36.3559 2.46499 36.5082 2.4904H36.0387C35.8864 2.4904 36.2036 2.59205 36.1783 2.65558C36.567 2.62995 36.957 2.62995 37.3457 2.65558H36.5843C37.0539 2.65558 36.8762 2.65558 37.4472 2.65558H36.3305H36.5843H35.9498C35.1631 2.65558 36.4194 2.65558 35.9498 2.65558H35.7214C35.7214 2.71911 35.9498 2.74453 35.9752 2.79535C36.6478 2.79535 36.4828 2.79535 37.0285 2.79535C36.8127 2.79535 36.2544 2.87159 36.3052 2.92241C36.6351 2.92241 36.8889 2.92241 37.2823 2.92241C36.6605 2.92241 36.7112 2.92241 36.2671 2.92241C36.3559 2.92241 36.3813 2.92241 36.8762 3.04947H37.4599C37.2702 3.07098 37.0786 3.07098 36.8889 3.04947H36.8254C37.7645 3.12571 34.9347 3.21465 36.2544 3.26548H36.1909L36.8889 3.32901C36.7747 3.32901 36.4067 3.32901 36.0006 3.32901C37.0665 3.32901 35.8356 3.43066 36.5463 3.48148C34.6301 3.48148 36.6732 3.63395 35.4422 3.68478H35.8991C36.3432 3.68478 35.6453 3.68478 35.5311 3.68478H36.1909C36.7239 3.81184 35.5311 3.9389 35.1377 4.05326C35.0235 4.05326 37.4599 4.05326 36.4067 4.1422H35.5691C36.5843 4.23114 35.5691 4.32009 36.4321 4.40903C36.2842 4.41913 36.1358 4.41913 35.9879 4.40903C35.4042 4.40903 35.9879 4.48527 36.4574 4.48527H35.7849C35.4423 4.48527 36.5463 4.48527 35.9625 4.48527H35.7849C36.0767 4.48527 35.7849 4.48527 36.4067 4.48527C36.0894 4.48527 36.7239 4.48527 36.3305 4.57421C37.0919 4.57421 35.9879 4.63774 37.0539 4.63774C35.9498 4.63774 36.1909 4.63774 36.6985 4.71398H35.9118C36.1723 4.75665 36.438 4.75665 36.6985 4.71398C35.4296 4.71398 37.7518 4.80292 36.1275 4.82833C36.5536 4.87459 36.9772 4.94245 37.3965 5.03163C36.3686 5.03163 37.2696 5.03163 36.1275 5.03163C36.5843 5.03163 37.4853 5.12057 37.2569 5.1841C37.0498 5.19643 36.8422 5.19643 36.6351 5.1841C37.0792 5.1841 36.6351 5.29846 37.1681 5.36199H36.8889C36.8889 5.36199 36.762 5.36199 37.2061 5.36199H37.0792C37.7264 5.36199 38.4497 5.36199 38.7797 5.36199C37.5107 5.36199 38.4751 5.36199 36.8635 5.36199C37.13 5.36199 37.5868 5.36199 37.5868 5.36199H37.0539C37.4726 5.36199 37.8787 5.36199 37.7137 5.43823H37.4345C37.5234 5.43823 38.5259 5.52717 38.1579 5.57799C37.295 5.57799 37.8787 5.57799 37.1427 5.57799H37.3838H37.7264C37.7264 5.57799 38.2721 5.57799 38.0437 5.65423H37.7391H37.8914H38.1579C38.5386 5.65423 39.0715 5.65423 38.8685 5.65423C38.7299 5.67745 38.5884 5.67745 38.4497 5.65423C38.6781 5.65423 38.9192 5.65423 38.7416 5.65423H37.8279C38.4117 5.65423 38.0056 5.65423 38.6274 5.73047H38.069C37.9929 5.73047 38.9192 5.73047 38.5639 5.73047H38.3863C38.2086 5.73047 38.6908 5.81941 38.4878 5.85753C37.8406 5.85753 38.3101 5.85753 37.7645 5.85753C37.9294 5.85753 38.602 5.98459 38.4751 6.03541H38.5386C39.3761 6.03541 38.1325 6.03541 38.5386 6.11165H38.1706C38.069 6.11165 38.4243 6.18789 38.6781 6.25142H38.4751C38.3101 6.25142 38.4117 6.31495 38.3355 6.34036H38.767C37.7772 6.4166 39.3507 6.48013 38.5766 6.54366H38.4243H38.6147H38.97H39.2492C39.0678 6.52402 38.8849 6.52402 38.7035 6.54366H38.9446C38.5132 6.54366 39.4522 6.54366 39.1604 6.54366H39.0335C39.0335 6.54366 39.2619 6.54366 39.2238 6.54366H38.8812C38.8812 6.54366 39.3888 6.54366 39.135 6.54366H38.9827C38.6908 6.54366 38.767 6.54366 38.7289 6.54366H38.6274H38.6908C39.3253 6.54366 38.8431 6.54366 39.2238 6.6326C39.076 6.62111 38.9275 6.62111 38.7797 6.6326H38.5893C38.7924 6.6326 38.4878 6.6326 38.767 6.6326C38.767 6.6326 38.767 6.6326 38.602 6.6326C38.6696 6.63851 38.7375 6.63851 38.805 6.6326C39.0461 6.6326 38.6274 6.72155 38.9446 6.77237C39.069 6.79965 39.1919 6.83358 39.3126 6.87402C39.2581 6.88433 39.2022 6.88433 39.1477 6.87402C39.1477 6.87402 39.1477 6.87402 39.1477 6.93755C39.1141 6.93134 39.0797 6.93134 39.0461 6.93755C39.0461 6.93755 39.1857 6.93755 39.1477 6.93755H38.9954H39.1604C39.1604 6.93755 39.0842 6.93755 39.0461 6.93755C39.0964 6.94748 39.1481 6.94748 39.1984 6.93755C39.338 6.93755 39.1984 6.93755 39.135 6.8359H39.338C39.338 6.8359 39.4776 6.8359 39.4395 6.8359C39.4015 6.8359 39.3126 6.77237 39.4395 6.75966C39.4395 6.75966 39.2746 6.75966 39.0715 6.75966H39.5284H39.4395C39.3644 6.88905 39.3167 7.0325 39.2992 7.18112C39.2817 7.32975 39.2949 7.48038 39.338 7.62368C39.5284 7.62368 39.2492 7.54744 39.6045 7.54744C39.4268 7.54744 39.4649 7.54744 39.3507 7.54744C39.7441 7.54744 39.2873 7.54744 39.4776 7.54744C39.6679 7.54744 39.5537 7.54744 39.7568 7.54744C39.4015 7.54744 39.871 7.54744 39.8202 7.54744C39.503 7.54744 39.706 7.54744 39.6045 7.4585C39.7187 7.4585 39.8329 7.4585 39.9852 7.36956H40.0486C39.6679 7.36956 39.7568 7.36956 39.6806 7.36956C39.8285 7.35816 39.977 7.35816 40.1248 7.36956H39.8964H40.2009C40.2009 7.36956 39.8583 7.30603 40.1121 7.28062C39.7822 7.28062 39.2238 7.28062 38.9954 7.28062C39.173 7.28062 39.4776 7.28062 39.541 7.28062C39.6045 7.28062 39.4015 7.28062 39.4776 7.28062H39.7695C39.9091 7.28062 39.5284 7.28062 39.5537 7.28062H39.9344C40.0694 7.26621 40.2055 7.26621 40.3405 7.28062H39.9598C40.1161 7.26954 40.273 7.26954 40.4293 7.28062C40.303 7.26337 40.175 7.26337 40.0486 7.28062H40.3532C40.1882 7.28062 40.3532 7.20438 39.8964 7.28062C39.4903 7.28062 40.1755 7.17897 40.0106 7.12814H40.1628C40.0282 7.07873 39.8872 7.04879 39.7441 7.0392H40.239C39.9344 7.0392 40.1248 7.0392 40.239 7.0392C40.5435 7.0392 40.4928 7.0392 40.442 7.0392C40.5943 7.0392 40.8735 7.0392 40.442 6.97567C40.8608 6.97567 41.0004 6.97567 40.8735 6.97567H40.5562H41.14C41.9013 6.97567 39.9598 6.86131 41.2161 6.82319C40.7846 6.82319 40.8989 6.82319 40.404 6.82319C40.4928 6.82319 41.4064 6.82319 41.4064 6.82319C41.7745 6.82319 40.5055 6.82319 40.7593 6.74696C40.4127 6.76609 40.0653 6.76609 39.7187 6.74696C40.0991 6.72702 40.4804 6.72702 40.8608 6.74696C40.8608 6.74696 40.8608 6.74696 40.7339 6.74696C40.8729 6.7641 41.0136 6.7641 41.1527 6.74696H40.9242C41.1271 6.73516 41.3305 6.73516 41.5333 6.74696C41.3687 6.73311 41.2031 6.73311 41.0384 6.74696C41.3938 6.74696 41.0384 6.74696 41.3303 6.65801H40.8608C41.1907 6.65801 40.4293 6.65801 40.3278 6.65801C40.7085 6.65801 41.2034 6.65801 40.9115 6.65801C41.178 6.65801 41.5587 6.65801 41.7491 6.65801C41.3049 6.65801 42.1044 6.65801 42.2059 6.58178H42.3962C42.282 6.58178 42.2947 6.58178 42.3074 6.58178H41.7998C41.9053 6.57013 42.0116 6.57013 42.1171 6.58178C41.7871 6.58178 41.2795 6.58178 40.8481 6.58178C41.1146 6.58178 40.5943 6.58178 41.2669 6.58178C41.0131 6.58178 41.9521 6.58178 42.0282 6.58178H42.1932C42.8277 6.58178 41.4445 6.58178 41.4826 6.58178C41.7021 6.60242 41.923 6.60242 42.1425 6.58178C41.8298 6.60176 41.5161 6.60176 41.2034 6.58178C41.5207 6.58178 40.9877 6.58178 41.0258 6.58178H40.8862C40.7351 6.60945 40.5804 6.60945 40.4293 6.58178C40.7339 6.58178 40.6324 6.58178 40.772 6.58178C40.0867 6.58178 41.4953 6.58178 41.0511 6.50554H41.9775C41.4826 6.50554 42.5358 6.50554 42.1298 6.4293C41.8213 6.44855 41.5119 6.44855 41.2034 6.4293H41.5587H40.7973C40.7973 6.4293 41.1146 6.4293 41.0258 6.4293C40.7764 6.4165 40.5265 6.4165 40.2771 6.4293C41.0892 6.4293 39.8202 6.4293 40.3659 6.35307H41.711C42.3328 6.35307 41.0511 6.28954 41.4064 6.22601H41.1653C40.6197 6.22601 41.0892 6.22601 40.8735 6.22601H41.7998C41.4572 6.22601 41.7998 6.22601 40.9115 6.22601H41.5333C41.7998 6.22601 40.2644 6.22601 40.3786 6.13706C40.8862 6.13706 41.2288 6.13706 41.5841 6.13706C41.5841 6.13706 41.6856 6.13706 41.3557 6.13706C41.6476 6.13706 40.7339 6.13706 41.178 6.13706C40.975 6.13706 40.4801 6.13706 40.5182 6.13706H40.7466C40.5182 6.13706 40.4293 6.13706 39.9091 6.13706C41.4064 6.13706 39.8075 6.01 41.1019 5.98459C40.9849 5.96112 40.8702 5.9271 40.7593 5.88294H40.9496C41.4064 5.88294 39.5537 5.88294 40.0613 5.88294C40.8608 5.88294 40.4928 5.88294 40.7846 5.88294C42.3962 5.88294 40.5816 5.88294 41.5207 5.8067H41.6222C42.1678 5.8067 41.0131 5.8067 41.1273 5.71776H41.3811C40.9353 5.70995 40.4904 5.67601 40.0486 5.61611H41.0384C40.9369 5.61611 39.9852 5.61611 39.7695 5.61611H41.1273C42.0282 5.61611 41.1273 5.61611 41.2669 5.61611H41.6602C41.5333 5.61611 40.5435 5.61611 40.607 5.51446H40.3151C39.3253 5.51446 40.8735 5.51446 40.1375 5.51446H41.14L39.9852 5.42552C40.7212 5.42552 41.1019 5.42552 41.546 5.50176C41.546 5.50176 41.4699 5.43823 40.975 5.43823H41.1653C40.7787 5.46596 40.3902 5.44031 40.0106 5.36199C41.9521 5.36199 40.5055 5.27305 42.0029 5.24763C41.2922 5.1841 42.3074 5.12057 42.1932 5.05704C40.6831 5.05704 42.1932 5.05704 40.5943 5.05704C40.5055 5.05704 40.5309 5.05704 40.5943 5.05704H41.5207C41.9648 5.05704 41.8633 5.05704 42.2059 5.05704C42.3201 5.05704 42.8658 5.05704 43.2718 5.05704C42.7135 5.05704 42.4724 5.05704 42.6881 5.05704H41.9775C41.1527 5.05704 43.2465 5.05704 42.447 4.9681H42.9292C42.5164 4.8546 42.0874 4.81164 41.6602 4.84104H42.3709C42.5358 4.84104 41.1019 4.70127 41.7871 4.65045H42.1551C42.0409 4.65045 41.4572 4.65045 41.8252 4.65045H42.2186C42.079 4.65045 41.5587 4.65045 41.7744 4.65045H42.1932C42.65 4.65045 41.1653 4.5615 40.9242 4.51068C41.4415 4.52892 41.9594 4.50341 42.4724 4.43444H42.6247C42.2071 4.34146 41.7827 4.28197 41.3557 4.25656C42.4597 4.25656 41.7744 4.11679 42.3455 4.04055C42.1678 4.04055 41.5714 4.04055 41.4699 4.04055C41.6602 4.04055 40.7593 4.04055 41.6729 4.04055C42.5485 4.04055 42.2947 4.04055 42.3074 3.96431H41.1273C42.7896 3.90078 40.4547 3.79913 41.9267 3.76102C42.0536 3.76102 42.1044 3.69749 41.9267 3.64666H41.508H40.6197H41.4572C41.4572 3.64666 42.0917 3.53231 41.3303 3.48148H41.711C41.711 3.48148 42.1805 3.37983 41.1019 3.39254C41.8125 3.39254 41.1019 3.39254 40.8227 3.3163H41.3303C40.9881 3.33976 40.6447 3.33976 40.3024 3.3163C40.3659 3.3163 40.6958 3.3163 40.5816 3.3163C40.8227 3.3163 40.0994 3.3163 40.3532 3.25277H40.6704C40.6704 3.25277 40.5309 3.25277 40.1628 3.25277C39.7948 3.25277 40.2644 3.25277 40.6831 3.25277C40.4166 3.25277 40.074 3.25277 40.1882 3.25277H40.607C40.8862 3.25277 40.0359 3.17653 40.4674 3.15112H40.7339C40.7339 3.15112 40.7339 3.22736 40.7339 3.21465C41.1526 3.21465 41.1907 3.21465 41.7998 3.21465C41.4445 3.21465 40.7466 3.15112 40.9242 3.12571H41.1019C41.1019 3.12571 41.1019 3.12571 41.0258 3.12571C40.9496 3.12571 41.1273 3.12571 41.1146 3.12571C41.4445 3.12571 41.2542 3.12571 41.2669 3.12571C40.8481 3.12571 40.8989 3.12571 40.5689 3.12571H40.607C40.3786 3.12571 40.1882 3.12571 40.4166 3.12571H39.7314L40.9369 1.27061C40.6245 1.17176 40.3 1.11618 39.9725 1.10543C39.8837 1.10543 40.1755 1.10543 40.2771 1.10543H40.442C40.2533 1.04536 40.0563 1.01535 39.8583 1.01649C40.0486 1.01649 40.3024 1.01649 40.1882 1.01649H40.3278C40.6451 1.01649 40.3278 0.927548 40.0486 0.902136C39.7695 0.876723 39.5918 0.825899 39.9344 0.775074H39.8075C40.0233 0.660719 39.4649 0.546364 39.7441 0.444715C39.7441 0.444715 39.6426 0.444715 39.541 0.444715H39.6933H39.4903C39.3761 0.444715 39.7822 0.368478 39.4903 0.317653H39.4268L39.338 0.101649V0H39.2746C39.2746 0 39.2746 0 39.173 0C39.0715 0 39.2746 0 39.2746 0C39.2746 0 39.1604 0 39.1857 0C39.2492 0 39.1857 0 38.97 0H39.0715C38.8558 0 38.9954 0 38.7162 0C38.9319 0 38.7162 0 38.8304 0.101649H38.602C38.7495 0.0838165 38.8986 0.0838165 39.0461 0.101649C38.8518 0.114805 38.6568 0.114805 38.4624 0.101649C38.6908 0.101649 38.6274 0.101649 38.8431 0.101649H38.4624C38.8558 0.101649 38.4624 0.101649 38.7416 0.101649C38.5005 0.101649 38.3355 0.101649 38.4243 0.101649C38.3839 0.228537 38.3181 0.345825 38.2308 0.446327C38.1435 0.54683 38.0366 0.628431 37.9168 0.686131ZM41.1527 1.28332C41.2288 1.28332 41.1527 1.28332 41.0638 1.28332H41.1527Z" fill="#2079FF"/>
        <path d="M36.5464 2.32521H36.7114L36.5718 2.3125L36.5464 2.32521Z" fill="#2079FF"/>
        <path d="M36.9397 5.70484C36.8001 5.69214 36.8001 5.69214 36.9397 5.70484V5.70484Z" fill="#2079FF"/>
        <path d="M38.2466 6.18799C38.1451 6.18799 38.1705 6.18799 38.2466 6.18799C38.3228 6.18799 38.3355 6.20069 38.2466 6.18799Z" fill="#2079FF"/>
        <path d="M38.9318 7.77637C38.8683 7.81449 39.0206 7.78907 38.9318 7.77637V7.77637Z" fill="#2079FF"/>
        <path d="M40.353 6.61995H40.7718C40.6324 6.60911 40.4924 6.60911 40.353 6.61995Z" fill="#2079FF"/>
        <path d="M38.1073 6.46729L37.8408 6.47999L38.2469 6.4927L38.1073 6.46729Z" fill="#2079FF"/>
        <path d="M41.3686 6.36573L41.4321 6.37844L41.2798 6.35303L41.3686 6.36573Z" fill="#2079FF"/>
        <path d="M41.1529 4.33303C41.5462 4.33303 41.8 4.33303 41.4193 4.33303C41.3559 4.30762 41.0513 4.32033 41.1529 4.33303Z" fill="#2079FF"/>
        <path d="M42.0537 2.49025L42.2948 2.50295L42.0791 2.47754L42.0537 2.49025Z" fill="#2079FF"/>
        <path d="M55.5177 34.1032C55.4416 34.1795 55.3908 34.2938 55.5177 34.2811C55.5553 34.2064 55.5977 34.1343 55.6446 34.0651C55.6446 34.0651 55.7715 33.9762 55.7588 33.9889C55.8084 33.9501 55.8551 33.9076 55.8984 33.8618C55.7801 33.9346 55.6732 34.0245 55.5812 34.1286L55.5177 34.1032Z" fill="#2079FF"/>
        <path d="M42.8785 39.4528C42.8785 39.4528 42.8785 39.3638 42.8785 39.313C42.8785 39.2622 42.8531 39.3892 42.8785 39.4528Z" fill="#2079FF"/>
        <path d="M47.9291 38.0294L47.7261 37.9404C47.7895 38.1183 47.853 38.0294 47.9291 38.0294Z" fill="#2079FF"/>
        <path d="M51.4951 36.0347C51.4951 36.0347 51.5713 36.2634 51.6093 36.365C51.5967 36.3371 51.5902 36.3068 51.5902 36.2761C51.5902 36.2454 51.5967 36.2151 51.6093 36.1871C51.5776 36.1319 51.5392 36.0807 51.4951 36.0347Z" fill="#2079FF"/>
        <path d="M48.6904 37.2545C48.6711 37.2127 48.6454 37.1741 48.6143 37.1401L48.6904 37.2545Z" fill="#2079FF"/>
        <path d="M0 32.1084L0.0249264 32.1333H0.0373895L0 32.1084Z" fill="#2079FF"/>
        <path d="M40.0488 38.5494C40.0613 38.4997 40.0862 38.4872 40.0488 38.5494V38.5494Z" fill="#2079FF"/>
        <path d="M25.8616 39.8594C25.9885 40.4947 25.5443 40.6472 25.7347 41.3714C25.7347 41.0919 26.0392 40.2787 25.8616 39.8594Z" fill="#2079FF"/>
        <path d="M36.5718 39.3892C36.5958 39.484 36.6255 39.5774 36.6606 39.6687C36.6395 39.573 36.6097 39.4795 36.5718 39.3892Z" fill="#2079FF"/>
        <path d="M39.4521 39.9229L39.3379 39.8594C39.3379 39.8594 39.4267 39.9229 39.4521 39.9229Z" fill="#2079FF"/>
        <path d="M35.3281 40.5579C35.3281 40.5579 35.2519 40.4309 35.2266 40.5579V40.6342C35.2519 40.5071 35.2646 40.4563 35.3281 40.5579Z" fill="#2079FF"/>
        <path d="M4.6821 37.3562C4.71024 37.2569 4.74414 37.1593 4.78362 37.064C4.6821 37.28 4.45368 37.1783 4.6821 37.3562Z" fill="#2079FF"/>
        <path d="M54.7056 35.0053C54.7056 35.0053 54.7056 35.0053 54.7056 35.0689C54.7056 35.0689 54.7183 34.9926 54.7056 35.0053Z" fill="#2079FF"/>
        <path d="M36.0136 45.8438H35.7471C35.789 45.8623 35.8344 45.8719 35.8803 45.8719C35.9262 45.8719 35.9716 45.8623 36.0136 45.8438Z" fill="#2079FF"/>
        <path d="M14.707 43.2007H14.6309C14.6309 43.2007 14.6689 43.3023 14.707 43.2007Z" fill="#2079FF"/>
        <path d="M34.9853 46.0214C34.9422 45.8591 34.8736 45.7047 34.7822 45.564C34.7822 45.564 34.7822 45.6656 34.7822 45.7418L34.9853 46.0214Z" fill="#2079FF"/>
        <path d="M3.1849 36.4539C3.34986 36.6445 3.45138 36.2633 3.60366 36.1362C3.87015 36.2506 3.60366 36.4412 3.52752 36.6572C3.70518 36.6572 3.99704 36.5301 4.08587 36.6572C4.1747 36.7842 4.08587 36.7588 3.99704 36.7969C4.31429 36.6826 4.4285 37.1781 4.82188 36.9875V37.0892C4.88561 36.9061 4.97081 36.7312 5.07568 36.5682C5.1645 36.5682 5.38023 36.4539 5.26602 36.708C5.26602 36.708 5.15181 36.708 5.07568 36.8096H5.22795C5.10106 37.2035 5.03761 36.8096 4.88533 37.0765C5.11374 37.0765 5.49444 36.9748 5.57058 37.1781C5.38023 37.5593 5.18988 37.0511 5.17719 37.4958L5.07568 37.1781C4.89802 37.8388 4.98685 37.0256 4.77112 37.7118C4.96147 38.0676 5.1645 37.8261 5.36754 38.1438C5.55789 37.9913 5.53251 37.8388 5.71016 37.6737C6.34465 37.5593 5.45637 38.8553 6.05279 38.5631C6.2812 38.3598 6.61114 37.8643 6.6619 38.2708L6.34465 38.6902C6.58576 38.9443 6.87762 38.1311 6.99183 38.6902C6.83955 38.8553 6.68728 38.6902 6.69997 38.7918C6.69997 39.3 6.97914 38.6139 7.11873 38.7029L6.91569 39.1603C7.24563 39.3128 7.75322 39.1603 8.18467 39.3382C8.06377 39.4571 7.98757 39.6142 7.96895 39.7829C8.50192 39.7829 8.83185 40.4436 9.11102 41.0535L9.49172 40.685C9.49652 40.7431 9.4888 40.8015 9.4691 40.8563C9.44939 40.9111 9.41816 40.961 9.37751 41.0027C9.46634 41.2822 9.5171 40.7104 9.68207 40.5707C9.84703 40.4309 9.68207 40.9137 9.56786 41.0154C10.0374 40.7994 10.8368 40.5834 10.8368 41.2822L10.7099 41.4093C10.8749 41.7523 11.4206 40.5071 11.4459 41.0916L11.3698 41.1678C11.8013 41.6761 12.5753 41.4601 12.6388 42.4385C13.0195 41.6634 13.0575 43.0357 13.5017 41.8921C13.6159 42.5909 13.5017 42.7688 13.7682 43.3533C13.8697 43.455 14.1996 42.6799 14.3773 42.6163L14.1869 43.2517L14.593 42.6672L14.4661 43.4677L14.6565 43.366C14.6021 43.1966 14.6021 43.0144 14.6565 42.8451C14.961 42.6418 15.0372 43.5058 14.9483 43.8361L15.6336 43.4931C15.5685 43.6702 15.4593 43.8276 15.3163 43.9505C15.7858 43.3914 15.164 44.6747 15.5955 44.1538C15.6278 43.9721 15.6877 43.7964 15.7732 43.6328C15.7732 44.0776 16.0777 44.1792 16.3442 44.0648L16.1792 44.5223C16.5472 44.7637 17.0675 44.5223 17.5117 44.7002C17.4566 44.2994 17.5615 43.8931 17.8035 43.5693L17.6766 44.319C17.867 43.887 17.6005 44.0013 17.905 43.4931C18.0573 43.6201 17.8162 44.3698 17.6639 44.5731L17.9304 44.3825C17.877 44.5846 17.8135 44.7839 17.7401 44.9797C17.9304 44.5477 17.9177 45.8437 18.2223 45.0686V45.2973C18.6664 45.4371 18.9329 45.2338 19.3009 45.2973C19.4405 44.6366 19.5547 44.8272 19.7704 44.3063C19.9989 44.5731 20.2019 45.1576 20.5445 45.1703C20.8364 44.878 20.7095 44.6112 20.8871 44.2173C20.7856 44.8399 21.1282 44.8399 20.8871 45.2592C21.0893 45.2607 21.2898 45.2222 21.4771 45.1459C21.6644 45.0695 21.8348 44.9569 21.9785 44.8145C21.9395 44.6174 21.9395 44.4145 21.9785 44.2173C22.08 44.1284 22.1307 44.5096 22.08 44.8145C22.7525 43.9632 23.1459 46.911 23.755 45.6404V45.7039L24.3007 45.0432C24.5037 45.183 24.123 45.5133 24.3007 45.9327C24.9098 44.9035 25.0875 46.1614 25.5697 45.4752C25.76 47.4066 26.7244 45.4752 27.0924 46.6823V46.2249C27.2193 45.7929 27.2193 46.4917 27.2955 46.6061C27.2955 46.2503 27.1813 46.1868 27.2955 45.9454C28.2599 45.4752 29.2497 46.6188 30.2776 47.0127C30.6456 47.1143 30.4172 44.6747 30.8994 45.7421L30.7979 46.5807C30.91 46.3981 31.0732 46.2526 31.2672 46.1623C31.4613 46.0719 31.6775 46.0407 31.8892 46.0724C32.0911 46.1003 32.2967 46.0711 32.4829 45.988C32.669 45.9049 32.8282 45.7713 32.9424 45.6023C32.9424 45.8056 32.9424 46.047 32.8663 46.047C33.0693 46.6315 33.4246 46.047 33.3866 45.5261C33.5008 45.5261 33.3866 45.9708 33.5389 46.1995C33.6911 46.4282 33.8434 45.399 33.983 45.9835C34.0046 46.0625 34.0046 46.1459 33.983 46.2249C34.0591 45.9199 34.4525 46.2249 34.2875 45.5769C34.5794 45.8564 34.7571 45.2084 35.0109 45.5769C35.0109 44.8145 35.5058 45.8818 35.4169 44.8145C35.5311 45.9072 36.0007 45.6404 36.0895 45.0813C36.0895 45.4244 36.2798 45.3863 36.2798 45.8564C36.4575 45.8564 36.6098 45.5642 36.4956 45.0178C37.0412 46.2122 37.0159 43.8488 37.4727 45.4244C37.8365 44.8435 38.2906 44.3245 38.8178 43.887C39.0081 44.9035 38.2975 44.1157 38.5259 45.1576C38.9193 44.6112 39.0081 43.6964 39.5157 43.887C39.668 43.9886 39.5157 44.3317 39.5157 44.5096C39.8964 44.0013 40.4294 44.319 40.7086 43.6583C40.7339 43.754 40.7339 43.8547 40.7086 43.9505C40.7847 43.9505 40.937 44.0267 40.8228 43.5947V43.7472C40.5436 43.15 40.8228 42.3241 40.734 41.9937C40.9116 43.2644 41.2035 42.1843 41.3938 43.798C41.4543 43.6036 41.4543 43.3953 41.3938 43.2008C41.4953 43.2644 41.5588 43.4168 41.5715 43.7599C41.7872 43.4422 41.5715 43.0229 41.8253 42.9467C41.8399 43.1285 41.8399 43.3112 41.8253 43.4931C41.8253 43.0484 41.8253 42.6163 42.1425 42.718C42.1425 42.8451 42.2313 42.9975 42.1425 43.0102C42.5105 42.8196 42.4851 41.7396 42.9927 42.0319C43.1323 42.8959 43.2212 42.2606 43.4623 42.9594L43.6145 42.6672L43.145 42.3241C43.3354 42.2479 43.3227 41.6761 43.5638 41.8413V42.1843L43.8683 41.9048L43.5892 41.7269C43.5892 41.2949 43.2846 40.8502 43.5892 40.9518C43.5892 41.0408 43.7795 40.9518 44.0079 41.2441C44.0079 40.99 44.0079 40.7231 44.2363 40.8375C44.4648 40.9518 44.4647 41.5872 44.5409 41.7142C44.4267 41.1297 44.9216 41.3711 44.8201 40.7485C44.8509 40.9412 44.9063 41.1291 44.985 41.3076L44.9089 40.8375C45.0358 40.9391 45.0739 41.0027 45.1627 41.2822C45.4546 41.2822 44.782 40.5071 45.1627 40.7231C45.1627 40.7231 45.1627 40.8248 45.1627 40.9137C45.5434 40.9137 45.6449 40.4055 46.0129 40.4944C46.3301 41.0535 45.8226 40.7485 46.1271 41.2187C46.4824 40.9137 46.6601 40.1387 47.0915 40.0624H46.99C46.7108 39.2492 47.4468 40.2911 47.4722 39.821C47.4802 39.9495 47.5147 40.075 47.5737 40.1895C47.8783 40.1895 48.0179 39.7066 48.2971 39.2746V39.4906C48.5128 39.5669 48.7285 39.3509 48.9316 39.3382C48.9316 39.1476 48.995 39.1222 48.8173 38.9062C49.3122 39.2492 49.4772 38.9697 49.6422 38.7156C49.8071 38.4614 49.934 38.1819 50.3274 38.3725C50.3274 38.3725 50.3274 38.5758 50.3274 38.5504L50.6066 38.1692C50.4543 37.9532 50.4797 38.0676 50.3021 37.9278C50.1244 37.788 50.3021 37.5847 50.4036 37.5339C50.3274 37.788 50.6193 37.9024 50.7589 37.9786C50.7159 37.9093 50.6778 37.8371 50.6447 37.7626C51.0507 38.0294 50.4163 37.2925 50.8223 37.3941V37.5212C50.8223 37.4068 50.8223 37.2035 51.0127 37.1654C51.1903 37.3814 51.0127 37.3433 51.0888 37.5466C51.2157 37.4322 51.0888 36.924 51.3807 37.0638C51.3807 37.1654 51.2665 37.2289 51.2411 37.3306C51.5457 37.5085 51.5203 37.4195 51.6472 37.3941L51.9517 37.3306H51.8502C51.6979 36.6572 52.1548 36.9748 52.1801 36.4793C52.1801 36.9367 52.2563 36.6826 52.3705 36.9113C52.472 36.9113 52.6116 36.9113 52.6116 37.0002C52.6116 36.7588 52.8781 37.0002 52.8781 36.6318C52.8781 36.6318 53.005 36.5428 53.0811 36.708C53.1826 36.5555 52.9796 36.6318 52.9415 36.5555C53.043 36.2125 53.5633 36.3268 53.7029 35.8186C53.8425 35.3103 53.8552 35.3357 54.0582 35.0943C54.1851 35.0943 54.0582 35.2722 54.0582 35.2722C54.2131 35.2244 54.3444 35.1201 54.4262 34.98C54.4262 34.98 54.4262 34.98 54.5151 34.98C54.6039 34.98 54.5151 34.8148 54.6673 34.7512C54.6725 34.8147 54.6725 34.8784 54.6673 34.9418C54.7488 34.8016 54.8377 34.6659 54.9338 34.5352C54.9338 34.5352 54.9338 34.6496 54.9338 34.7131C55.0538 34.5847 55.1601 34.4442 55.2511 34.2938H55.1622C55.1622 34.2938 55.1622 34.2938 55.1622 34.3574C55.1622 34.4209 54.9846 34.4844 54.9592 34.4717L55.0353 34.3828C54.8577 34.3828 54.6927 34.675 54.5277 34.8275V34.6496L54.4135 34.9037C54.4135 34.9037 54.274 34.8402 54.4135 34.7512C54.2232 34.7512 54.3247 34.891 54.1597 34.891L54.0582 35.0181C54.0582 35.0181 53.9567 34.9291 54.0582 34.891C53.7537 34.891 53.7664 35.2722 53.576 35.196C53.2968 35.4755 53.6395 35.3484 53.576 35.7042L53.1572 35.4374L53.2334 35.6153C53.2334 35.6153 53.1192 35.6153 53.0811 35.6153C53.0811 35.8059 53.1572 35.6153 53.1572 35.8313C52.8908 35.8313 52.7512 36.1997 52.5228 35.9202C52.5228 36.0981 52.7512 35.9202 52.637 36.1489C52.3705 35.8313 52.472 36.3268 52.2055 36.2506C52.2055 36.0346 52.3578 36.06 52.0913 35.971C52.1928 36.3395 51.736 36.06 51.6345 36.187C51.7994 36.4666 51.4188 36.4412 51.2538 36.6572C51.2538 36.5555 50.7335 36.6572 50.4543 36.6572V36.5936C50.6193 36.9621 50.3655 37.0129 50.2513 37.1654C50.1371 36.9494 50.1117 36.8478 50.1498 36.708L49.9975 36.7842C50.0255 36.8301 50.0404 36.8829 50.0404 36.9367C50.0404 36.9905 50.0255 37.0433 49.9975 37.0892L49.7691 36.8478C49.5787 36.9367 49.566 37.3814 49.198 37.2925C49.3376 37.5847 49.8198 37.9786 49.6549 38.309C49.566 38.1565 49.4138 37.8897 49.4518 37.8007C49.4899 37.7118 49.4518 37.9659 49.3503 37.9278V37.6101C49.1727 37.6101 49.3503 37.8515 49.3503 37.877C49.2234 37.6482 49.1854 37.7372 49.1092 37.5593C49.0331 37.3814 49.2488 37.6228 49.2361 37.5593C49.1464 37.5552 49.0585 37.5328 48.9778 37.4934C48.8971 37.4541 48.8252 37.3987 48.7666 37.3306C48.8554 37.4577 48.9316 37.6355 48.8681 37.6991C48.8047 37.7626 48.6524 37.4449 48.4747 37.3687C48.4747 37.5466 48.2971 37.3687 48.4747 37.788C48.4747 37.788 48.3098 37.6355 48.2463 37.5466C48.2463 37.7499 47.7768 37.7753 48.094 38.1438C47.9418 38.6774 47.2819 38.22 47.0281 38.525L46.952 38.3471C46.8251 38.5885 46.5459 38.6266 46.5332 39.0078C46.5332 39.0078 46.2794 38.7918 46.2286 38.6139C46.1271 38.7791 46.2286 38.9697 45.8479 38.7918C45.8479 38.4741 45.6957 38.5758 45.9241 38.5377C45.6703 38.5377 45.518 38.2327 45.4672 38.7283C45.3784 38.309 45.1119 38.2581 45.0612 38.4106L45.3277 38.6647C45.2847 38.7019 45.2335 38.7282 45.1783 38.7415C45.1231 38.7547 45.0655 38.7546 45.0104 38.741L44.8454 38.1819C44.1729 37.6101 44.5282 39.5542 43.7795 38.4869C43.7795 38.9189 44.1094 38.7029 44.1856 39.1984C43.9698 39.1984 43.4623 38.4106 43.3988 38.4233C43.0181 38.1565 43.3988 39.3509 43.1069 39.2111C43.2212 39.4144 43.4496 39.9862 43.31 40.2657C43.0816 40.2657 42.7643 39.4144 42.8278 39.1984C42.8912 38.9824 42.9166 39.1984 42.9293 39.3128C42.9729 39.2492 42.9963 39.1739 42.9963 39.0967C42.9963 39.0196 42.9729 38.9443 42.9293 38.8807V39.1095C42.7516 38.9062 42.4978 39.0078 42.4471 38.6266C42.4134 38.716 42.4158 38.8151 42.4537 38.9028C42.4916 38.9905 42.562 39.06 42.6501 39.0967C42.2948 38.8299 42.2567 39.1984 41.9268 39.0205C42.0156 39.1476 42.1298 39.4017 42.0918 39.4144C41.6222 39.1984 42.0918 39.8845 41.8253 40.037C41.5715 39.7193 41.6222 39.1857 41.4573 39.5288C41.2811 39.2968 41.2036 39.0045 41.2415 38.7156C41.14 39.2111 40.7213 38.4996 40.569 38.4233L40.6324 38.22C40.6241 38.2582 40.6034 38.2926 40.5736 38.3179C40.5438 38.3432 40.5065 38.3579 40.4675 38.3598L40.6705 38.8299C40.5817 38.7537 40.5182 38.8299 40.4675 38.5631C40.5846 38.9795 40.6695 39.4043 40.7213 39.8337C40.5563 39.605 40.4929 40.1641 40.2898 39.516C40.6451 39.6812 40.0741 38.868 40.2898 38.7156C40.2898 38.8045 40.201 38.8172 40.1122 38.7156C40.0959 38.6574 40.0959 38.5959 40.1122 38.5377C39.6807 38.004 40.1756 39.3 39.8711 39.3382C39.8711 38.9697 39.6299 38.652 39.5919 38.741C39.5538 38.8299 39.8203 39.3509 39.7695 39.6558C39.5157 39.4017 39.6173 39.9226 39.5157 39.9099L39.6553 40.0243C39.7188 40.4055 39.6553 40.3801 39.503 40.5325C39.4142 40.2403 39.5665 40.3038 39.503 40.1768C39.503 40.8883 38.9955 39.5669 38.8939 40.0624C38.7417 39.821 38.729 39.3382 38.6021 39.173C38.4879 39.7193 38.2341 38.6774 38.0818 39.173C38.2319 39.4581 38.2682 39.7896 38.1833 40.1005L38.5132 39.6812L38.4117 40.4817C38.5386 40.4817 38.6021 40.1132 38.7036 40.1895C38.6406 40.439 38.677 40.7033 38.8051 40.9264C38.4625 40.1641 38.564 41.4347 38.2468 40.9264L37.9803 39.6558C37.5742 39.0967 37.5996 40.4055 37.1554 40.1132L37.3204 40.3419C37.3204 40.8756 37.1047 40.4436 37.0159 40.685C36.9608 40.3779 36.867 40.079 36.7367 39.7956C36.8001 40.1259 36.4575 39.7956 36.5717 40.7231L36.3052 40.1386C35.9626 39.9354 36.1656 41.5109 35.8357 41.4093C35.8357 40.8883 35.6707 40.5834 35.8357 40.1386C35.7342 40.1386 35.6327 40.1386 35.6834 40.4055C35.5819 40.1132 35.5058 41.0662 35.3535 40.6342C35.3535 40.8502 35.3535 41.3457 35.2774 41.333C35.2723 41.2526 35.2723 41.172 35.2774 41.0916C35.2774 41.333 35.1505 41.4347 35.2774 41.9429C34.7698 40.4944 34.4144 42.1208 34.0084 40.8629C33.8237 41.0426 33.6031 41.1811 33.3612 41.2695C33.3612 41.117 33.3612 41.0281 33.3612 41.0662C33.044 40.6342 33.3612 42.4766 32.9551 42.0065C32.7267 41.2314 33.082 41.5617 32.9551 41.2695C32.7775 39.6685 32.5871 41.5236 32.3079 40.5961V40.4944C32.1049 39.9608 31.9653 41.1424 31.6861 41.0535C31.6973 40.9692 31.6973 40.8837 31.6861 40.7994C31.6662 41.0611 31.5941 41.3162 31.4743 41.5497C31.3544 41.7832 31.1892 41.9903 30.9882 42.1589C31.0532 41.8318 31.0532 41.495 30.9882 41.1678C30.874 41.2695 31.0643 42.2225 30.8359 42.4385C30.6737 42.0055 30.5712 41.5523 30.5314 41.0916H30.7471C30.5948 40.1895 30.4679 41.0916 30.3537 40.9646V40.5707C30.0365 40.6977 30.0492 41.6888 29.7065 41.6253V41.9175C29.5162 42.9086 29.5289 41.3711 29.3512 42.1081V41.1043C29.1773 41.5196 28.9467 41.9088 28.666 42.2606C28.7718 41.6827 28.9465 41.1196 29.1863 40.5834C29.0594 40.5834 28.7675 40.6596 28.6914 41.1551C28.6914 41.0535 28.8056 40.8121 28.8563 40.9646C28.704 41.7523 28.4883 42.1462 28.2345 42.1335C28.3234 40.1895 27.5873 41.6507 27.4604 40.1132C27.0036 40.7994 26.6229 39.7448 26.1915 39.8337C26.2676 41.3457 26.0392 39.8337 25.9631 41.4093C25.8362 41.5109 25.7854 41.4093 25.7854 41.4093L25.4935 40.469C25.4935 40.0243 25.6331 40.1386 25.6585 39.7956C25.4047 39.6558 25.595 39.1349 25.4682 38.7156C25.4682 39.2746 25.3159 39.5033 25.189 39.2873L25.3286 39.9989C24.8971 40.7994 25.1382 38.7283 24.7068 39.4906L24.8717 39.0078C24.656 39.2873 24.2119 39.0078 23.8819 40.1641C23.8542 39.9273 23.8847 39.6874 23.9708 39.4652C23.5647 39.2238 22.8287 40.6215 22.5876 39.8337L22.6764 39.4779C22.5749 39.5669 22.4226 40.1387 22.3845 39.7575C22.3845 39.6177 22.4734 39.4017 22.3845 39.3763C22.2957 39.3509 22.0673 39.9862 21.9912 39.7575L22.1561 39.3636C21.8135 38.8426 21.3313 40.2784 20.8871 40.469C20.9743 40.2017 21.0013 39.9184 20.9662 39.6394C20.9311 39.3604 20.8347 39.0927 20.6841 38.8553V38.7156C20.2273 38.4996 19.6816 39.4144 19.1233 39.7193C19.1233 38.5631 18.273 39.0713 17.9685 38.4487C17.9367 38.7471 17.8273 39.0319 17.6512 39.2746C17.6512 39.0586 17.1563 39.8845 17.4228 39.0078C17.5751 38.1311 17.2832 38.3344 17.131 38.2708L16.7757 39.389C16.7757 37.6482 15.4178 39.6558 15.6209 38.1819C15.4305 38.4233 15.2909 38.3852 15.1006 38.6139L15.2909 38.0548C15.1968 37.9425 15.0736 37.8581 14.9349 37.8111C14.7961 37.764 14.6472 37.756 14.5042 37.788L14.7199 37.4068C14.5296 37.3306 13.8951 38.9189 13.6793 38.8934L13.9205 38.0803C13.5398 38.0167 13.4636 37.2035 12.8291 37.788C12.8291 37.6737 12.9814 37.4577 13.0449 37.4449C12.8799 37.3687 12.6007 36.7588 12.2454 37.7753C12.5119 37.1273 11.9028 37.5974 11.5855 37.7753L11.8139 37.3179C11.3952 37.8643 11.319 38.0294 11.0145 38.1057C11.0145 38.0294 11.1287 37.7245 11.1414 37.8643C11.1414 37.5593 10.8115 38.2454 10.6972 37.8643L10.913 37.6101C10.7353 37.5085 10.6846 37.6737 10.4308 37.9659C10.177 38.2581 10.1262 37.7118 10.2785 37.3179C10.1389 37.5466 9.8851 37.8261 9.83434 37.6737C9.86487 37.5721 9.92715 37.483 10.012 37.4195C9.83434 37.0256 9.32675 37.6991 9.31406 37.2035C9.35776 37.1254 9.38375 37.0387 9.3902 36.9494C9.63131 37.0638 9.80896 37.1781 9.78358 37.1908C9.97393 36.8096 9.78358 36.6699 10.215 36.2125C9.92317 36.4412 9.35213 36.9367 9.25061 36.6826C9.24201 36.6364 9.24201 36.589 9.25061 36.5428C9.25061 36.4793 9.17447 36.5428 9.09834 36.5428C9.0222 36.5428 9.09834 36.403 8.99682 36.3776C9.12371 36.0727 8.85723 36.1362 8.7684 36.0727C8.57805 36.4539 8.47654 36.3395 8.42578 36.6953C8.42578 36.6953 8.42578 36.6953 8.55267 36.6953L8.80647 36.7842C8.62881 36.9367 8.45116 37.0638 8.46385 36.7842L8.00701 37.3179C8.1466 36.7334 8.00701 36.3522 8.17198 36.0473C7.75322 36.1235 7.38522 35.9075 6.903 36.4285C6.77611 36.4285 6.903 36.2125 6.903 36.1108C6.903 36.0092 7.04259 36.1108 7.11873 36.0219C6.86493 36.1108 6.57307 35.8694 6.29389 36.2506C6.19238 35.971 6.63652 35.9456 6.29389 35.8694L6.4081 35.7677C6.31927 35.3103 5.92589 35.4501 5.57058 35.5263C5.21526 35.6026 5.07568 35.5771 4.94878 35.1197C4.96729 35.1689 4.96729 35.2231 4.94878 35.2722C4.41581 34.6242 3.33718 34.6623 2.89303 33.9126C2.74076 33.7348 2.62655 33.8364 2.46158 33.8364L2.53772 33.6712H2.20779C1.86516 33.5569 1.9413 33.0867 1.4464 33.0105V33.0994C1.26874 33.0359 1.01495 32.8453 1.07839 32.8199C1.14184 32.7945 1.00226 32.8199 0.976877 32.8199L0.634253 32.642C0.393147 32.4641 0.735771 32.642 0.355077 32.3752L-0.000236511 32.1211C0.0486674 32.1457 0.0918887 32.1804 0.126661 32.2227L-0.000236511 32.1338C-0.285904 31.7584 -0.706255 31.509 -1.17232 31.4384C-1.63839 31.3678 -2.11359 31.4816 -2.49735 31.7557C-2.8811 32.0297 -3.1433 32.4425 -3.22845 32.9068C-3.31359 33.371 -3.21499 33.8501 -2.95353 34.2428C-2.69206 34.6355 -2.28824 34.911 -1.82755 35.0108C-1.36685 35.1107 -0.885434 35.0271 -0.485186 34.7778C-0.0849378 34.5285 0.202728 34.1331 0.316924 33.6751C0.43112 33.2172 0.362885 32.7328 0.126661 32.3244L0.291628 32.5023V32.5912L0.164731 32.4133C0.203167 32.5002 0.264603 32.5749 0.342387 32.6293C0.334867 32.6671 0.334867 32.7059 0.342387 32.7437L0.558114 32.8834C0.558114 32.8834 0.443906 32.8834 0.558114 32.9978C0.672322 33.1122 0.558114 32.8453 0.685012 32.9978C0.811909 33.1503 0.685011 33.1376 0.79922 33.2011C0.913427 33.2646 0.79922 33.2011 0.710391 33.2011C0.621563 33.2011 0.938807 33.4552 1.02764 33.4425C1.11646 33.4298 1.3195 33.7602 1.20529 33.8872C1.32295 33.8998 1.4338 33.9486 1.52254 34.027C1.23067 34.027 1.80171 34.3701 1.58599 34.5607C1.83978 34.4844 2.01744 34.9291 2.3093 35.0181C2.3093 35.0181 2.23316 35.0181 2.22048 35.0181C2.27861 35.1412 2.30894 35.2757 2.3093 35.412C2.48696 35.196 2.71538 35.323 2.91841 35.2468C2.91841 35.6153 2.62655 35.4628 2.49965 35.7296C2.63924 35.5263 2.89303 35.7296 2.96917 35.5517C3.01655 35.6918 3.01655 35.8436 2.96917 35.9837C3.22297 35.6661 3.10876 35.9837 3.34987 35.8948C3.34987 36.2125 3.15952 36.2633 3.34987 36.3268C3.426 36.4793 3.1849 36.4539 3.1849 36.4539ZM8.53999 39.4017L8.37502 39.2746C8.43847 39.1349 8.5273 38.9951 8.56536 39.0332C8.60343 39.0713 8.53999 39.2492 8.53999 39.389V39.4017ZM9.08564 36.2252C9.18716 36.2252 9.16178 36.2252 9.08564 36.3649H8.99682L9.08564 36.2252Z" fill="#2079FF"/>
        <path d="M8.71777 36.6826V36.8478L8.8066 36.7334L8.71777 36.6826Z" fill="#2079FF"/>
        <path d="M14.1108 43.3151L14.1616 43.1753L14.0728 43.2769L14.1108 43.3151Z" fill="#2079FF"/>
        <path d="M50.8223 37.9658C50.8431 37.9712 50.8649 37.9712 50.8857 37.9658H50.8223Z" fill="#2079FF"/>
        <path d="M52.5229 36.9747C52.5254 36.9451 52.5254 36.9153 52.5229 36.8857V36.9747Z" fill="#2079FF"/>
        <path d="M40.48 43.9126C40.4166 44.0905 40.4547 44.027 40.48 43.9126V43.9126Z" fill="#2079FF"/>
        <path d="M43.9951 41.2568C44.0039 41.3498 44.0039 41.4434 43.9951 41.5364C44.0332 41.5491 44.0966 41.5364 43.9951 41.2568Z" fill="#2079FF"/>
        <path d="M43.7793 41.6125C43.8808 41.6125 43.9316 41.6125 43.957 41.5362C43.9823 41.46 43.8047 41.5108 43.7793 41.6125Z" fill="#2079FF"/>
        <path d="M55.2764 34.4963L55.3013 34.4714V34.459L55.2764 34.4963Z" fill="#2079FF"/>
        <path d="M54.2104 35.5773C54.2739 35.5773 54.4135 35.5138 54.4769 35.3994C54.4642 35.4121 54.2231 35.3994 54.2104 35.5773Z" fill="#2079FF"/>
        <path d="M52.6621 35.7548L52.9286 35.6532C52.8525 35.6532 52.7382 35.5769 52.8398 35.5007C52.4083 35.488 53.0047 35.5769 52.6621 35.7548Z" fill="#2079FF"/>
        <path d="M51.7995 36.0219C51.9137 35.933 51.7234 35.9203 51.7107 35.8694C51.698 35.8186 51.6599 36.0092 51.7995 36.0219Z" fill="#2079FF"/>
        <path d="M46.0636 38.4866L45.924 38.1182C45.8352 38.1817 45.9874 38.2452 46.0636 38.4866Z" fill="#2079FF"/>
        <path d="M45.7847 41.0026L46.0004 41.2186L45.8989 40.812L45.7847 41.0026Z" fill="#2079FF"/>
        <path d="M43.9443 38.1817L43.9697 38.1055L43.8555 38.3088L43.9443 38.1817Z" fill="#2079FF"/>
        <path d="M34.0464 40.0627L34.1733 40.8251C34.2621 40.6599 34.1352 39.834 34.0464 40.0627Z" fill="#2079FF"/>
        <path d="M29.7191 41.0534C29.7191 40.6595 29.5415 40.4054 29.4653 40.7993C29.5669 40.8501 29.6684 41.1678 29.7191 41.0534Z" fill="#2079FF"/>
        <path d="M16.9023 38.4362L17.0546 38.2329L16.8389 38.3854L16.9023 38.4362Z" fill="#2079FF"/>
    </g>
    <defs>
        <clipPath id="clip0_323_1936">
            <rect width="56" height="47" fill="white"/>
        </clipPath>
    </defs>
</svg>
