<svg width="19" height="20" viewBox="0 0 19 20" fill="none" xmlns="http://www.w3.org/2000/svg">
<path d="M9.33008 2.648C4.36814 2.648 0.330078 6.538 0.330078 11.318C0.330078 16.098 4.36814 19.998 9.33008 19.998C14.292 19.998 18.3301 16.108 18.3301 11.328C18.3301 6.548 14.292 2.648 9.33008 2.648ZM10.1086 10.998C10.1086 11.408 9.75568 11.748 9.33008 11.748C8.90447 11.748 8.55153 11.408 8.55153 10.998V5.998C8.55153 5.588 8.90447 5.248 9.33008 5.248C9.75568 5.248 10.1086 5.588 10.1086 5.998V10.998ZM12.3301 1.45H6.33008C5.91485 1.45 5.58267 1.13 5.58267 0.73C5.58267 0.33 5.91485 0 6.33008 0H12.3301C12.7453 0 13.0775 0.32 13.0775 0.72C13.0775 1.12 12.7453 1.45 12.3301 1.45Z" fill="#6A7185"/>
</svg>
