<svg width="49" height="49" viewBox="0 0 49 49" fill="none" xmlns="http://www.w3.org/2000/svg">
    <path d="M24.5 0.75C11.39 0.75 0.75 11.39 0.75 24.5C0.75 37.61 11.39 48.25 24.5 48.25C37.61 48.25 48.25 37.61 48.25 24.5C48.25 11.39 37.61 0.75 24.5 0.75ZM24.5 16.7812C23.5262 16.7812 22.7187 15.9737 22.7187 15C22.7187 14.0262 23.5262 13.2187 24.5 13.2187C30.7225 13.2187 35.7812 18.2775 35.7812 24.5C35.7812 30.7225 30.7225 35.7812 24.5 35.7812C23.5262 35.7812 22.7187 34.9737 22.7187 34C22.7187 33.0262 23.5262 32.2187 24.5 32.2187C28.7512 32.2187 32.2187 28.7512 32.2187 24.5C32.2187 20.2487 28.7512 16.7812 24.5 16.7812ZM24.5 42.9062C14.3587 42.9062 6.09375 34.6412 6.09375 24.5C6.09375 23.5262 6.90125 22.7187 7.875 22.7187C8.84875 22.7187 9.65625 23.5262 9.65625 24.5C9.65625 32.6937 16.3062 39.3437 24.5 39.3437C32.6937 39.3437 39.3437 32.6937 39.3437 24.5C39.3437 16.3062 32.6937 9.65625 24.5 9.65625C23.5262 9.65625 22.7187 8.84875 22.7187 7.875C22.7187 6.90125 23.5262 6.09375 24.5 6.09375C34.6412 6.09375 42.9062 14.3587 42.9062 24.5C42.9062 34.6412 34.6412 42.9062 24.5 42.9062Z" fill="#0046D0"/>
</svg>
