<svg width="49" height="49" viewBox="0 0 49 49" fill="none" xmlns="http://www.w3.org/2000/svg">
    <path d="M29.25 34C29.25 38.2038 27.4212 42.0038 24.5 44.5925C21.9001 46.9535 18.5119 48.258 15 48.25C7.13875 48.25 0.75 41.8613 0.75 34C0.75143 31.714 1.30366 29.4619 2.35993 27.4346C3.41621 25.4072 4.94543 23.6641 6.81812 22.353C7.4095 21.9398 8.20512 22.2224 8.52337 22.8684C9.63725 25.1283 11.2182 27.126 13.1618 28.7293C15.1053 30.3326 17.3671 31.505 19.7975 32.1689C21.2938 32.5964 22.8612 32.8102 24.5 32.8102C25.6566 32.8102 26.7657 32.7009 27.8416 32.499C28.528 32.3708 29.2096 32.8078 29.2381 33.506C29.2476 33.6723 29.25 33.8362 29.25 33.9977V34Z" fill="#0046D0"/>
    <path d="M38.75 15C38.7537 18.1269 37.7276 21.1681 35.8302 23.6535C33.9329 26.139 31.2698 27.9305 28.2525 28.7512C27.065 29.0837 25.8063 29.25 24.5 29.25C23.1938 29.25 21.935 29.0837 20.7475 28.7512C17.7302 27.9305 15.0672 26.139 13.1698 23.6535C11.2724 21.1681 10.2463 18.1269 10.25 15C10.25 7.13875 16.6388 0.75 24.5 0.75C32.3613 0.75 38.75 7.13875 38.75 15ZM48.25 34C48.2471 36.3041 47.686 38.5732 46.6147 40.6131C45.5434 42.653 43.9938 44.403 42.0985 45.7133C40.2032 47.0236 38.0187 47.8551 35.7318 48.1368C33.445 48.4186 31.124 48.142 28.9674 47.3309C28.2098 47.0435 28.0696 46.0745 28.5969 45.4594C31.3254 42.2655 32.8207 38.2006 32.8125 34C32.8125 33.1925 32.7413 32.385 32.6225 31.625C32.5906 31.4107 32.6254 31.1918 32.7223 30.998C32.8192 30.8043 32.9734 30.645 33.164 30.542C36.3279 28.793 38.88 26.1166 40.4766 22.8731C40.7949 22.2271 41.5929 21.9421 42.1819 22.3577C44.0534 23.6683 45.5819 25.4102 46.6382 27.4362C47.6944 29.4623 48.2472 31.7128 48.25 33.9976V34Z" fill="#0046D0"/>
</svg>
