<svg width="21" height="20" viewBox="0 0 21 20" fill="none" xmlns="http://www.w3.org/2000/svg">
    <path fill-rule="evenodd" clip-rule="evenodd" d="M0.0830078 10C0.0830078 4.49 4.76009 0 10.4997 0C16.2393 0 20.9163 4.49 20.9163 10C20.9163 15.51 16.2393 20 10.4997 20C4.76009 20 0.0830078 15.51 0.0830078 10ZM10.1848 13.1075L15.216 8.2775C15.5181 7.9875 15.5181 7.5075 15.216 7.2175C14.9139 6.9275 14.4139 6.9275 14.1119 7.2175L9.6327 11.5175L7.66395 9.6275C7.36186 9.3375 6.86186 9.3375 6.55978 9.6275C6.41449 9.76864 6.33301 9.95907 6.33301 10.1575C6.33301 10.3559 6.41449 10.5464 6.55978 10.6875L9.08061 13.1075C9.2271 13.248 9.42566 13.3268 9.6327 13.3268C9.83973 13.3268 10.0383 13.248 10.1848 13.1075Z" fill="#83BF6E"/>
</svg>
