<svg width="40" height="40" viewBox="0 0 40 40" fill="none" xmlns="http://www.w3.org/2000/svg">
    <g clip-path="url(#clip0_496_1061)">
        <path d="M34 0H6C2.68629 0 0 2.68629 0 6V34C0 37.3137 2.68629 40 6 40H34C37.3137 40 40 37.3137 40 34V6C40 2.68629 37.3137 0 34 0Z" fill="#ED1D24"/>
        <path d="M33.3593 13.2035C33.0468 12.0316 32.0311 11.0941 30.8593 10.7816C28.203 10.0785 12.1874 10.0004 9.14052 10.7816C7.96865 11.0941 6.95302 12.0316 6.64052 13.2035C5.9374 16.1723 5.85927 23.7504 6.64052 26.7973C6.95302 27.9691 7.96865 28.9066 9.14052 29.2191C11.953 30.0004 27.9686 30.0004 30.8593 29.2191C32.0311 28.9066 33.0468 27.9691 33.3593 26.7973C34.0624 23.9848 34.0624 16.0941 33.3593 13.2035Z" fill="white"/>
        <path d="M17.1875 15.8594V24.1406L24.4531 20" fill="#ED1D24"/>
    </g>
    <defs>
        <clipPath id="clip0_496_1061">
            <rect width="40" height="40" fill="white"/>
        </clipPath>
    </defs>
</svg>
